<ttFont>
    <TTGlyph name=".notdef" xMin="51" yMin="0" xMax="461" yMax="503">
      <contour>
        <pt x="51" y="0" on="1"/>
        <pt x="51" y="503" on="1"/>
        <pt x="461" y="503" on="1"/>
        <pt x="461" y="0" on="1"/>
      </contour>
      <contour>
        <pt x="102" y="51" on="1"/>
        <pt x="410" y="51" on="1"/>
        <pt x="410" y="452" on="1"/>
        <pt x="102" y="452" on="1"/>
      </contour>
    </TTGlyph>
    <TTGlyph name="A" xMin="9" yMin="-6" xMax="837" yMax="723">
      <contour>
        <pt x="140" y="0" on="1"/>
        <pt x="123" y="0" on="0"/>
        <pt x="89" y="-1" on="0"/>
        <pt x="63" y="-3" on="0"/>
        <pt x="43" y="-5" on="0"/>
        <pt x="31" y="-6" on="0"/>
        <pt x="30" y="-6" on="1"/>
        <pt x="9" y="-6" on="0"/>
        <pt x="9" y="15" on="1"/>
        <pt x="9" y="20" on="0"/>
        <pt x="10" y="27" on="0"/>
        <pt x="13" y="33" on="0"/>
        <pt x="15" y="37" on="0"/>
        <pt x="22" y="40" on="0"/>
        <pt x="24" y="41" on="0"/>
        <pt x="35" y="43" on="0"/>
        <pt x="38" y="44" on="0"/>
        <pt x="53" y="46" on="0"/>
        <pt x="55" y="46" on="1"/>
        <pt x="79" y="49" on="0"/>
        <pt x="103" y="68" on="0"/>
        <pt x="114" y="95" on="1"/>
        <pt x="186" y="256" on="0"/>
        <pt x="270" y="423" on="1"/>
        <pt x="418" y="703" on="0"/>
        <pt x="423" y="710" on="1"/>
        <pt x="425" y="712" on="0"/>
        <pt x="429" y="715" on="1"/>
        <pt x="440" y="723" on="0"/>
        <pt x="454" y="723" on="1"/>
        <pt x="481" y="723" on="0"/>
        <pt x="497" y="684" on="1"/>
        <pt x="644" y="344" on="1"/>
        <pt x="756" y="73" on="0"/>
        <pt x="758" y="70" on="1"/>
        <pt x="769" y="54" on="0"/>
        <pt x="806" y="44" on="0"/>
        <pt x="833" y="40" on="0"/>
        <pt x="835" y="30" on="1"/>
        <pt x="837" y="22" on="0"/>
        <pt x="837" y="16" on="1"/>
        <pt x="837" y="-6" on="0"/>
        <pt x="816" y="-6" on="1"/>
        <pt x="799" y="-4" on="1"/>
        <pt x="782" y="-3" on="0"/>
        <pt x="725" y="0" on="0"/>
        <pt x="698" y="0" on="1"/>
        <pt x="665" y="0" on="0"/>
        <pt x="611" y="-3" on="0"/>
        <pt x="580" y="-6" on="0"/>
        <pt x="577" y="-6" on="1"/>
        <pt x="556" y="-6" on="0"/>
        <pt x="556" y="11" on="1"/>
        <pt x="556" y="16" on="0"/>
        <pt x="557" y="24" on="0"/>
        <pt x="560" y="31" on="0"/>
        <pt x="561" y="35" on="0"/>
        <pt x="569" y="39" on="0"/>
        <pt x="573" y="40" on="0"/>
        <pt x="585" y="42" on="0"/>
        <pt x="592" y="43" on="0"/>
        <pt x="610" y="45" on="0"/>
        <pt x="616" y="46" on="1"/>
        <pt x="637" y="50" on="0"/>
        <pt x="637" y="66" on="1"/>
        <pt x="637" y="81" on="0"/>
        <pt x="588" y="234" on="0"/>
        <pt x="560" y="297" on="1"/>
        <pt x="556" y="307" on="0"/>
        <pt x="542" y="307" on="1"/>
        <pt x="301" y="307" on="1"/>
        <pt x="285" y="307" on="0"/>
        <pt x="278" y="295" on="1"/>
        <pt x="243" y="230" on="0"/>
        <pt x="188" y="91" on="0"/>
        <pt x="188" y="74" on="1"/>
        <pt x="188" y="56" on="0"/>
        <pt x="211" y="45" on="0"/>
        <pt x="240" y="42" on="1"/>
        <pt x="249" y="42" on="0"/>
        <pt x="253" y="41" on="1"/>
        <pt x="275" y="39" on="0"/>
        <pt x="275" y="16" on="1"/>
        <pt x="275" y="-6" on="0"/>
        <pt x="253" y="-6" on="1"/>
        <pt x="250" y="-6" on="0"/>
        <pt x="221" y="-3" on="0"/>
        <pt x="170" y="0" on="0"/>
      </contour>
      <contour>
        <pt x="521" y="360" on="1"/>
        <pt x="530" y="360" on="0"/>
        <pt x="530" y="376" on="0"/>
        <pt x="451" y="560" on="0"/>
        <pt x="440" y="579" on="1"/>
        <pt x="436" y="586" on="0"/>
        <pt x="429" y="586" on="1"/>
        <pt x="420" y="586" on="0"/>
        <pt x="410" y="568" on="1"/>
        <pt x="305" y="370" on="0"/>
        <pt x="305" y="360" on="0"/>
        <pt x="311" y="360" on="1"/>
      </contour>
    </TTGlyph>
    <TTGlyph name="AE" xMin="-4" yMin="-6" xMax="995" yMax="718">
      <contour>
        <pt x="529" y="360" on="1"/>
        <pt x="529" y="646" on="1"/>
        <pt x="513" y="646" on="0"/>
        <pt x="508" y="641" on="1"/>
        <pt x="478" y="610" on="0"/>
        <pt x="329" y="370" on="0"/>
        <pt x="329" y="360" on="1"/>
      </contour>
      <contour>
        <pt x="315" y="691" on="1"/>
        <pt x="315" y="698" on="0"/>
        <pt x="323" y="718" on="0"/>
        <pt x="330" y="718" on="1"/>
        <pt x="333" y="718" on="0"/>
        <pt x="359" y="716" on="0"/>
        <pt x="425" y="712" on="0"/>
        <pt x="470" y="710" on="1"/>
        <pt x="496" y="709" on="0"/>
        <pt x="718" y="709" on="1"/>
        <pt x="929" y="709" on="0"/>
        <pt x="934" y="708" on="1"/>
        <pt x="944" y="705" on="0"/>
        <pt x="946" y="691" on="1"/>
        <pt x="949" y="671" on="0"/>
        <pt x="964" y="606" on="0"/>
        <pt x="976" y="558" on="0"/>
        <pt x="976" y="557" on="1"/>
        <pt x="976" y="549" on="0"/>
        <pt x="960" y="538" on="0"/>
        <pt x="950" y="538" on="1"/>
        <pt x="937" y="538" on="0"/>
        <pt x="931" y="548" on="1"/>
        <pt x="928" y="554" on="0"/>
        <pt x="887" y="647" on="0"/>
        <pt x="883" y="653" on="1"/>
        <pt x="654" y="653" on="1"/>
        <pt x="639" y="653" on="0"/>
        <pt x="625" y="639" on="0"/>
        <pt x="623" y="626" on="0"/>
        <pt x="623" y="610" on="1"/>
        <pt x="623" y="460" on="1"/>
        <pt x="623" y="437" on="0"/>
        <pt x="643" y="437" on="1"/>
        <pt x="800" y="437" on="1"/>
        <pt x="826" y="437" on="0"/>
        <pt x="839" y="456" on="0"/>
        <pt x="839" y="484" on="1"/>
        <pt x="839" y="503" on="1"/>
        <pt x="839" y="525" on="0"/>
        <pt x="866" y="525" on="1"/>
        <pt x="894" y="525" on="0"/>
        <pt x="894" y="496" on="1"/>
        <pt x="894" y="307" on="1"/>
        <pt x="894" y="278" on="0"/>
        <pt x="866" y="278" on="1"/>
        <pt x="854" y="278" on="0"/>
        <pt x="841" y="286" on="0"/>
        <pt x="839" y="294" on="0"/>
        <pt x="839" y="300" on="1"/>
        <pt x="839" y="340" on="1"/>
        <pt x="839" y="364" on="0"/>
        <pt x="830" y="378" on="0"/>
        <pt x="812" y="378" on="1"/>
        <pt x="671" y="378" on="1"/>
        <pt x="655" y="378" on="0"/>
        <pt x="637" y="374" on="0"/>
        <pt x="621" y="355" on="0"/>
        <pt x="621" y="337" on="1"/>
        <pt x="621" y="111" on="1"/>
        <pt x="621" y="92" on="0"/>
        <pt x="623" y="77" on="0"/>
        <pt x="637" y="65" on="0"/>
        <pt x="653" y="63" on="1"/>
        <pt x="698" y="56" on="0"/>
        <pt x="750" y="56" on="1"/>
        <pt x="801" y="56" on="0"/>
        <pt x="885" y="70" on="0"/>
        <pt x="896" y="78" on="1"/>
        <pt x="905" y="85" on="0"/>
        <pt x="959" y="182" on="0"/>
        <pt x="967" y="187" on="1"/>
        <pt x="972" y="190" on="0"/>
        <pt x="977" y="190" on="1"/>
        <pt x="995" y="190" on="0"/>
        <pt x="995" y="167" on="1"/>
        <pt x="995" y="155" on="0"/>
        <pt x="964" y="20" on="1"/>
        <pt x="961" y="6" on="0"/>
        <pt x="946" y="0" on="0"/>
        <pt x="928" y="0" on="1"/>
        <pt x="444" y="0" on="1"/>
        <pt x="427" y="0" on="0"/>
        <pt x="427" y="30" on="0"/>
        <pt x="454" y="43" on="0"/>
        <pt x="488" y="43" on="0"/>
        <pt x="523" y="53" on="0"/>
        <pt x="529" y="67" on="1"/>
        <pt x="529" y="307" on="1"/>
        <pt x="348" y="307" on="1"/>
        <pt x="309" y="307" on="0"/>
        <pt x="295" y="304" on="0"/>
        <pt x="290" y="296" on="1"/>
        <pt x="250" y="233" on="0"/>
        <pt x="184" y="90" on="0"/>
        <pt x="184" y="74" on="1"/>
        <pt x="184" y="68" on="0"/>
        <pt x="187" y="59" on="0"/>
        <pt x="195" y="53" on="0"/>
        <pt x="202" y="49" on="0"/>
        <pt x="217" y="46" on="0"/>
        <pt x="228" y="44" on="0"/>
        <pt x="251" y="41" on="0"/>
        <pt x="258" y="40" on="1"/>
        <pt x="276" y="38" on="0"/>
        <pt x="276" y="-6" on="0"/>
        <pt x="259" y="-6" on="1"/>
        <pt x="258" y="-6" on="0"/>
        <pt x="244" y="-5" on="0"/>
        <pt x="221" y="-3" on="0"/>
        <pt x="192" y="-1" on="0"/>
        <pt x="153" y="0" on="0"/>
        <pt x="135" y="0" on="1"/>
        <pt x="116" y="0" on="0"/>
        <pt x="78" y="-1" on="0"/>
        <pt x="49" y="-3" on="0"/>
        <pt x="27" y="-5" on="0"/>
        <pt x="13" y="-6" on="0"/>
        <pt x="12" y="-6" on="1"/>
        <pt x="-4" y="-6" on="0"/>
        <pt x="-4" y="15" on="1"/>
        <pt x="-4" y="33" on="0"/>
        <pt x="7" y="37" on="1"/>
        <pt x="11" y="38" on="0"/>
        <pt x="41" y="43" on="0"/>
        <pt x="69" y="52" on="0"/>
        <pt x="89" y="68" on="0"/>
        <pt x="117" y="121" on="0"/>
        <pt x="201" y="274" on="0"/>
        <pt x="259" y="369" on="1"/>
        <pt x="297" y="431" on="0"/>
        <pt x="363" y="532" on="0"/>
        <pt x="399" y="583" on="0"/>
        <pt x="426" y="620" on="0"/>
        <pt x="435" y="635" on="0"/>
        <pt x="435" y="640" on="1"/>
        <pt x="435" y="655" on="0"/>
        <pt x="369" y="664" on="1"/>
        <pt x="348" y="667" on="0"/>
        <pt x="336" y="669" on="1"/>
        <pt x="315" y="672" on="0"/>
      </contour>
    </TTGlyph>
    <TTGlyph name="Aacute" xMin="9" yMin="-6" xMax="837" yMax="919">
      <component glyphName="acute.cap" x="350" y="-2" flags="0x1004"/>
      <component glyphName="A" x="0" y="0" flags="0x1004"/>
    </TTGlyph>
    <TTGlyph name="Abreve" xMin="9" yMin="-6" xMax="837" yMax="892">
      <component glyphName="breve.cap" x="288" y="10" flags="0x1004"/>
      <component glyphName="A" x="0" y="0" flags="0x1004"/>
    </TTGlyph>
    <TTGlyph name="Acircumflex" xMin="9" yMin="-6" xMax="837" yMax="900">
      <component glyphName="circumflex.cap" x="312" y="-4" flags="0x1004"/>
      <component glyphName="A" x="0" y="0" flags="0x1004"/>
    </TTGlyph>
    <TTGlyph name="Adieresis" xMin="9" yMin="-6" xMax="837" yMax="842">
      <component glyphName="dieresis" x="321" y="161" flags="0x1004"/>
      <component glyphName="A" x="0" y="0" flags="0x1004"/>
    </TTGlyph>
    <TTGlyph name="Agrave" xMin="9" yMin="-6" xMax="837" yMax="920">
      <component glyphName="grave.cap" x="278" y="-1" flags="0x1004"/>
      <component glyphName="A" x="0" y="0" flags="0x1004"/>
    </TTGlyph>
    <TTGlyph name="Aring" xMin="9" yMin="-6" xMax="837" yMax="911">
      <component glyphName="ring" x="353" y="245" flags="0x1004"/>
      <component glyphName="A" x="0" y="0" flags="0x1004"/>
    </TTGlyph>
    <TTGlyph name="Atilde" xMin="9" yMin="-6" xMax="837" yMax="865">
      <component glyphName="tilde" x="275" y="181" flags="0x1004"/>
      <component glyphName="A" x="0" y="0" flags="0x1004"/>
    </TTGlyph>
    <TTGlyph name="B" xMin="17" yMin="-6" xMax="549" yMax="712">
      <contour>
        <pt x="92" y="702" on="1"/>
        <pt x="123" y="702" on="0"/>
        <pt x="240" y="712" on="0"/>
        <pt x="270" y="712" on="1"/>
        <pt x="381" y="712" on="0"/>
        <pt x="440" y="671" on="1"/>
        <pt x="503" y="625" on="0"/>
        <pt x="503" y="553" on="1"/>
        <pt x="503" y="506" on="0"/>
        <pt x="449" y="422" on="0"/>
        <pt x="406" y="395" on="1"/>
        <pt x="403" y="392" on="1"/>
        <pt x="403" y="391" on="0"/>
        <pt x="407" y="389" on="1"/>
        <pt x="467" y="378" on="0"/>
        <pt x="549" y="278" on="0"/>
        <pt x="549" y="211" on="1"/>
        <pt x="549" y="143" on="0"/>
        <pt x="471" y="40" on="0"/>
        <pt x="419" y="17" on="1"/>
        <pt x="368" y="-6" on="0"/>
        <pt x="296" y="-6" on="1"/>
        <pt x="272" y="-6" on="0"/>
        <pt x="180" y="0" on="0"/>
        <pt x="156" y="0" on="1"/>
        <pt x="139" y="0" on="0"/>
        <pt x="63" y="-2" on="0"/>
        <pt x="39" y="-2" on="1"/>
        <pt x="37" y="-2" on="1"/>
        <pt x="31" y="-2" on="0"/>
        <pt x="24" y="0" on="0"/>
        <pt x="17" y="12" on="0"/>
        <pt x="17" y="23" on="1"/>
        <pt x="17" y="35" on="0"/>
        <pt x="32" y="41" on="0"/>
        <pt x="61" y="44" on="1"/>
        <pt x="70" y="45" on="0"/>
        <pt x="75" y="46" on="1"/>
        <pt x="82" y="47" on="0"/>
        <pt x="89" y="50" on="0"/>
        <pt x="96" y="59" on="0"/>
        <pt x="96" y="67" on="1"/>
        <pt x="96" y="627" on="1"/>
        <pt x="96" y="646" on="0"/>
        <pt x="75" y="657" on="0"/>
        <pt x="48" y="659" on="1"/>
        <pt x="45" y="659" on="0"/>
        <pt x="43" y="659" on="1"/>
        <pt x="25" y="659" on="0"/>
        <pt x="25" y="685" on="1"/>
        <pt x="25" y="703" on="0"/>
        <pt x="43" y="703" on="1"/>
        <pt x="44" y="703" on="0"/>
        <pt x="56" y="702" on="0"/>
        <pt x="79" y="702" on="0"/>
      </contour>
      <contour>
        <pt x="412" y="531" on="1"/>
        <pt x="412" y="552" on="0"/>
        <pt x="398" y="595" on="0"/>
        <pt x="366" y="639" on="0"/>
        <pt x="303" y="667" on="0"/>
        <pt x="261" y="667" on="1"/>
        <pt x="204" y="667" on="0"/>
        <pt x="189" y="655" on="1"/>
        <pt x="184" y="651" on="0"/>
        <pt x="184" y="642" on="1"/>
        <pt x="184" y="640" on="1"/>
        <pt x="184" y="421" on="1"/>
        <pt x="184" y="408" on="0"/>
        <pt x="195" y="408" on="1"/>
        <pt x="241" y="408" on="1"/>
        <pt x="254" y="408" on="1"/>
        <pt x="362" y="408" on="0"/>
        <pt x="397" y="473" on="1"/>
        <pt x="412" y="503" on="0"/>
      </contour>
      <contour>
        <pt x="263" y="42" on="1"/>
        <pt x="344" y="42" on="0"/>
        <pt x="458" y="129" on="0"/>
        <pt x="458" y="206" on="1"/>
        <pt x="458" y="257" on="0"/>
        <pt x="399" y="344" on="0"/>
        <pt x="337" y="357" on="1"/>
        <pt x="304" y="364" on="0"/>
        <pt x="251" y="364" on="1"/>
        <pt x="199" y="364" on="1"/>
        <pt x="184" y="364" on="0"/>
        <pt x="184" y="348" on="1"/>
        <pt x="184" y="84" on="1"/>
        <pt x="184" y="73" on="0"/>
        <pt x="187" y="61" on="0"/>
        <pt x="201" y="48" on="0"/>
        <pt x="215" y="46" on="1"/>
        <pt x="245" y="42" on="0"/>
      </contour>
    </TTGlyph>
    <TTGlyph name="C" xMin="19" yMin="-25" xMax="705" yMax="713">
      <contour>
        <pt x="118" y="362" on="1"/>
        <pt x="118" y="221" on="0"/>
        <pt x="286" y="28" on="0"/>
        <pt x="406" y="28" on="1"/>
        <pt x="496" y="28" on="0"/>
        <pt x="645" y="138" on="0"/>
        <pt x="673" y="229" on="1"/>
        <pt x="678" y="243" on="0"/>
        <pt x="688" y="243" on="1"/>
        <pt x="705" y="243" on="0"/>
        <pt x="705" y="231" on="1"/>
        <pt x="682" y="72" on="0"/>
        <pt x="679" y="65" on="1"/>
        <pt x="674" y="48" on="0"/>
        <pt x="656" y="48" on="1"/>
        <pt x="655" y="48" on="1"/>
        <pt x="627" y="48" on="1"/>
        <pt x="615" y="48" on="0"/>
        <pt x="604" y="44" on="0"/>
        <pt x="585" y="30" on="0"/>
        <pt x="579" y="27" on="1"/>
        <pt x="489" y="-25" on="0"/>
        <pt x="389" y="-25" on="1"/>
        <pt x="318" y="-25" on="0"/>
        <pt x="182" y="31" on="0"/>
        <pt x="130" y="81" on="1"/>
        <pt x="78" y="132" on="0"/>
        <pt x="19" y="270" on="0"/>
        <pt x="19" y="343" on="1"/>
        <pt x="19" y="418" on="0"/>
        <pt x="81" y="558" on="0"/>
        <pt x="133" y="608" on="1"/>
        <pt x="243" y="713" on="0"/>
        <pt x="394" y="713" on="1"/>
        <pt x="395" y="713" on="1"/>
        <pt x="450" y="713" on="0"/>
        <pt x="543" y="686" on="0"/>
        <pt x="594" y="658" on="0"/>
        <pt x="596" y="658" on="1"/>
        <pt x="604" y="658" on="0"/>
        <pt x="616" y="692" on="0"/>
        <pt x="626" y="695" on="1"/>
        <pt x="628" y="695" on="0"/>
        <pt x="636" y="696" on="0"/>
        <pt x="637" y="696" on="1"/>
        <pt x="648" y="696" on="0"/>
        <pt x="650" y="684" on="1"/>
        <pt x="657" y="632" on="1"/>
        <pt x="664" y="579" on="0"/>
        <pt x="678" y="471" on="0"/>
        <pt x="678" y="467" on="1"/>
        <pt x="678" y="450" on="0"/>
        <pt x="657" y="450" on="1"/>
        <pt x="638" y="450" on="0"/>
        <pt x="632" y="463" on="0"/>
        <pt x="628" y="498" on="1"/>
        <pt x="623" y="536" on="0"/>
        <pt x="601" y="565" on="1"/>
        <pt x="566" y="609" on="0"/>
        <pt x="458" y="666" on="0"/>
        <pt x="392" y="666" on="1"/>
        <pt x="281" y="666" on="0"/>
        <pt x="118" y="498" on="0"/>
      </contour>
    </TTGlyph>
    <TTGlyph name="Cacute" xMin="19" yMin="-25" xMax="705" yMax="919">
      <component glyphName="acute.cap" x="266" y="-2" flags="0x1004"/>
      <component glyphName="C" x="0" y="0" flags="0x1004"/>
    </TTGlyph>
    <TTGlyph name="Ccaron" xMin="19" yMin="-25" xMax="705" yMax="900">
      <component glyphName="caron.cap" x="260" y="-4" flags="0x1004"/>
      <component glyphName="C" x="0" y="0" flags="0x1004"/>
    </TTGlyph>
    <TTGlyph name="Ccedilla" xMin="19" yMin="-200" xMax="705" yMax="713">
      <contour>
        <pt x="372" y="-24" on="1"/>
        <pt x="222" y="-17" on="0"/>
        <pt x="19" y="197" on="0"/>
        <pt x="19" y="343" on="1"/>
        <pt x="19" y="418" on="0"/>
        <pt x="81" y="558" on="0"/>
        <pt x="133" y="608" on="1"/>
        <pt x="243" y="713" on="0"/>
        <pt x="394" y="713" on="1"/>
        <pt x="395" y="713" on="1"/>
        <pt x="450" y="713" on="0"/>
        <pt x="543" y="686" on="0"/>
        <pt x="594" y="658" on="0"/>
        <pt x="596" y="658" on="1"/>
        <pt x="604" y="658" on="0"/>
        <pt x="616" y="692" on="0"/>
        <pt x="626" y="695" on="1"/>
        <pt x="628" y="695" on="0"/>
        <pt x="636" y="696" on="0"/>
        <pt x="637" y="696" on="1"/>
        <pt x="648" y="696" on="0"/>
        <pt x="650" y="684" on="1"/>
        <pt x="657" y="632" on="1"/>
        <pt x="664" y="579" on="0"/>
        <pt x="678" y="471" on="0"/>
        <pt x="678" y="467" on="1"/>
        <pt x="678" y="450" on="0"/>
        <pt x="657" y="450" on="1"/>
        <pt x="638" y="450" on="0"/>
        <pt x="632" y="463" on="0"/>
        <pt x="628" y="498" on="1"/>
        <pt x="623" y="536" on="0"/>
        <pt x="601" y="565" on="1"/>
        <pt x="566" y="609" on="0"/>
        <pt x="458" y="666" on="0"/>
        <pt x="392" y="666" on="1"/>
        <pt x="281" y="666" on="0"/>
        <pt x="118" y="498" on="0"/>
        <pt x="118" y="362" on="1"/>
        <pt x="118" y="221" on="0"/>
        <pt x="286" y="28" on="0"/>
        <pt x="406" y="28" on="1"/>
        <pt x="496" y="28" on="0"/>
        <pt x="645" y="138" on="0"/>
        <pt x="673" y="229" on="1"/>
        <pt x="678" y="243" on="0"/>
        <pt x="688" y="243" on="1"/>
        <pt x="705" y="243" on="0"/>
        <pt x="705" y="231" on="1"/>
        <pt x="682" y="72" on="0"/>
        <pt x="679" y="65" on="1"/>
        <pt x="674" y="48" on="0"/>
        <pt x="656" y="48" on="1"/>
        <pt x="655" y="48" on="1"/>
        <pt x="627" y="48" on="1"/>
        <pt x="615" y="48" on="0"/>
        <pt x="604" y="44" on="0"/>
        <pt x="585" y="30" on="0"/>
        <pt x="579" y="27" on="1"/>
        <pt x="498" y="-20" on="0"/>
        <pt x="406" y="-25" on="1"/>
        <pt x="404" y="-31" on="0"/>
        <pt x="400" y="-38" on="0"/>
        <pt x="400" y="-40" on="1"/>
        <pt x="399" y="-41" on="1"/>
        <pt x="399" y="-44" on="0"/>
        <pt x="403" y="-44" on="1"/>
        <pt x="407" y="-44" on="1"/>
        <pt x="445" y="-44" on="0"/>
        <pt x="493" y="-85" on="0"/>
        <pt x="493" y="-122" on="1"/>
        <pt x="493" y="-123" on="1"/>
        <pt x="493" y="-154" on="0"/>
        <pt x="454" y="-200" on="0"/>
        <pt x="409" y="-200" on="1"/>
        <pt x="386" y="-200" on="0"/>
        <pt x="331" y="-189" on="0"/>
        <pt x="328" y="-186" on="1"/>
        <pt x="324" y="-183" on="0"/>
        <pt x="324" y="-179" on="1"/>
        <pt x="324" y="-177" on="0"/>
        <pt x="326" y="-167" on="0"/>
        <pt x="333" y="-155" on="0"/>
        <pt x="338" y="-155" on="1"/>
        <pt x="342" y="-156" on="1"/>
        <pt x="346" y="-157" on="0"/>
        <pt x="358" y="-159" on="0"/>
        <pt x="371" y="-161" on="0"/>
        <pt x="386" y="-163" on="0"/>
        <pt x="391" y="-163" on="1"/>
        <pt x="408" y="-163" on="0"/>
        <pt x="430" y="-144" on="0"/>
        <pt x="430" y="-130" on="1"/>
        <pt x="430" y="-109" on="0"/>
        <pt x="389" y="-79" on="0"/>
        <pt x="357" y="-77" on="1"/>
        <pt x="352" y="-77" on="0"/>
        <pt x="352" y="-74" on="1"/>
        <pt x="352" y="-73" on="0"/>
      </contour>
    </TTGlyph>
    <TTGlyph name="Ccircumflex" xMin="19" yMin="-25" xMax="705" yMax="900">
      <component glyphName="circumflex.cap" x="256" y="-4" flags="0x1004"/>
      <component glyphName="C" x="0" y="0" flags="0x1004"/>
    </TTGlyph>
    <TTGlyph name="Cdotaccent" xMin="19" yMin="-25" xMax="705" yMax="892">
      <component glyphName="dotaccent" x="321" y="287" flags="0x1004"/>
      <component glyphName="C" x="0" y="0" flags="0x1004"/>
    </TTGlyph>
    <TTGlyph name="D" xMin="10" yMin="0" xMax="712" yMax="691">
      <contour>
        <pt x="307" y="49" on="1"/>
        <pt x="429" y="49" on="0"/>
        <pt x="609" y="196" on="0"/>
        <pt x="609" y="324" on="1"/>
        <pt x="609" y="400" on="0"/>
        <pt x="545" y="541" on="0"/>
        <pt x="486" y="585" on="1"/>
        <pt x="399" y="648" on="0"/>
        <pt x="273" y="648" on="1"/>
        <pt x="230" y="648" on="0"/>
        <pt x="205" y="636" on="0"/>
        <pt x="205" y="616" on="1"/>
        <pt x="205" y="95" on="1"/>
        <pt x="205" y="76" on="0"/>
        <pt x="221" y="59" on="0"/>
        <pt x="242" y="55" on="1"/>
        <pt x="275" y="49" on="0"/>
      </contour>
      <contour>
        <pt x="11" y="670" on="1"/>
        <pt x="11" y="691" on="0"/>
        <pt x="34" y="691" on="1"/>
        <pt x="220" y="691" on="1"/>
        <pt x="420" y="691" on="0"/>
        <pt x="517" y="646" on="1"/>
        <pt x="600" y="607" on="0"/>
        <pt x="712" y="453" on="0"/>
        <pt x="712" y="351" on="1"/>
        <pt x="712" y="222" on="0"/>
        <pt x="532" y="28" on="0"/>
        <pt x="415" y="6" on="1"/>
        <pt x="379" y="0" on="0"/>
        <pt x="324" y="0" on="1"/>
        <pt x="34" y="0" on="1"/>
        <pt x="10" y="0" on="0"/>
        <pt x="10" y="29" on="1"/>
        <pt x="10" y="35" on="0"/>
        <pt x="12" y="42" on="0"/>
        <pt x="19" y="47" on="0"/>
        <pt x="26" y="50" on="0"/>
        <pt x="41" y="51" on="0"/>
        <pt x="53" y="52" on="0"/>
        <pt x="77" y="52" on="0"/>
        <pt x="86" y="53" on="1"/>
        <pt x="103" y="54" on="0"/>
        <pt x="114" y="71" on="0"/>
        <pt x="114" y="90" on="1"/>
        <pt x="114" y="608" on="1"/>
        <pt x="114" y="633" on="0"/>
        <pt x="87" y="645" on="0"/>
        <pt x="47" y="646" on="1"/>
        <pt x="36" y="646" on="0"/>
        <pt x="30" y="646" on="1"/>
        <pt x="11" y="646" on="0"/>
      </contour>
    </TTGlyph>
    <TTGlyph name="Dcaron" xMin="10" yMin="0" xMax="712" yMax="900">
      <component glyphName="caron.cap" x="222" y="-4" flags="0x1004"/>
      <component glyphName="D" x="0" y="0" flags="0x1004"/>
    </TTGlyph>
    <TTGlyph name="E" xMin="9" yMin="-12" xMax="575" yMax="708">
      <contour>
        <pt x="446" y="525" on="1"/>
        <pt x="475" y="525" on="0"/>
        <pt x="475" y="496" on="1"/>
        <pt x="475" y="307" on="1"/>
        <pt x="475" y="278" on="0"/>
        <pt x="446" y="278" on="1"/>
        <pt x="419" y="278" on="0"/>
        <pt x="419" y="300" on="1"/>
        <pt x="419" y="355" on="1"/>
        <pt x="419" y="378" on="0"/>
        <pt x="392" y="378" on="1"/>
        <pt x="251" y="378" on="1"/>
        <pt x="240" y="378" on="0"/>
        <pt x="226" y="376" on="0"/>
        <pt x="209" y="369" on="0"/>
        <pt x="201" y="351" on="0"/>
        <pt x="201" y="337" on="1"/>
        <pt x="201" y="102" on="1"/>
        <pt x="201" y="91" on="0"/>
        <pt x="204" y="78" on="0"/>
        <pt x="219" y="65" on="0"/>
        <pt x="233" y="63" on="1"/>
        <pt x="278" y="56" on="0"/>
        <pt x="329" y="56" on="1"/>
        <pt x="363" y="56" on="0"/>
        <pt x="463" y="68" on="0"/>
        <pt x="476" y="78" on="1"/>
        <pt x="485" y="85" on="0"/>
        <pt x="539" y="182" on="0"/>
        <pt x="547" y="187" on="1"/>
        <pt x="553" y="190" on="0"/>
        <pt x="557" y="190" on="1"/>
        <pt x="564" y="190" on="0"/>
        <pt x="575" y="178" on="0"/>
        <pt x="575" y="167" on="1"/>
        <pt x="575" y="166" on="1"/>
        <pt x="575" y="157" on="0"/>
        <pt x="544" y="20" on="1"/>
        <pt x="542" y="8" on="0"/>
        <pt x="529" y="0" on="0"/>
        <pt x="513" y="0" on="1"/>
        <pt x="161" y="0" on="1"/>
        <pt x="115" y="0" on="0"/>
        <pt x="36" y="-12" on="0"/>
        <pt x="34" y="-12" on="1"/>
        <pt x="22" y="-12" on="0"/>
        <pt x="9" y="11" on="0"/>
        <pt x="9" y="18" on="1"/>
        <pt x="9" y="29" on="0"/>
        <pt x="25" y="39" on="0"/>
        <pt x="57" y="51" on="1"/>
        <pt x="75" y="58" on="0"/>
        <pt x="87" y="62" on="1"/>
        <pt x="110" y="70" on="0"/>
        <pt x="110" y="102" on="1"/>
        <pt x="110" y="636" on="1"/>
        <pt x="110" y="647" on="0"/>
        <pt x="100" y="653" on="0"/>
        <pt x="82" y="656" on="1"/>
        <pt x="73" y="657" on="0"/>
        <pt x="47" y="659" on="0"/>
        <pt x="34" y="661" on="0"/>
        <pt x="20" y="666" on="0"/>
        <pt x="14" y="676" on="0"/>
        <pt x="14" y="685" on="1"/>
        <pt x="14" y="708" on="0"/>
        <pt x="34" y="708" on="1"/>
        <pt x="505" y="708" on="1"/>
        <pt x="522" y="708" on="0"/>
        <pt x="527" y="691" on="1"/>
        <pt x="531" y="672" on="0"/>
        <pt x="546" y="604" on="0"/>
        <pt x="557" y="557" on="0"/>
        <pt x="557" y="555" on="1"/>
        <pt x="557" y="540" on="0"/>
        <pt x="536" y="540" on="1"/>
        <pt x="520" y="540" on="0"/>
        <pt x="507" y="558" on="1"/>
        <pt x="462" y="637" on="0"/>
        <pt x="456" y="644" on="1"/>
        <pt x="447" y="653" on="0"/>
        <pt x="427" y="653" on="1"/>
        <pt x="234" y="653" on="1"/>
        <pt x="214" y="653" on="0"/>
        <pt x="203" y="633" on="0"/>
        <pt x="203" y="614" on="1"/>
        <pt x="203" y="460" on="1"/>
        <pt x="203" y="437" on="0"/>
        <pt x="223" y="437" on="1"/>
        <pt x="380" y="437" on="1"/>
        <pt x="391" y="437" on="0"/>
        <pt x="405" y="440" on="0"/>
        <pt x="419" y="456" on="0"/>
        <pt x="419" y="471" on="1"/>
        <pt x="419" y="503" on="1"/>
        <pt x="419" y="525" on="0"/>
      </contour>
    </TTGlyph>
    <TTGlyph name="Eacute" xMin="9" yMin="-12" xMax="575" yMax="919">
      <component glyphName="acute.cap" x="148" y="-2" flags="0x1004"/>
      <component glyphName="E" x="0" y="0" flags="0x1004"/>
    </TTGlyph>
    <TTGlyph name="Ebreve" xMin="9" yMin="-12" xMax="575" yMax="892">
      <component glyphName="breve.cap" x="127" y="10" flags="0x1004"/>
      <component glyphName="E" x="0" y="0" flags="0x1004"/>
    </TTGlyph>
    <TTGlyph name="Ecaron" xMin="9" yMin="-12" xMax="575" yMax="900">
      <component glyphName="caron.cap" x="154" y="-4" flags="0x1004"/>
      <component glyphName="E" x="0" y="0" flags="0x1004"/>
    </TTGlyph>
    <TTGlyph name="Ecircumflex" xMin="9" yMin="-12" xMax="575" yMax="900">
      <component glyphName="circumflex.cap" x="154" y="-4" flags="0x1004"/>
      <component glyphName="E" x="0" y="0" flags="0x1004"/>
    </TTGlyph>
    <TTGlyph name="Edieresis" xMin="9" yMin="-12" xMax="575" yMax="842">
      <component glyphName="dieresis" x="162" y="161" flags="0x1004"/>
      <component glyphName="E" x="0" y="0" flags="0x1004"/>
    </TTGlyph>
    <TTGlyph name="Edotaccent" xMin="9" yMin="-12" xMax="575" yMax="892">
      <component glyphName="dotaccent" x="218" y="287" flags="0x1004"/>
      <component glyphName="E" x="0" y="0" flags="0x1004"/>
    </TTGlyph>
    <TTGlyph name="Egrave" xMin="9" yMin="-12" xMax="575" yMax="920">
      <component glyphName="grave.cap" x="147" y="-1" flags="0x1004"/>
      <component glyphName="E" x="0" y="0" flags="0x1004"/>
    </TTGlyph>
    <TTGlyph name="Euro" xMin="20" yMin="-14" xMax="710" yMax="670">
      <contour>
        <pt x="462" y="608" on="1"/>
        <pt x="413" y="608" on="0"/>
        <pt x="319" y="575" on="0"/>
        <pt x="223" y="485" on="0"/>
        <pt x="198" y="416" on="1"/>
        <pt x="645" y="416" on="1"/>
        <pt x="620" y="353" on="1"/>
        <pt x="184" y="353" on="1"/>
        <pt x="184" y="351" on="0"/>
        <pt x="183" y="335" on="0"/>
        <pt x="183" y="329" on="1"/>
        <pt x="183" y="322" on="0"/>
        <pt x="184" y="305" on="0"/>
        <pt x="184" y="303" on="1"/>
        <pt x="598" y="303" on="1"/>
        <pt x="571" y="240" on="1"/>
        <pt x="198" y="240" on="1"/>
        <pt x="220" y="175" on="0"/>
        <pt x="313" y="84" on="0"/>
        <pt x="412" y="47" on="0"/>
        <pt x="460" y="47" on="1"/>
        <pt x="507" y="47" on="0"/>
        <pt x="590" y="72" on="0"/>
        <pt x="647" y="113" on="0"/>
        <pt x="669" y="134" on="0"/>
        <pt x="679" y="145" on="1"/>
        <pt x="680" y="146" on="1"/>
        <pt x="684" y="145" on="1"/>
        <pt x="684" y="66" on="1"/>
        <pt x="584" y="-14" on="0"/>
        <pt x="464" y="-14" on="1"/>
        <pt x="428" y="-14" on="0"/>
        <pt x="355" y="1" on="0"/>
        <pt x="276" y="38" on="0"/>
        <pt x="208" y="94" on="0"/>
        <pt x="149" y="183" on="0"/>
        <pt x="132" y="240" on="1"/>
        <pt x="25" y="240" on="1"/>
        <pt x="50" y="303" on="1"/>
        <pt x="122" y="303" on="1"/>
        <pt x="122" y="353" on="1"/>
        <pt x="20" y="353" on="1"/>
        <pt x="46" y="416" on="1"/>
        <pt x="132" y="416" on="1"/>
        <pt x="152" y="486" on="0"/>
        <pt x="233" y="590" on="0"/>
        <pt x="329" y="645" on="0"/>
        <pt x="417" y="670" on="0"/>
        <pt x="456" y="670" on="1"/>
        <pt x="532" y="670" on="0"/>
        <pt x="652" y="622" on="0"/>
        <pt x="710" y="567" on="1"/>
        <pt x="681" y="503" on="1"/>
        <pt x="663" y="534" on="0"/>
        <pt x="547" y="608" on="0"/>
      </contour>
    </TTGlyph>
    <TTGlyph name="F" xMin="10" yMin="-6" xMax="538" yMax="705">
      <contour>
        <pt x="461" y="495" on="1"/>
        <pt x="461" y="492" on="0"/>
        <pt x="459" y="467" on="0"/>
        <pt x="457" y="424" on="0"/>
        <pt x="457" y="399" on="1"/>
        <pt x="457" y="373" on="0"/>
        <pt x="459" y="330" on="0"/>
        <pt x="461" y="305" on="0"/>
        <pt x="461" y="303" on="1"/>
        <pt x="461" y="276" on="0"/>
        <pt x="433" y="276" on="1"/>
        <pt x="429" y="276" on="0"/>
        <pt x="423" y="277" on="0"/>
        <pt x="418" y="281" on="0"/>
        <pt x="414" y="285" on="0"/>
        <pt x="412" y="293" on="0"/>
        <pt x="410" y="301" on="0"/>
        <pt x="408" y="315" on="0"/>
        <pt x="407" y="326" on="0"/>
        <pt x="405" y="346" on="0"/>
        <pt x="404" y="354" on="1"/>
        <pt x="403" y="369" on="0"/>
        <pt x="386" y="369" on="1"/>
        <pt x="219" y="369" on="1"/>
        <pt x="209" y="369" on="0"/>
        <pt x="198" y="359" on="0"/>
        <pt x="197" y="349" on="0"/>
        <pt x="197" y="340" on="1"/>
        <pt x="197" y="86" on="1"/>
        <pt x="197" y="74" on="0"/>
        <pt x="200" y="62" on="0"/>
        <pt x="219" y="49" on="0"/>
        <pt x="239" y="48" on="1"/>
        <pt x="249" y="48" on="0"/>
        <pt x="271" y="48" on="0"/>
        <pt x="284" y="48" on="0"/>
        <pt x="300" y="47" on="0"/>
        <pt x="309" y="46" on="0"/>
        <pt x="318" y="45" on="0"/>
        <pt x="323" y="41" on="0"/>
        <pt x="327" y="37" on="0"/>
        <pt x="329" y="30" on="0"/>
        <pt x="329" y="25" on="1"/>
        <pt x="329" y="15" on="1"/>
        <pt x="329" y="-6" on="0"/>
        <pt x="311" y="-6" on="1"/>
        <pt x="292" y="-4" on="1"/>
        <pt x="272" y="-3" on="0"/>
        <pt x="206" y="0" on="0"/>
        <pt x="173" y="0" on="1"/>
        <pt x="152" y="0" on="0"/>
        <pt x="109" y="-1" on="0"/>
        <pt x="77" y="-3" on="0"/>
        <pt x="51" y="-5" on="0"/>
        <pt x="36" y="-6" on="0"/>
        <pt x="35" y="-6" on="1"/>
        <pt x="11" y="-6" on="0"/>
        <pt x="11" y="17" on="1"/>
        <pt x="11" y="23" on="0"/>
        <pt x="13" y="32" on="0"/>
        <pt x="18" y="38" on="0"/>
        <pt x="22" y="41" on="0"/>
        <pt x="35" y="43" on="0"/>
        <pt x="43" y="44" on="0"/>
        <pt x="63" y="45" on="0"/>
        <pt x="70" y="46" on="1"/>
        <pt x="89" y="48" on="0"/>
        <pt x="100" y="63" on="0"/>
        <pt x="100" y="78" on="1"/>
        <pt x="100" y="621" on="1"/>
        <pt x="100" y="627" on="0"/>
        <pt x="99" y="635" on="0"/>
        <pt x="96" y="641" on="0"/>
        <pt x="93" y="645" on="0"/>
        <pt x="85" y="648" on="0"/>
        <pt x="80" y="650" on="0"/>
        <pt x="67" y="651" on="0"/>
        <pt x="59" y="651" on="0"/>
        <pt x="40" y="652" on="0"/>
        <pt x="34" y="652" on="1"/>
        <pt x="10" y="652" on="0"/>
        <pt x="10" y="674" on="1"/>
        <pt x="10" y="705" on="0"/>
        <pt x="29" y="705" on="1"/>
        <pt x="32" y="705" on="0"/>
        <pt x="54" y="702" on="0"/>
        <pt x="93" y="700" on="0"/>
        <pt x="115" y="700" on="1"/>
        <pt x="132" y="700" on="0"/>
        <pt x="252" y="703" on="0"/>
        <pt x="281" y="703" on="1"/>
        <pt x="475" y="703" on="1"/>
        <pt x="480" y="703" on="1"/>
        <pt x="508" y="703" on="0"/>
        <pt x="514" y="678" on="1"/>
        <pt x="516" y="668" on="0"/>
        <pt x="529" y="612" on="0"/>
        <pt x="538" y="571" on="0"/>
        <pt x="538" y="568" on="1"/>
        <pt x="538" y="558" on="0"/>
        <pt x="526" y="545" on="0"/>
        <pt x="517" y="545" on="1"/>
        <pt x="500" y="545" on="0"/>
        <pt x="468" y="604" on="1"/>
        <pt x="458" y="620" on="0"/>
        <pt x="453" y="630" on="1"/>
        <pt x="445" y="643" on="0"/>
        <pt x="431" y="651" on="0"/>
        <pt x="417" y="651" on="1"/>
        <pt x="228" y="651" on="1"/>
        <pt x="215" y="651" on="0"/>
        <pt x="201" y="639" on="0"/>
        <pt x="199" y="626" on="0"/>
        <pt x="199" y="614" on="1"/>
        <pt x="199" y="443" on="1"/>
        <pt x="199" y="428" on="0"/>
        <pt x="214" y="428" on="1"/>
        <pt x="385" y="428" on="1"/>
        <pt x="389" y="428" on="0"/>
        <pt x="394" y="429" on="0"/>
        <pt x="399" y="431" on="0"/>
        <pt x="401" y="433" on="0"/>
        <pt x="404" y="439" on="0"/>
        <pt x="406" y="444" on="0"/>
        <pt x="408" y="455" on="0"/>
        <pt x="409" y="464" on="0"/>
        <pt x="412" y="481" on="0"/>
        <pt x="413" y="488" on="1"/>
        <pt x="417" y="516" on="0"/>
        <pt x="437" y="516" on="1"/>
        <pt x="447" y="516" on="0"/>
        <pt x="461" y="504" on="0"/>
      </contour>
    </TTGlyph>
    <TTGlyph name="G" xMin="16" yMin="-25" xMax="699" yMax="723">
      <contour>
        <pt x="375" y="-25" on="1"/>
        <pt x="230" y="-25" on="0"/>
        <pt x="16" y="202" on="0"/>
        <pt x="16" y="362" on="1"/>
        <pt x="16" y="516" on="0"/>
        <pt x="217" y="723" on="0"/>
        <pt x="360" y="723" on="1"/>
        <pt x="402" y="723" on="0"/>
        <pt x="482" y="703" on="0"/>
        <pt x="529" y="679" on="0"/>
        <pt x="566" y="656" on="0"/>
        <pt x="568" y="656" on="1"/>
        <pt x="572" y="656" on="1"/>
        <pt x="583" y="656" on="0"/>
        <pt x="614" y="695" on="0"/>
        <pt x="617" y="696" on="1"/>
        <pt x="622" y="699" on="0"/>
        <pt x="630" y="699" on="1"/>
        <pt x="644" y="699" on="0"/>
        <pt x="644" y="685" on="1"/>
        <pt x="644" y="657" on="1"/>
        <pt x="644" y="628" on="0"/>
        <pt x="646" y="568" on="0"/>
        <pt x="650" y="524" on="0"/>
        <pt x="653" y="489" on="0"/>
        <pt x="655" y="469" on="0"/>
        <pt x="655" y="468" on="1"/>
        <pt x="655" y="452" on="0"/>
        <pt x="626" y="452" on="1"/>
        <pt x="612" y="452" on="0"/>
        <pt x="606" y="471" on="0"/>
        <pt x="591" y="526" on="0"/>
        <pt x="570" y="555" on="1"/>
        <pt x="531" y="608" on="0"/>
        <pt x="413" y="674" on="0"/>
        <pt x="348" y="674" on="1"/>
        <pt x="307" y="674" on="0"/>
        <pt x="230" y="642" on="0"/>
        <pt x="161" y="576" on="0"/>
        <pt x="119" y="455" on="0"/>
        <pt x="119" y="376" on="1"/>
        <pt x="119" y="280" on="0"/>
        <pt x="171" y="138" on="0"/>
        <pt x="256" y="64" on="0"/>
        <pt x="342" y="30" on="0"/>
        <pt x="386" y="30" on="1"/>
        <pt x="444" y="30" on="0"/>
        <pt x="546" y="78" on="0"/>
        <pt x="555" y="96" on="1"/>
        <pt x="558" y="102" on="0"/>
        <pt x="558" y="114" on="1"/>
        <pt x="558" y="229" on="1"/>
        <pt x="558" y="249" on="0"/>
        <pt x="532" y="261" on="0"/>
        <pt x="491" y="264" on="1"/>
        <pt x="473" y="265" on="0"/>
        <pt x="462" y="266" on="1"/>
        <pt x="433" y="268" on="0"/>
        <pt x="433" y="290" on="1"/>
        <pt x="433" y="313" on="0"/>
        <pt x="456" y="313" on="1"/>
        <pt x="459" y="313" on="0"/>
        <pt x="486" y="311" on="0"/>
        <pt x="533" y="309" on="0"/>
        <pt x="561" y="309" on="1"/>
        <pt x="563" y="309" on="1"/>
        <pt x="592" y="309" on="0"/>
        <pt x="642" y="311" on="0"/>
        <pt x="670" y="313" on="0"/>
        <pt x="673" y="313" on="1"/>
        <pt x="686" y="313" on="0"/>
        <pt x="699" y="300" on="0"/>
        <pt x="699" y="292" on="1"/>
        <pt x="699" y="275" on="0"/>
        <pt x="648" y="257" on="0"/>
        <pt x="645" y="245" on="1"/>
        <pt x="644" y="242" on="0"/>
        <pt x="644" y="234" on="1"/>
        <pt x="644" y="61" on="1"/>
        <pt x="644" y="41" on="0"/>
        <pt x="630" y="41" on="1"/>
        <pt x="624" y="41" on="0"/>
        <pt x="603" y="62" on="0"/>
        <pt x="599" y="62" on="1"/>
        <pt x="593" y="62" on="0"/>
        <pt x="585" y="54" on="1"/>
        <pt x="495" y="-25" on="0"/>
      </contour>
    </TTGlyph>
    <TTGlyph name="Gbreve" xMin="16" yMin="-25" xMax="699" yMax="892">
      <component glyphName="breve.cap" x="193" y="10" flags="0x1004"/>
      <component glyphName="G" x="0" y="0" flags="0x1004"/>
    </TTGlyph>
    <TTGlyph name="Gcircumflex" xMin="16" yMin="-25" xMax="699" yMax="900">
      <component glyphName="circumflex.cap" x="219" y="-4" flags="0x1004"/>
      <component glyphName="G" x="0" y="0" flags="0x1004"/>
    </TTGlyph>
    <TTGlyph name="Gcommaaccent" xMin="16" yMin="-319" xMax="699" yMax="723">
      <component glyphName="G" x="0" y="0" flags="0x1004"/>
      <component glyphName="comma" x="242" y="-168" flags="0x1004"/>
    </TTGlyph>
    <TTGlyph name="Gdotaccent" xMin="16" yMin="-25" xMax="699" yMax="892">
      <component glyphName="dotaccent" x="289" y="287" flags="0x1004"/>
      <component glyphName="G" x="0" y="0" flags="0x1004"/>
    </TTGlyph>
    <TTGlyph name="H" xMin="14" yMin="-6" xMax="769" yMax="706">
      <contour>
        <pt x="181" y="0" on="0"/>
        <pt x="143" y="0" on="0"/>
        <pt x="103" y="-1" on="0"/>
        <pt x="74" y="-3" on="0"/>
        <pt x="51" y="-5" on="0"/>
        <pt x="37" y="-6" on="0"/>
        <pt x="36" y="-6" on="1"/>
        <pt x="15" y="-6" on="0"/>
        <pt x="15" y="22" on="1"/>
        <pt x="15" y="41" on="0"/>
        <pt x="60" y="43" on="1"/>
        <pt x="75" y="44" on="0"/>
        <pt x="85" y="45" on="1"/>
        <pt x="102" y="46" on="0"/>
        <pt x="112" y="63" on="0"/>
        <pt x="112" y="78" on="1"/>
        <pt x="112" y="620" on="1"/>
        <pt x="112" y="628" on="0"/>
        <pt x="108" y="639" on="0"/>
        <pt x="103" y="646" on="0"/>
        <pt x="90" y="650" on="0"/>
        <pt x="84" y="651" on="0"/>
        <pt x="63" y="654" on="0"/>
        <pt x="59" y="654" on="1"/>
        <pt x="56" y="655" on="0"/>
        <pt x="34" y="656" on="0"/>
        <pt x="24" y="659" on="0"/>
        <pt x="14" y="668" on="0"/>
        <pt x="14" y="684" on="0"/>
        <pt x="26" y="703" on="0"/>
        <pt x="38" y="703" on="1"/>
        <pt x="41" y="703" on="0"/>
        <pt x="72" y="702" on="0"/>
        <pt x="126" y="701" on="0"/>
        <pt x="158" y="701" on="1"/>
        <pt x="161" y="701" on="1"/>
        <pt x="194" y="701" on="0"/>
        <pt x="249" y="702" on="0"/>
        <pt x="281" y="703" on="0"/>
        <pt x="284" y="703" on="1"/>
        <pt x="300" y="703" on="0"/>
        <pt x="303" y="682" on="1"/>
        <pt x="303" y="680" on="0"/>
        <pt x="304" y="674" on="0"/>
        <pt x="304" y="673" on="1"/>
        <pt x="304" y="661" on="0"/>
        <pt x="283" y="654" on="0"/>
        <pt x="248" y="652" on="1"/>
        <pt x="234" y="652" on="0"/>
        <pt x="226" y="651" on="1"/>
        <pt x="203" y="650" on="0"/>
        <pt x="203" y="621" on="1"/>
        <pt x="203" y="452" on="1"/>
        <pt x="203" y="437" on="0"/>
        <pt x="216" y="437" on="1"/>
        <pt x="562" y="437" on="1"/>
        <pt x="580" y="437" on="0"/>
        <pt x="580" y="456" on="1"/>
        <pt x="580" y="607" on="1"/>
        <pt x="580" y="643" on="0"/>
        <pt x="558" y="651" on="1"/>
        <pt x="549" y="655" on="0"/>
        <pt x="508" y="656" on="0"/>
        <pt x="485" y="664" on="0"/>
        <pt x="485" y="679" on="1"/>
        <pt x="485" y="703" on="0"/>
        <pt x="510" y="703" on="1"/>
        <pt x="513" y="703" on="0"/>
        <pt x="540" y="702" on="0"/>
        <pt x="587" y="701" on="0"/>
        <pt x="615" y="701" on="1"/>
        <pt x="635" y="701" on="0"/>
        <pt x="677" y="702" on="0"/>
        <pt x="709" y="704" on="0"/>
        <pt x="734" y="705" on="0"/>
        <pt x="749" y="706" on="0"/>
        <pt x="750" y="706" on="1"/>
        <pt x="769" y="706" on="0"/>
        <pt x="769" y="685" on="1"/>
        <pt x="769" y="679" on="0"/>
        <pt x="767" y="670" on="0"/>
        <pt x="760" y="663" on="0"/>
        <pt x="753" y="659" on="0"/>
        <pt x="739" y="656" on="0"/>
        <pt x="728" y="655" on="0"/>
        <pt x="706" y="652" on="0"/>
        <pt x="698" y="651" on="1"/>
        <pt x="671" y="648" on="0"/>
        <pt x="671" y="622" on="1"/>
        <pt x="671" y="84" on="1"/>
        <pt x="671" y="79" on="1"/>
        <pt x="671" y="48" on="0"/>
        <pt x="699" y="46" on="1"/>
        <pt x="705" y="46" on="0"/>
        <pt x="724" y="45" on="0"/>
        <pt x="734" y="44" on="0"/>
        <pt x="747" y="42" on="0"/>
        <pt x="754" y="39" on="0"/>
        <pt x="760" y="34" on="0"/>
        <pt x="763" y="26" on="0"/>
        <pt x="763" y="20" on="1"/>
        <pt x="763" y="-6" on="0"/>
        <pt x="742" y="-6" on="1"/>
        <pt x="741" y="-6" on="0"/>
        <pt x="727" y="-5" on="0"/>
        <pt x="704" y="-3" on="0"/>
        <pt x="674" y="-1" on="0"/>
        <pt x="636" y="0" on="0"/>
        <pt x="598" y="0" on="0"/>
        <pt x="560" y="-1" on="0"/>
        <pt x="531" y="-3" on="0"/>
        <pt x="509" y="-5" on="0"/>
        <pt x="495" y="-6" on="0"/>
        <pt x="494" y="-6" on="1"/>
        <pt x="477" y="-6" on="0"/>
        <pt x="477" y="14" on="1"/>
        <pt x="477" y="20" on="0"/>
        <pt x="478" y="27" on="0"/>
        <pt x="481" y="34" on="0"/>
        <pt x="483" y="37" on="0"/>
        <pt x="491" y="40" on="0"/>
        <pt x="497" y="42" on="0"/>
        <pt x="510" y="43" on="0"/>
        <pt x="521" y="44" on="0"/>
        <pt x="542" y="45" on="0"/>
        <pt x="550" y="46" on="1"/>
        <pt x="570" y="47" on="0"/>
        <pt x="581" y="65" on="0"/>
        <pt x="581" y="85" on="1"/>
        <pt x="581" y="362" on="1"/>
        <pt x="581" y="374" on="0"/>
        <pt x="567" y="374" on="1"/>
        <pt x="218" y="374" on="1"/>
        <pt x="203" y="374" on="0"/>
        <pt x="203" y="356" on="1"/>
        <pt x="203" y="79" on="1"/>
        <pt x="203" y="70" on="0"/>
        <pt x="206" y="60" on="0"/>
        <pt x="229" y="47" on="0"/>
        <pt x="252" y="45" on="1"/>
        <pt x="254" y="45" on="0"/>
        <pt x="277" y="43" on="0"/>
        <pt x="289" y="41" on="0"/>
        <pt x="302" y="31" on="0"/>
        <pt x="302" y="23" on="1"/>
        <pt x="302" y="-6" on="0"/>
        <pt x="286" y="-6" on="1"/>
        <pt x="285" y="-6" on="0"/>
        <pt x="272" y="-5" on="0"/>
        <pt x="248" y="-3" on="0"/>
        <pt x="219" y="-1" on="0"/>
      </contour>
    </TTGlyph>
    <TTGlyph name="Hcircumflex" xMin="14" yMin="-6" xMax="769" yMax="900">
      <component glyphName="circumflex.cap" x="253" y="-4" flags="0x1004"/>
      <component glyphName="H" x="0" y="0" flags="0x1004"/>
    </TTGlyph>
    <TTGlyph name="I" xMin="13" yMin="-6" xMax="313" yMax="696">
      <contour>
        <pt x="53" y="696" on="1"/>
        <pt x="70" y="695" on="1"/>
        <pt x="87" y="694" on="0"/>
        <pt x="143" y="691" on="0"/>
        <pt x="171" y="691" on="1"/>
        <pt x="200" y="691" on="0"/>
        <pt x="248" y="693" on="0"/>
        <pt x="275" y="695" on="0"/>
        <pt x="278" y="695" on="1"/>
        <pt x="295" y="695" on="0"/>
        <pt x="295" y="676" on="1"/>
        <pt x="295" y="671" on="0"/>
        <pt x="294" y="664" on="0"/>
        <pt x="293" y="658" on="0"/>
        <pt x="289" y="654" on="0"/>
        <pt x="286" y="651" on="0"/>
        <pt x="278" y="649" on="0"/>
        <pt x="273" y="647" on="0"/>
        <pt x="261" y="646" on="0"/>
        <pt x="253" y="645" on="0"/>
        <pt x="236" y="644" on="0"/>
        <pt x="230" y="643" on="1"/>
        <pt x="214" y="642" on="0"/>
        <pt x="214" y="626" on="1"/>
        <pt x="214" y="73" on="1"/>
        <pt x="214" y="49" on="0"/>
        <pt x="232" y="47" on="1"/>
        <pt x="242" y="46" on="0"/>
        <pt x="266" y="45" on="0"/>
        <pt x="280" y="45" on="0"/>
        <pt x="295" y="43" on="0"/>
        <pt x="303" y="41" on="0"/>
        <pt x="310" y="37" on="0"/>
        <pt x="313" y="29" on="0"/>
        <pt x="313" y="24" on="1"/>
        <pt x="313" y="-6" on="0"/>
        <pt x="293" y="-6" on="1"/>
        <pt x="292" y="-6" on="0"/>
        <pt x="278" y="-5" on="0"/>
        <pt x="253" y="-3" on="0"/>
        <pt x="223" y="-1" on="0"/>
        <pt x="183" y="0" on="0"/>
        <pt x="143" y="0" on="0"/>
        <pt x="103" y="-1" on="0"/>
        <pt x="72" y="-3" on="0"/>
        <pt x="48" y="-5" on="0"/>
        <pt x="33" y="-6" on="0"/>
        <pt x="32" y="-6" on="1"/>
        <pt x="16" y="-6" on="0"/>
        <pt x="14" y="17" on="1"/>
        <pt x="13" y="20" on="0"/>
        <pt x="13" y="27" on="1"/>
        <pt x="13" y="39" on="0"/>
        <pt x="30" y="45" on="0"/>
        <pt x="62" y="47" on="1"/>
        <pt x="84" y="48" on="0"/>
        <pt x="99" y="49" on="1"/>
        <pt x="121" y="50" on="0"/>
        <pt x="121" y="78" on="1"/>
        <pt x="121" y="610" on="1"/>
        <pt x="121" y="613" on="0"/>
        <pt x="122" y="624" on="0"/>
        <pt x="122" y="625" on="1"/>
        <pt x="122" y="638" on="0"/>
        <pt x="106" y="644" on="0"/>
        <pt x="78" y="645" on="1"/>
        <pt x="63" y="645" on="0"/>
        <pt x="54" y="646" on="1"/>
        <pt x="31" y="648" on="0"/>
        <pt x="31" y="668" on="1"/>
        <pt x="31" y="696" on="0"/>
      </contour>
    </TTGlyph>
    <TTGlyph name="IJ" xMin="13" yMin="-217" xMax="637" yMax="696">
      <component glyphName="J" x="331" y="0" flags="0x1004"/>
      <component glyphName="I" x="0" y="0" flags="0x1004"/>
    </TTGlyph>
    <TTGlyph name="Iacute" xMin="13" yMin="-6" xMax="313" yMax="919">
      <component glyphName="acute.cap" x="18" y="-2" flags="0x1004"/>
      <component glyphName="I" x="0" y="0" flags="0x1004"/>
    </TTGlyph>
    <TTGlyph name="Ibreve" xMin="13" yMin="-6" xMax="313" yMax="892">
      <component glyphName="breve.cap" x="-3" y="10" flags="0x1004"/>
      <component glyphName="I" x="0" y="0" flags="0x1004"/>
    </TTGlyph>
    <TTGlyph name="Icircumflex" xMin="13" yMin="-6" xMax="313" yMax="900">
      <component glyphName="circumflex.cap" x="25" y="-4" flags="0x1004"/>
      <component glyphName="I" x="0" y="0" flags="0x1004"/>
    </TTGlyph>
    <TTGlyph name="Idieresis" xMin="13" yMin="-6" xMax="313" yMax="842">
      <component glyphName="dieresis" x="33" y="161" flags="0x1004"/>
      <component glyphName="I" x="0" y="0" flags="0x1004"/>
    </TTGlyph>
    <TTGlyph name="Idotaccent" xMin="13" yMin="-6" xMax="313" yMax="892">
      <component glyphName="dotaccent" x="88" y="287" flags="0x1004"/>
      <component glyphName="I" x="0" y="0" flags="0x1004"/>
    </TTGlyph>
    <TTGlyph name="Igrave" xMin="13" yMin="-6" xMax="313" yMax="920">
      <component glyphName="grave.cap" x="18" y="-1" flags="0x1004"/>
      <component glyphName="I" x="0" y="0" flags="0x1004"/>
    </TTGlyph>
    <TTGlyph name="Itilde" xMin="7" yMin="-6" xMax="319" yMax="855">
      <component glyphName="tilde" x="-9" y="171" flags="0x1004"/>
      <component glyphName="I" x="0" y="0" flags="0x1004"/>
    </TTGlyph>
    <TTGlyph name="J" xMin="-84" yMin="-217" xMax="306" yMax="696">
      <contour>
        <pt x="169" y="691" on="1"/>
        <pt x="201" y="691" on="0"/>
        <pt x="255" y="693" on="0"/>
        <pt x="286" y="695" on="0"/>
        <pt x="289" y="695" on="1"/>
        <pt x="306" y="695" on="0"/>
        <pt x="306" y="675" on="1"/>
        <pt x="306" y="668" on="0"/>
        <pt x="304" y="658" on="0"/>
        <pt x="298" y="652" on="0"/>
        <pt x="293" y="648" on="0"/>
        <pt x="280" y="645" on="0"/>
        <pt x="270" y="645" on="0"/>
        <pt x="249" y="643" on="0"/>
        <pt x="241" y="642" on="1"/>
        <pt x="214" y="640" on="0"/>
        <pt x="214" y="607" on="1"/>
        <pt x="214" y="57" on="1"/>
        <pt x="214" y="-3" on="0"/>
        <pt x="164" y="-111" on="0"/>
        <pt x="124" y="-150" on="1"/>
        <pt x="115" y="-159" on="0"/>
        <pt x="81" y="-186" on="0"/>
        <pt x="20" y="-217" on="0"/>
        <pt x="-2" y="-217" on="1"/>
        <pt x="-37" y="-217" on="0"/>
        <pt x="-84" y="-167" on="0"/>
        <pt x="-84" y="-138" on="1"/>
        <pt x="-84" y="-117" on="0"/>
        <pt x="-58" y="-88" on="0"/>
        <pt x="-38" y="-88" on="1"/>
        <pt x="-21" y="-88" on="0"/>
        <pt x="6" y="-109" on="0"/>
        <pt x="21" y="-135" on="0"/>
        <pt x="45" y="-156" on="0"/>
        <pt x="60" y="-156" on="1"/>
        <pt x="95" y="-156" on="0"/>
        <pt x="112" y="-93" on="1"/>
        <pt x="121" y="-60" on="0"/>
        <pt x="121" y="-27" on="1"/>
        <pt x="121" y="609" on="1"/>
        <pt x="121" y="616" on="0"/>
        <pt x="118" y="626" on="0"/>
        <pt x="115" y="633" on="0"/>
        <pt x="105" y="638" on="0"/>
        <pt x="98" y="641" on="0"/>
        <pt x="81" y="643" on="0"/>
        <pt x="70" y="644" on="0"/>
        <pt x="46" y="646" on="0"/>
        <pt x="38" y="647" on="1"/>
        <pt x="15" y="650" on="0"/>
        <pt x="15" y="669" on="1"/>
        <pt x="15" y="696" on="0"/>
        <pt x="38" y="696" on="1"/>
        <pt x="39" y="696" on="0"/>
        <pt x="53" y="695" on="0"/>
        <pt x="77" y="694" on="0"/>
        <pt x="107" y="692" on="0"/>
        <pt x="146" y="691" on="0"/>
        <pt x="165" y="691" on="1"/>
      </contour>
    </TTGlyph>
    <TTGlyph name="Jcircumflex" xMin="-84" yMin="-217" xMax="306" yMax="900">
      <component glyphName="circumflex.cap" x="22" y="-4" flags="0x1004"/>
      <component glyphName="J" x="0" y="0" flags="0x1004"/>
    </TTGlyph>
    <TTGlyph name="K" xMin="12" yMin="-6" xMax="664" yMax="705">
      <contour>
        <pt x="287" y="-6" on="1"/>
        <pt x="286" y="-6" on="0"/>
        <pt x="272" y="-5" on="0"/>
        <pt x="248" y="-3" on="0"/>
        <pt x="218" y="-1" on="0"/>
        <pt x="178" y="0" on="0"/>
        <pt x="140" y="0" on="0"/>
        <pt x="101" y="-1" on="0"/>
        <pt x="71" y="-3" on="0"/>
        <pt x="47" y="-5" on="0"/>
        <pt x="33" y="-6" on="0"/>
        <pt x="32" y="-6" on="1"/>
        <pt x="14" y="-6" on="0"/>
        <pt x="14" y="17" on="1"/>
        <pt x="14" y="23" on="0"/>
        <pt x="17" y="32" on="0"/>
        <pt x="24" y="38" on="0"/>
        <pt x="30" y="41" on="0"/>
        <pt x="42" y="43" on="0"/>
        <pt x="49" y="44" on="0"/>
        <pt x="65" y="45" on="0"/>
        <pt x="68" y="45" on="1"/>
        <pt x="94" y="47" on="0"/>
        <pt x="114" y="66" on="0"/>
        <pt x="114" y="95" on="1"/>
        <pt x="114" y="604" on="1"/>
        <pt x="114" y="611" on="0"/>
        <pt x="112" y="623" on="0"/>
        <pt x="111" y="632" on="0"/>
        <pt x="105" y="639" on="0"/>
        <pt x="103" y="644" on="0"/>
        <pt x="92" y="648" on="0"/>
        <pt x="88" y="650" on="0"/>
        <pt x="72" y="652" on="0"/>
        <pt x="67" y="653" on="0"/>
        <pt x="45" y="655" on="0"/>
        <pt x="41" y="655" on="1"/>
        <pt x="12" y="657" on="0"/>
        <pt x="12" y="680" on="1"/>
        <pt x="12" y="689" on="0"/>
        <pt x="27" y="705" on="0"/>
        <pt x="42" y="705" on="1"/>
        <pt x="45" y="705" on="0"/>
        <pt x="74" y="702" on="0"/>
        <pt x="125" y="700" on="0"/>
        <pt x="155" y="700" on="1"/>
        <pt x="156" y="700" on="1"/>
        <pt x="186" y="700" on="0"/>
        <pt x="237" y="702" on="0"/>
        <pt x="265" y="705" on="0"/>
        <pt x="268" y="705" on="1"/>
        <pt x="284" y="705" on="0"/>
        <pt x="298" y="687" on="0"/>
        <pt x="298" y="678" on="1"/>
        <pt x="298" y="664" on="0"/>
        <pt x="270" y="656" on="0"/>
        <pt x="227" y="656" on="0"/>
        <pt x="219" y="652" on="1"/>
        <pt x="204" y="644" on="0"/>
        <pt x="204" y="618" on="1"/>
        <pt x="204" y="396" on="1"/>
        <pt x="204" y="379" on="0"/>
        <pt x="217" y="379" on="1"/>
        <pt x="225" y="379" on="0"/>
        <pt x="244" y="400" on="1"/>
        <pt x="265" y="423" on="0"/>
        <pt x="366" y="536" on="0"/>
        <pt x="428" y="606" on="0"/>
        <pt x="430" y="610" on="1"/>
        <pt x="438" y="620" on="0"/>
        <pt x="438" y="632" on="1"/>
        <pt x="438" y="647" on="0"/>
        <pt x="417" y="660" on="0"/>
        <pt x="392" y="660" on="0"/>
        <pt x="371" y="670" on="0"/>
        <pt x="371" y="682" on="1"/>
        <pt x="371" y="703" on="0"/>
        <pt x="394" y="703" on="1"/>
        <pt x="397" y="703" on="0"/>
        <pt x="425" y="702" on="0"/>
        <pt x="473" y="701" on="0"/>
        <pt x="502" y="701" on="1"/>
        <pt x="508" y="701" on="1"/>
        <pt x="535" y="701" on="0"/>
        <pt x="581" y="702" on="0"/>
        <pt x="607" y="703" on="0"/>
        <pt x="610" y="703" on="1"/>
        <pt x="639" y="703" on="0"/>
        <pt x="639" y="682" on="1"/>
        <pt x="639" y="669" on="0"/>
        <pt x="612" y="658" on="0"/>
        <pt x="561" y="650" on="0"/>
        <pt x="548" y="645" on="1"/>
        <pt x="537" y="640" on="0"/>
        <pt x="514" y="624" on="0"/>
        <pt x="502" y="612" on="0"/>
        <pt x="478" y="585" on="0"/>
        <pt x="474" y="581" on="1"/>
        <pt x="296" y="389" on="0"/>
        <pt x="293" y="384" on="1"/>
        <pt x="291" y="380" on="0"/>
        <pt x="291" y="377" on="1"/>
        <pt x="291" y="369" on="0"/>
        <pt x="299" y="361" on="1"/>
        <pt x="577" y="68" on="0"/>
        <pt x="582" y="65" on="1"/>
        <pt x="584" y="63" on="0"/>
        <pt x="588" y="60" on="1"/>
        <pt x="606" y="48" on="0"/>
        <pt x="649" y="42" on="0"/>
        <pt x="657" y="34" on="1"/>
        <pt x="664" y="25" on="0"/>
        <pt x="664" y="18" on="1"/>
        <pt x="664" y="10" on="0"/>
        <pt x="649" y="-5" on="0"/>
        <pt x="634" y="-5" on="1"/>
        <pt x="629" y="-5" on="0"/>
        <pt x="602" y="-1" on="0"/>
        <pt x="586" y="-1" on="1"/>
        <pt x="575" y="-1" on="0"/>
        <pt x="547" y="-1" on="0"/>
        <pt x="536" y="0" on="0"/>
        <pt x="520" y="0" on="0"/>
        <pt x="513" y="3" on="0"/>
        <pt x="504" y="5" on="0"/>
        <pt x="497" y="12" on="0"/>
        <pt x="491" y="19" on="0"/>
        <pt x="485" y="25" on="1"/>
        <pt x="416" y="105" on="0"/>
        <pt x="328" y="206" on="1"/>
        <pt x="253" y="293" on="0"/>
        <pt x="225" y="323" on="0"/>
        <pt x="218" y="323" on="1"/>
        <pt x="217" y="323" on="1"/>
        <pt x="203" y="323" on="0"/>
        <pt x="203" y="302" on="1"/>
        <pt x="203" y="86" on="1"/>
        <pt x="203" y="80" on="0"/>
        <pt x="204" y="71" on="0"/>
        <pt x="206" y="63" on="0"/>
        <pt x="211" y="58" on="0"/>
        <pt x="214" y="54" on="0"/>
        <pt x="224" y="51" on="0"/>
        <pt x="230" y="49" on="0"/>
        <pt x="246" y="48" on="0"/>
        <pt x="255" y="47" on="0"/>
        <pt x="278" y="46" on="0"/>
        <pt x="285" y="45" on="1"/>
        <pt x="307" y="42" on="0"/>
        <pt x="307" y="23" on="1"/>
        <pt x="307" y="-6" on="0"/>
      </contour>
    </TTGlyph>
    <TTGlyph name="Kcommaaccent" xMin="12" yMin="-301" xMax="664" yMax="705">
      <component glyphName="K" x="0" y="0" flags="0x1004"/>
      <component glyphName="comma" x="221" y="-150" flags="0x1004"/>
    </TTGlyph>
    <TTGlyph name="L" xMin="11" yMin="-6" xMax="560" yMax="694">
      <contour>
        <pt x="155" y="691" on="1"/>
        <pt x="188" y="691" on="0"/>
        <pt x="244" y="692" on="0"/>
        <pt x="276" y="694" on="0"/>
        <pt x="279" y="694" on="1"/>
        <pt x="290" y="694" on="0"/>
        <pt x="296" y="681" on="0"/>
        <pt x="296" y="667" on="1"/>
        <pt x="296" y="643" on="0"/>
        <pt x="273" y="643" on="1"/>
        <pt x="263" y="643" on="0"/>
        <pt x="240" y="642" on="0"/>
        <pt x="228" y="642" on="0"/>
        <pt x="213" y="642" on="0"/>
        <pt x="205" y="641" on="0"/>
        <pt x="197" y="638" on="0"/>
        <pt x="193" y="634" on="0"/>
        <pt x="190" y="627" on="0"/>
        <pt x="189" y="619" on="0"/>
        <pt x="189" y="613" on="1"/>
        <pt x="189" y="94" on="1"/>
        <pt x="189" y="61" on="0"/>
        <pt x="216" y="61" on="1"/>
        <pt x="412" y="61" on="1"/>
        <pt x="415" y="61" on="1"/>
        <pt x="453" y="61" on="0"/>
        <pt x="471" y="89" on="1"/>
        <pt x="476" y="97" on="0"/>
        <pt x="511" y="173" on="0"/>
        <pt x="514" y="176" on="1"/>
        <pt x="520" y="184" on="0"/>
        <pt x="529" y="184" on="1"/>
        <pt x="534" y="184" on="0"/>
        <pt x="546" y="181" on="0"/>
        <pt x="560" y="170" on="0"/>
        <pt x="560" y="161" on="1"/>
        <pt x="560" y="153" on="0"/>
        <pt x="540" y="16" on="1"/>
        <pt x="539" y="9" on="0"/>
        <pt x="536" y="1" on="0"/>
        <pt x="523" y="-6" on="0"/>
        <pt x="512" y="-6" on="1"/>
        <pt x="509" y="-6" on="0"/>
        <pt x="461" y="-5" on="0"/>
        <pt x="381" y="-3" on="0"/>
        <pt x="281" y="-1" on="0"/>
        <pt x="149" y="0" on="0"/>
        <pt x="85" y="0" on="1"/>
        <pt x="31" y="0" on="1"/>
        <pt x="14" y="0" on="0"/>
        <pt x="14" y="16" on="1"/>
        <pt x="14" y="29" on="0"/>
        <pt x="31" y="38" on="0"/>
        <pt x="62" y="44" on="1"/>
        <pt x="68" y="45" on="0"/>
        <pt x="71" y="46" on="1"/>
        <pt x="94" y="52" on="0"/>
        <pt x="94" y="79" on="1"/>
        <pt x="94" y="82" on="1"/>
        <pt x="94" y="620" on="1"/>
        <pt x="94" y="626" on="0"/>
        <pt x="93" y="633" on="0"/>
        <pt x="90" y="639" on="0"/>
        <pt x="85" y="642" on="0"/>
        <pt x="79" y="643" on="0"/>
        <pt x="70" y="644" on="0"/>
        <pt x="59" y="644" on="0"/>
        <pt x="45" y="644" on="0"/>
        <pt x="37" y="644" on="1"/>
        <pt x="11" y="646" on="0"/>
        <pt x="11" y="669" on="1"/>
        <pt x="11" y="694" on="0"/>
        <pt x="31" y="694" on="1"/>
        <pt x="35" y="694" on="0"/>
        <pt x="63" y="693" on="0"/>
        <pt x="116" y="691" on="0"/>
        <pt x="147" y="691" on="1"/>
      </contour>
    </TTGlyph>
    <TTGlyph name="Lacute" xMin="11" yMin="-6" xMax="560" yMax="919">
      <component glyphName="acute.cap" x="141" y="-2" flags="0x1004"/>
      <component glyphName="L" x="0" y="0" flags="0x1004"/>
    </TTGlyph>
    <TTGlyph name="Lcaron" xMin="11" yMin="-6" xMax="569" yMax="735">
      <component glyphName="L" x="0" y="0" flags="0x1004"/>
      <component glyphName="comma" x="376" y="633" flags="0x1004"/>
    </TTGlyph>
    <TTGlyph name="Lcommaaccent" xMin="11" yMin="-301" xMax="560" yMax="694">
      <component glyphName="L" x="0" y="0" flags="0x1004"/>
      <component glyphName="comma" x="169" y="-150" flags="0x1004"/>
    </TTGlyph>
    <TTGlyph name="M" xMin="18" yMin="-15" xMax="1021" yMax="691">
      <contour>
        <pt x="738" y="-6" on="1"/>
        <pt x="719" y="-6" on="0"/>
        <pt x="719" y="18" on="1"/>
        <pt x="719" y="33" on="0"/>
        <pt x="741" y="42" on="0"/>
        <pt x="765" y="44" on="1"/>
        <pt x="781" y="45" on="0"/>
        <pt x="800" y="49" on="0"/>
        <pt x="819" y="59" on="0"/>
        <pt x="828" y="80" on="0"/>
        <pt x="828" y="96" on="1"/>
        <pt x="828" y="318" on="1"/>
        <pt x="828" y="473" on="0"/>
        <pt x="825" y="482" on="1"/>
        <pt x="824" y="488" on="0"/>
        <pt x="818" y="488" on="1"/>
        <pt x="811" y="488" on="0"/>
        <pt x="804" y="476" on="1"/>
        <pt x="765" y="413" on="0"/>
        <pt x="638" y="182" on="0"/>
        <pt x="544" y="6" on="0"/>
        <pt x="537" y="-3" on="1"/>
        <pt x="527" y="-15" on="0"/>
        <pt x="514" y="-15" on="1"/>
        <pt x="496" y="-15" on="0"/>
        <pt x="478" y="22" on="1"/>
        <pt x="428" y="125" on="0"/>
        <pt x="299" y="353" on="0"/>
        <pt x="217" y="485" on="0"/>
        <pt x="212" y="488" on="1"/>
        <pt x="211" y="489" on="0"/>
        <pt x="209" y="489" on="1"/>
        <pt x="205" y="489" on="0"/>
        <pt x="205" y="484" on="1"/>
        <pt x="199" y="376" on="0"/>
        <pt x="199" y="271" on="1"/>
        <pt x="199" y="184" on="0"/>
        <pt x="203" y="88" on="1"/>
        <pt x="205" y="59" on="0"/>
        <pt x="211" y="54" on="1"/>
        <pt x="221" y="47" on="0"/>
        <pt x="268" y="47" on="0"/>
        <pt x="301" y="36" on="0"/>
        <pt x="301" y="17" on="1"/>
        <pt x="301" y="-6" on="0"/>
        <pt x="283" y="-6" on="1"/>
        <pt x="282" y="-6" on="0"/>
        <pt x="268" y="-5" on="0"/>
        <pt x="245" y="-3" on="0"/>
        <pt x="217" y="-1" on="0"/>
        <pt x="178" y="0" on="0"/>
        <pt x="142" y="0" on="0"/>
        <pt x="103" y="-1" on="0"/>
        <pt x="75" y="-3" on="0"/>
        <pt x="52" y="-5" on="0"/>
        <pt x="38" y="-6" on="0"/>
        <pt x="37" y="-6" on="1"/>
        <pt x="18" y="-6" on="0"/>
        <pt x="18" y="16" on="1"/>
        <pt x="18" y="23" on="0"/>
        <pt x="21" y="32" on="0"/>
        <pt x="28" y="39" on="0"/>
        <pt x="35" y="42" on="0"/>
        <pt x="51" y="45" on="0"/>
        <pt x="62" y="47" on="0"/>
        <pt x="86" y="49" on="0"/>
        <pt x="102" y="51" on="0"/>
        <pt x="114" y="56" on="0"/>
        <pt x="120" y="61" on="0"/>
        <pt x="124" y="74" on="0"/>
        <pt x="125" y="81" on="0"/>
        <pt x="127" y="100" on="0"/>
        <pt x="127" y="104" on="1"/>
        <pt x="153" y="419" on="0"/>
        <pt x="153" y="562" on="1"/>
        <pt x="153" y="574" on="0"/>
        <pt x="141" y="588" on="1"/>
        <pt x="140" y="589" on="0"/>
        <pt x="116" y="618" on="0"/>
        <pt x="100" y="633" on="0"/>
        <pt x="64" y="650" on="0"/>
        <pt x="43" y="650" on="1"/>
        <pt x="23" y="653" on="0"/>
        <pt x="23" y="669" on="1"/>
        <pt x="23" y="679" on="0"/>
        <pt x="30" y="690" on="0"/>
        <pt x="36" y="691" on="0"/>
        <pt x="41" y="691" on="1"/>
        <pt x="188" y="691" on="1"/>
        <pt x="206" y="691" on="0"/>
        <pt x="214" y="678" on="1"/>
        <pt x="408" y="354" on="1"/>
        <pt x="527" y="164" on="1"/>
        <pt x="533" y="152" on="0"/>
        <pt x="545" y="152" on="1"/>
        <pt x="554" y="152" on="0"/>
        <pt x="559" y="163" on="1"/>
        <pt x="837" y="682" on="1"/>
        <pt x="842" y="691" on="0"/>
        <pt x="855" y="691" on="1"/>
        <pt x="1004" y="691" on="1"/>
        <pt x="1009" y="691" on="0"/>
        <pt x="1014" y="690" on="0"/>
        <pt x="1019" y="679" on="0"/>
        <pt x="1019" y="669" on="1"/>
        <pt x="1019" y="661" on="0"/>
        <pt x="1014" y="651" on="0"/>
        <pt x="999" y="645" on="0"/>
        <pt x="983" y="642" on="0"/>
        <pt x="953" y="635" on="0"/>
        <pt x="939" y="631" on="1"/>
        <pt x="914" y="625" on="0"/>
        <pt x="914" y="601" on="1"/>
        <pt x="916" y="431" on="0"/>
        <pt x="919" y="197" on="0"/>
        <pt x="920" y="122" on="0"/>
        <pt x="920" y="103" on="1"/>
        <pt x="920" y="96" on="1"/>
        <pt x="920" y="79" on="0"/>
        <pt x="922" y="64" on="0"/>
        <pt x="938" y="48" on="0"/>
        <pt x="955" y="46" on="1"/>
        <pt x="962" y="45" on="0"/>
        <pt x="983" y="44" on="0"/>
        <pt x="993" y="43" on="0"/>
        <pt x="1007" y="41" on="0"/>
        <pt x="1012" y="37" on="0"/>
        <pt x="1019" y="31" on="0"/>
        <pt x="1021" y="22" on="0"/>
        <pt x="1021" y="16" on="1"/>
        <pt x="1021" y="6" on="0"/>
        <pt x="1009" y="-6" on="0"/>
        <pt x="1000" y="-6" on="1"/>
        <pt x="981" y="-4" on="1"/>
        <pt x="962" y="-3" on="0"/>
        <pt x="899" y="0" on="0"/>
        <pt x="868" y="0" on="1"/>
        <pt x="848" y="0" on="0"/>
        <pt x="808" y="-1" on="0"/>
        <pt x="778" y="-3" on="0"/>
        <pt x="753" y="-5" on="0"/>
        <pt x="739" y="-6" on="0"/>
      </contour>
    </TTGlyph>
    <TTGlyph name="N" xMin="9" yMin="-24" xMax="810" yMax="697">
      <contour>
        <pt x="153" y="555" on="1"/>
        <pt x="153" y="559" on="1"/>
        <pt x="153" y="573" on="0"/>
        <pt x="119" y="604" on="1"/>
        <pt x="79" y="644" on="0"/>
        <pt x="28" y="648" on="1"/>
        <pt x="9" y="648" on="0"/>
        <pt x="9" y="671" on="1"/>
        <pt x="9" y="697" on="0"/>
        <pt x="32" y="697" on="1"/>
        <pt x="158" y="697" on="1"/>
        <pt x="183" y="697" on="0"/>
        <pt x="199" y="678" on="1"/>
        <pt x="359" y="492" on="1"/>
        <pt x="453" y="387" on="1"/>
        <pt x="641" y="183" on="0"/>
        <pt x="649" y="178" on="1"/>
        <pt x="651" y="176" on="0"/>
        <pt x="653" y="176" on="1"/>
        <pt x="660" y="176" on="0"/>
        <pt x="660" y="186" on="1"/>
        <pt x="660" y="198" on="0"/>
        <pt x="662" y="243" on="0"/>
        <pt x="663" y="280" on="0"/>
        <pt x="663" y="296" on="1"/>
        <pt x="663" y="434" on="0"/>
        <pt x="653" y="601" on="1"/>
        <pt x="652" y="631" on="0"/>
        <pt x="626" y="647" on="0"/>
        <pt x="587" y="651" on="1"/>
        <pt x="564" y="654" on="0"/>
        <pt x="564" y="673" on="1"/>
        <pt x="564" y="682" on="0"/>
        <pt x="578" y="697" on="0"/>
        <pt x="594" y="697" on="1"/>
        <pt x="596" y="697" on="0"/>
        <pt x="621" y="696" on="0"/>
        <pt x="666" y="694" on="0"/>
        <pt x="718" y="694" on="0"/>
        <pt x="761" y="696" on="0"/>
        <pt x="786" y="697" on="0"/>
        <pt x="788" y="697" on="1"/>
        <pt x="810" y="697" on="0"/>
        <pt x="810" y="674" on="1"/>
        <pt x="810" y="666" on="0"/>
        <pt x="806" y="656" on="0"/>
        <pt x="794" y="651" on="0"/>
        <pt x="787" y="650" on="0"/>
        <pt x="767" y="649" on="0"/>
        <pt x="763" y="649" on="1"/>
        <pt x="737" y="647" on="0"/>
        <pt x="718" y="619" on="0"/>
        <pt x="717" y="578" on="1"/>
        <pt x="713" y="404" on="0"/>
        <pt x="713" y="312" on="1"/>
        <pt x="713" y="236" on="0"/>
        <pt x="715" y="106" on="0"/>
        <pt x="717" y="33" on="0"/>
        <pt x="717" y="25" on="1"/>
        <pt x="717" y="-24" on="0"/>
        <pt x="696" y="-24" on="1"/>
        <pt x="684" y="-24" on="0"/>
        <pt x="646" y="19" on="1"/>
        <pt x="434" y="261" on="1"/>
        <pt x="209" y="511" on="0"/>
        <pt x="207" y="511" on="1"/>
        <pt x="203" y="507" on="1"/>
        <pt x="189" y="297" on="0"/>
        <pt x="189" y="143" on="1"/>
        <pt x="189" y="114" on="1"/>
        <pt x="189" y="73" on="0"/>
        <pt x="205" y="49" on="0"/>
        <pt x="236" y="47" on="1"/>
        <pt x="274" y="47" on="0"/>
        <pt x="298" y="40" on="1"/>
        <pt x="311" y="34" on="0"/>
        <pt x="311" y="13" on="1"/>
        <pt x="311" y="-6" on="0"/>
        <pt x="294" y="-6" on="1"/>
        <pt x="293" y="-6" on="0"/>
        <pt x="279" y="-5" on="0"/>
        <pt x="256" y="-3" on="0"/>
        <pt x="226" y="-1" on="0"/>
        <pt x="188" y="0" on="0"/>
        <pt x="169" y="0" on="1"/>
        <pt x="139" y="0" on="0"/>
        <pt x="79" y="-3" on="0"/>
        <pt x="61" y="-4" on="1"/>
        <pt x="43" y="-6" on="1"/>
        <pt x="22" y="-6" on="0"/>
        <pt x="22" y="14" on="1"/>
        <pt x="22" y="36" on="0"/>
        <pt x="37" y="41" on="1"/>
        <pt x="43" y="43" on="0"/>
        <pt x="86" y="46" on="0"/>
        <pt x="117" y="59" on="0"/>
        <pt x="124" y="74" on="1"/>
        <pt x="128" y="84" on="0"/>
        <pt x="143" y="361" on="1"/>
        <pt x="149" y="479" on="0"/>
      </contour>
    </TTGlyph>
    <TTGlyph name="Nacute" xMin="9" yMin="-24" xMax="810" yMax="919">
      <component glyphName="N" x="0" y="0" flags="0x1004"/>
      <component glyphName="acute.cap" x="302" y="-2" flags="0x1004"/>
    </TTGlyph>
    <TTGlyph name="Ncaron" xMin="9" yMin="-24" xMax="810" yMax="900">
      <component glyphName="N" x="0" y="0" flags="0x1004"/>
      <component glyphName="caron.cap" x="270" y="-4" flags="0x1004"/>
    </TTGlyph>
    <TTGlyph name="Ncommaaccent" xMin="9" yMin="-317" xMax="810" yMax="697">
      <component glyphName="N" x="0" y="0" flags="0x1004"/>
      <component glyphName="comma" x="293" y="-166" flags="0x1004"/>
    </TTGlyph>
    <TTGlyph name="Ntilde" xMin="9" yMin="-24" xMax="810" yMax="855">
      <component glyphName="tilde" x="238" y="171" flags="0x1004"/>
      <component glyphName="N" x="0" y="0" flags="0x1004"/>
    </TTGlyph>
    <TTGlyph name="O" xMin="18" yMin="-25" xMax="778" yMax="737">
      <contour>
        <pt x="778" y="345" on="1"/>
        <pt x="778" y="186" on="0"/>
        <pt x="563" y="-25" on="0"/>
        <pt x="411" y="-25" on="1"/>
        <pt x="336" y="-25" on="0"/>
        <pt x="192" y="33" on="0"/>
        <pt x="137" y="86" on="1"/>
        <pt x="20" y="199" on="0"/>
        <pt x="18" y="361" on="1"/>
        <pt x="18" y="516" on="0"/>
        <pt x="241" y="737" on="0"/>
        <pt x="396" y="737" on="1"/>
        <pt x="558" y="737" on="0"/>
        <pt x="778" y="505" on="0"/>
      </contour>
      <contour>
        <pt x="116" y="393" on="1"/>
        <pt x="116" y="325" on="0"/>
        <pt x="153" y="199" on="0"/>
        <pt x="223" y="97" on="0"/>
        <pt x="337" y="35" on="0"/>
        <pt x="407" y="35" on="1"/>
        <pt x="454" y="35" on="0"/>
        <pt x="544" y="67" on="0"/>
        <pt x="626" y="132" on="0"/>
        <pt x="677" y="250" on="0"/>
        <pt x="677" y="327" on="1"/>
        <pt x="677" y="408" on="0"/>
        <pt x="622" y="563" on="0"/>
        <pt x="564" y="614" on="1"/>
        <pt x="486" y="683" on="0"/>
        <pt x="380" y="683" on="1"/>
        <pt x="331" y="683" on="0"/>
        <pt x="239" y="648" on="0"/>
        <pt x="162" y="581" on="0"/>
        <pt x="116" y="466" on="0"/>
      </contour>
    </TTGlyph>
    <TTGlyph name="OE" xMin="18" yMin="-25" xMax="1027" yMax="737">
      <contour>
        <pt x="653" y="99" on="1"/>
        <pt x="653" y="75" on="0"/>
        <pt x="697" y="56" on="0"/>
        <pt x="780" y="56" on="1"/>
        <pt x="814" y="56" on="0"/>
        <pt x="914" y="68" on="0"/>
        <pt x="929" y="78" on="1"/>
        <pt x="934" y="82" on="0"/>
        <pt x="987" y="173" on="1"/>
        <pt x="996" y="190" on="0"/>
        <pt x="1010" y="190" on="1"/>
        <pt x="1027" y="190" on="0"/>
        <pt x="1027" y="167" on="1"/>
        <pt x="1027" y="166" on="1"/>
        <pt x="1027" y="161" on="0"/>
        <pt x="996" y="20" on="1"/>
        <pt x="993" y="7" on="0"/>
        <pt x="979" y="0" on="0"/>
        <pt x="964" y="0" on="1"/>
        <pt x="679" y="0" on="1"/>
        <pt x="589" y="0" on="0"/>
        <pt x="425" y="-25" on="0"/>
        <pt x="411" y="-25" on="1"/>
        <pt x="250" y="-25" on="0"/>
        <pt x="18" y="203" on="0"/>
        <pt x="18" y="361" on="1"/>
        <pt x="18" y="516" on="0"/>
        <pt x="240" y="737" on="0"/>
        <pt x="395" y="737" on="1"/>
        <pt x="418" y="737" on="0"/>
        <pt x="464" y="733" on="0"/>
        <pt x="491" y="728" on="0"/>
        <pt x="534" y="719" on="0"/>
        <pt x="542" y="718" on="1"/>
        <pt x="562" y="714" on="0"/>
        <pt x="614" y="709" on="0"/>
        <pt x="630" y="708" on="1"/>
        <pt x="646" y="708" on="1"/>
        <pt x="958" y="708" on="1"/>
        <pt x="974" y="708" on="0"/>
        <pt x="979" y="691" on="1"/>
        <pt x="1008" y="562" on="1"/>
        <pt x="1008" y="559" on="1"/>
        <pt x="1008" y="549" on="0"/>
        <pt x="993" y="538" on="0"/>
        <pt x="983" y="538" on="1"/>
        <pt x="978" y="538" on="0"/>
        <pt x="971" y="540" on="0"/>
        <pt x="967" y="543" on="0"/>
        <pt x="963" y="548" on="0"/>
        <pt x="962" y="551" on="0"/>
        <pt x="959" y="557" on="0"/>
        <pt x="959" y="558" on="1"/>
        <pt x="915" y="633" on="1"/>
        <pt x="907" y="646" on="0"/>
        <pt x="897" y="653" on="0"/>
        <pt x="885" y="653" on="1"/>
        <pt x="686" y="653" on="1"/>
        <pt x="672" y="653" on="0"/>
        <pt x="654" y="639" on="0"/>
        <pt x="654" y="629" on="1"/>
        <pt x="654" y="460" on="1"/>
        <pt x="654" y="437" on="0"/>
        <pt x="670" y="437" on="1"/>
        <pt x="831" y="437" on="1"/>
        <pt x="842" y="437" on="0"/>
        <pt x="856" y="440" on="0"/>
        <pt x="870" y="456" on="0"/>
        <pt x="870" y="471" on="1"/>
        <pt x="870" y="503" on="1"/>
        <pt x="870" y="514" on="0"/>
        <pt x="886" y="526" on="0"/>
        <pt x="897" y="526" on="1"/>
        <pt x="927" y="526" on="0"/>
        <pt x="927" y="496" on="1"/>
        <pt x="927" y="307" on="1"/>
        <pt x="927" y="278" on="0"/>
        <pt x="899" y="278" on="1"/>
        <pt x="870" y="278" on="0"/>
        <pt x="870" y="300" on="1"/>
        <pt x="870" y="355" on="1"/>
        <pt x="870" y="378" on="0"/>
        <pt x="844" y="378" on="1"/>
        <pt x="729" y="378" on="1"/>
        <pt x="679" y="378" on="0"/>
        <pt x="653" y="364" on="0"/>
        <pt x="653" y="337" on="1"/>
      </contour>
      <contour>
        <pt x="380" y="683" on="1"/>
        <pt x="379" y="683" on="1"/>
        <pt x="330" y="683" on="0"/>
        <pt x="239" y="648" on="0"/>
        <pt x="161" y="581" on="0"/>
        <pt x="115" y="466" on="0"/>
        <pt x="115" y="393" on="1"/>
        <pt x="115" y="301" on="0"/>
        <pt x="178" y="142" on="0"/>
        <pt x="314" y="35" on="0"/>
        <pt x="407" y="35" on="1"/>
        <pt x="485" y="35" on="0"/>
        <pt x="546" y="73" on="1"/>
        <pt x="557" y="79" on="0"/>
        <pt x="561" y="87" on="0"/>
        <pt x="561" y="106" on="1"/>
        <pt x="561" y="615" on="1"/>
        <pt x="484" y="683" on="0"/>
      </contour>
    </TTGlyph>
    <TTGlyph name="Oacute" xMin="18" yMin="-25" xMax="778" yMax="921">
      <component glyphName="acute.cap" x="254" y="0" flags="0x1004"/>
      <component glyphName="O" x="0" y="0" flags="0x1004"/>
    </TTGlyph>
    <TTGlyph name="Obreve" xMin="18" yMin="-25" xMax="778" yMax="894">
      <component glyphName="breve.cap" x="232" y="12" flags="0x1004"/>
      <component glyphName="O" x="0" y="0" flags="0x1004"/>
    </TTGlyph>
    <TTGlyph name="Ocircumflex" xMin="18" yMin="-25" xMax="778" yMax="902">
      <component glyphName="circumflex.cap" x="260" y="-2" flags="0x1004"/>
      <component glyphName="O" x="0" y="0" flags="0x1004"/>
    </TTGlyph>
    <TTGlyph name="Odieresis" xMin="18" yMin="-25" xMax="778" yMax="854">
      <component glyphName="dieresis" x="268" y="173" flags="0x1004"/>
      <component glyphName="O" x="0" y="0" flags="0x1004"/>
    </TTGlyph>
    <TTGlyph name="Ograve" xMin="18" yMin="-25" xMax="778" yMax="921">
      <component glyphName="grave.cap" x="254" y="0" flags="0x1004"/>
      <component glyphName="O" x="0" y="0" flags="0x1004"/>
    </TTGlyph>
    <TTGlyph name="Oslash" xMin="18" yMin="-45" xMax="778" yMax="763">
      <contour>
        <pt x="778" y="345" on="1"/>
        <pt x="778" y="186" on="0"/>
        <pt x="563" y="-25" on="0"/>
        <pt x="411" y="-25" on="1"/>
        <pt x="317" y="-25" on="0"/>
        <pt x="233" y="18" on="1"/>
        <pt x="217" y="-11" on="0"/>
        <pt x="206" y="-32" on="1"/>
        <pt x="202" y="-38" on="0"/>
        <pt x="201" y="-40" on="1"/>
        <pt x="194" y="-45" on="0"/>
        <pt x="181" y="-45" on="1"/>
        <pt x="146" y="-45" on="0"/>
        <pt x="146" y="-32" on="1"/>
        <pt x="146" y="-31" on="1"/>
        <pt x="187" y="45" on="1"/>
        <pt x="109" y="99" on="0"/>
        <pt x="19" y="267" on="0"/>
        <pt x="18" y="361" on="1"/>
        <pt x="18" y="516" on="0"/>
        <pt x="241" y="737" on="0"/>
        <pt x="396" y="737" on="1"/>
        <pt x="475" y="737" on="0"/>
        <pt x="549" y="706" on="1"/>
        <pt x="577" y="757" on="0"/>
        <pt x="581" y="761" on="1"/>
        <pt x="585" y="763" on="0"/>
        <pt x="595" y="763" on="1"/>
        <pt x="632" y="763" on="0"/>
        <pt x="632" y="746" on="1"/>
        <pt x="632" y="743" on="0"/>
        <pt x="597" y="680" on="1"/>
        <pt x="681" y="627" on="0"/>
        <pt x="778" y="447" on="0"/>
      </contour>
      <contour>
        <pt x="116" y="393" on="1"/>
        <pt x="116" y="315" on="0"/>
        <pt x="167" y="162" on="0"/>
        <pt x="222" y="109" on="1"/>
        <pt x="517" y="648" on="1"/>
        <pt x="453" y="683" on="0"/>
        <pt x="380" y="683" on="1"/>
        <pt x="331" y="683" on="0"/>
        <pt x="239" y="648" on="0"/>
        <pt x="162" y="581" on="0"/>
        <pt x="116" y="466" on="0"/>
      </contour>
      <contour>
        <pt x="407" y="35" on="1"/>
        <pt x="454" y="35" on="0"/>
        <pt x="544" y="67" on="0"/>
        <pt x="626" y="132" on="0"/>
        <pt x="677" y="250" on="0"/>
        <pt x="677" y="327" on="1"/>
        <pt x="677" y="410" on="0"/>
        <pt x="621" y="564" on="0"/>
        <pt x="562" y="616" on="1"/>
        <pt x="264" y="75" on="1"/>
        <pt x="329" y="35" on="0"/>
      </contour>
    </TTGlyph>
    <TTGlyph name="Otilde" xMin="18" yMin="-25" xMax="778" yMax="867">
      <component glyphName="tilde" x="226" y="183" flags="0x1004"/>
      <component glyphName="O" x="0" y="0" flags="0x1004"/>
    </TTGlyph>
    <TTGlyph name="P" xMin="14" yMin="-6" xMax="573" yMax="710">
      <contour>
        <pt x="487" y="510" on="1"/>
        <pt x="487" y="576" on="0"/>
        <pt x="364" y="664" on="0"/>
        <pt x="259" y="664" on="1"/>
        <pt x="219" y="664" on="0"/>
        <pt x="197" y="658" on="0"/>
        <pt x="197" y="648" on="1"/>
        <pt x="197" y="356" on="1"/>
        <pt x="197" y="348" on="0"/>
        <pt x="208" y="344" on="0"/>
        <pt x="234" y="344" on="1"/>
        <pt x="347" y="344" on="0"/>
        <pt x="487" y="436" on="0"/>
      </contour>
      <contour>
        <pt x="71" y="699" on="1"/>
        <pt x="122" y="699" on="0"/>
        <pt x="280" y="710" on="0"/>
        <pt x="314" y="710" on="1"/>
        <pt x="445" y="710" on="0"/>
        <pt x="514" y="648" on="1"/>
        <pt x="573" y="594" on="0"/>
        <pt x="573" y="515" on="1"/>
        <pt x="573" y="514" on="1"/>
        <pt x="572" y="459" on="0"/>
        <pt x="514" y="374" on="0"/>
        <pt x="469" y="350" on="1"/>
        <pt x="395" y="308" on="0"/>
        <pt x="239" y="308" on="1"/>
        <pt x="208" y="308" on="1"/>
        <pt x="195" y="308" on="0"/>
        <pt x="195" y="292" on="1"/>
        <pt x="195" y="84" on="1"/>
        <pt x="195" y="66" on="0"/>
        <pt x="208" y="49" on="0"/>
        <pt x="227" y="48" on="1"/>
        <pt x="318" y="44" on="0"/>
        <pt x="324" y="42" on="1"/>
        <pt x="338" y="38" on="0"/>
        <pt x="338" y="19" on="1"/>
        <pt x="338" y="18" on="1"/>
        <pt x="338" y="-6" on="0"/>
        <pt x="318" y="-6" on="1"/>
        <pt x="298" y="-4" on="1"/>
        <pt x="278" y="-3" on="0"/>
        <pt x="210" y="0" on="0"/>
        <pt x="177" y="0" on="1"/>
        <pt x="143" y="0" on="0"/>
        <pt x="75" y="-3" on="0"/>
        <pt x="55" y="-4" on="1"/>
        <pt x="35" y="-6" on="1"/>
        <pt x="14" y="-6" on="0"/>
        <pt x="14" y="18" on="1"/>
        <pt x="14" y="22" on="0"/>
        <pt x="15" y="29" on="0"/>
        <pt x="16" y="34" on="0"/>
        <pt x="20" y="38" on="0"/>
        <pt x="23" y="41" on="0"/>
        <pt x="30" y="43" on="0"/>
        <pt x="35" y="44" on="0"/>
        <pt x="46" y="45" on="0"/>
        <pt x="55" y="46" on="0"/>
        <pt x="71" y="47" on="0"/>
        <pt x="78" y="48" on="1"/>
        <pt x="95" y="50" on="0"/>
        <pt x="106" y="63" on="0"/>
        <pt x="106" y="76" on="1"/>
        <pt x="106" y="624" on="1"/>
        <pt x="106" y="632" on="0"/>
        <pt x="105" y="641" on="0"/>
        <pt x="94" y="650" on="0"/>
        <pt x="84" y="650" on="1"/>
        <pt x="47" y="650" on="1"/>
        <pt x="40" y="650" on="0"/>
        <pt x="32" y="652" on="0"/>
        <pt x="23" y="665" on="0"/>
        <pt x="23" y="677" on="1"/>
        <pt x="23" y="699" on="0"/>
        <pt x="45" y="699" on="1"/>
      </contour>
    </TTGlyph>
    <TTGlyph name="Q" xMin="20" yMin="-208" xMax="849" yMax="741">
      <contour>
        <pt x="417" y="33" on="1"/>
        <pt x="524" y="33" on="0"/>
        <pt x="671" y="200" on="0"/>
        <pt x="671" y="337" on="1"/>
        <pt x="671" y="419" on="0"/>
        <pt x="616" y="578" on="0"/>
        <pt x="556" y="630" on="1"/>
        <pt x="484" y="691" on="0"/>
        <pt x="385" y="691" on="1"/>
        <pt x="279" y="691" on="0"/>
        <pt x="120" y="536" on="0"/>
        <pt x="120" y="401" on="1"/>
        <pt x="120" y="310" on="0"/>
        <pt x="191" y="144" on="0"/>
        <pt x="330" y="33" on="0"/>
      </contour>
      <contour>
        <pt x="467" y="-11" on="1"/>
        <pt x="444" y="-14" on="1"/>
        <pt x="420" y="-16" on="0"/>
        <pt x="398" y="-16" on="1"/>
        <pt x="321" y="-16" on="0"/>
        <pt x="180" y="44" on="0"/>
        <pt x="129" y="96" on="1"/>
        <pt x="20" y="207" on="0"/>
        <pt x="20" y="362" on="1"/>
        <pt x="20" y="437" on="0"/>
        <pt x="81" y="582" on="0"/>
        <pt x="135" y="635" on="1"/>
        <pt x="243" y="741" on="0"/>
        <pt x="397" y="741" on="1"/>
        <pt x="546" y="741" on="0"/>
        <pt x="649" y="639" on="1"/>
        <pt x="703" y="585" on="0"/>
        <pt x="762" y="441" on="0"/>
        <pt x="762" y="365" on="1"/>
        <pt x="762" y="261" on="0"/>
        <pt x="658" y="72" on="0"/>
        <pt x="575" y="15" on="1"/>
        <pt x="572" y="12" on="0"/>
        <pt x="572" y="8" on="0"/>
        <pt x="575" y="6" on="1"/>
        <pt x="615" y="-22" on="0"/>
        <pt x="705" y="-115" on="0"/>
        <pt x="728" y="-130" on="1"/>
        <pt x="771" y="-158" on="0"/>
        <pt x="815" y="-158" on="1"/>
        <pt x="823" y="-158" on="0"/>
        <pt x="836" y="-157" on="0"/>
        <pt x="837" y="-157" on="1"/>
        <pt x="849" y="-157" on="0"/>
        <pt x="849" y="-167" on="1"/>
        <pt x="849" y="-180" on="0"/>
        <pt x="789" y="-208" on="0"/>
        <pt x="758" y="-208" on="1"/>
        <pt x="741" y="-208" on="0"/>
        <pt x="710" y="-202" on="0"/>
        <pt x="678" y="-186" on="0"/>
        <pt x="658" y="-175" on="0"/>
        <pt x="626" y="-147" on="0"/>
        <pt x="615" y="-137" on="0"/>
        <pt x="582" y="-103" on="0"/>
        <pt x="579" y="-100" on="1"/>
        <pt x="490" y="-11" on="0"/>
      </contour>
    </TTGlyph>
    <TTGlyph name="R" xMin="14" yMin="-13" xMax="708" yMax="703">
      <contour>
        <pt x="449" y="508" on="1"/>
        <pt x="449" y="571" on="0"/>
        <pt x="345" y="664" on="0"/>
        <pt x="269" y="664" on="1"/>
        <pt x="222" y="664" on="0"/>
        <pt x="208" y="653" on="1"/>
        <pt x="202" y="649" on="0"/>
        <pt x="202" y="637" on="1"/>
        <pt x="202" y="636" on="0"/>
        <pt x="202" y="636" on="1"/>
        <pt x="203" y="634" on="1"/>
        <pt x="203" y="393" on="1"/>
        <pt x="203" y="380" on="0"/>
        <pt x="223" y="375" on="0"/>
        <pt x="270" y="375" on="1"/>
        <pt x="328" y="375" on="0"/>
        <pt x="365" y="389" on="1"/>
        <pt x="400" y="403" on="0"/>
        <pt x="449" y="465" on="0"/>
      </contour>
      <contour>
        <pt x="290" y="703" on="1"/>
        <pt x="355" y="703" on="0"/>
        <pt x="453" y="668" on="0"/>
        <pt x="504" y="613" on="0"/>
        <pt x="528" y="555" on="0"/>
        <pt x="528" y="525" on="1"/>
        <pt x="528" y="459" on="0"/>
        <pt x="446" y="367" on="0"/>
        <pt x="412" y="355" on="1"/>
        <pt x="407" y="352" on="0"/>
        <pt x="407" y="348" on="0"/>
        <pt x="409" y="346" on="1"/>
        <pt x="464" y="282" on="0"/>
        <pt x="541" y="171" on="0"/>
        <pt x="584" y="99" on="0"/>
        <pt x="598" y="83" on="1"/>
        <pt x="627" y="50" on="0"/>
        <pt x="653" y="50" on="1"/>
        <pt x="668" y="50" on="0"/>
        <pt x="692" y="73" on="0"/>
        <pt x="697" y="73" on="1"/>
        <pt x="708" y="73" on="0"/>
        <pt x="708" y="61" on="1"/>
        <pt x="708" y="44" on="0"/>
        <pt x="657" y="-13" on="0"/>
        <pt x="618" y="-13" on="1"/>
        <pt x="566" y="-13" on="0"/>
        <pt x="510" y="61" on="1"/>
        <pt x="408" y="207" on="1"/>
        <pt x="321" y="329" on="0"/>
        <pt x="313" y="334" on="1"/>
        <pt x="308" y="338" on="0"/>
        <pt x="296" y="338" on="1"/>
        <pt x="221" y="338" on="1"/>
        <pt x="207" y="338" on="0"/>
        <pt x="207" y="323" on="1"/>
        <pt x="207" y="86" on="1"/>
        <pt x="207" y="83" on="1"/>
        <pt x="207" y="53" on="0"/>
        <pt x="233" y="50" on="1"/>
        <pt x="242" y="49" on="0"/>
        <pt x="266" y="47" on="0"/>
        <pt x="279" y="46" on="0"/>
        <pt x="296" y="45" on="0"/>
        <pt x="305" y="43" on="0"/>
        <pt x="316" y="40" on="0"/>
        <pt x="321" y="36" on="0"/>
        <pt x="325" y="29" on="0"/>
        <pt x="327" y="21" on="0"/>
        <pt x="327" y="16" on="1"/>
        <pt x="327" y="-6" on="0"/>
        <pt x="306" y="-6" on="1"/>
        <pt x="305" y="-6" on="0"/>
        <pt x="290" y="-5" on="0"/>
        <pt x="266" y="-3" on="0"/>
        <pt x="235" y="-1" on="0"/>
        <pt x="194" y="0" on="0"/>
        <pt x="154" y="0" on="0"/>
        <pt x="113" y="-1" on="0"/>
        <pt x="83" y="-3" on="0"/>
        <pt x="58" y="-5" on="0"/>
        <pt x="44" y="-6" on="0"/>
        <pt x="43" y="-6" on="1"/>
        <pt x="25" y="-6" on="0"/>
        <pt x="25" y="22" on="1"/>
        <pt x="25" y="26" on="0"/>
        <pt x="26" y="32" on="0"/>
        <pt x="29" y="36" on="0"/>
        <pt x="32" y="39" on="0"/>
        <pt x="39" y="41" on="0"/>
        <pt x="45" y="43" on="0"/>
        <pt x="57" y="44" on="0"/>
        <pt x="65" y="44" on="0"/>
        <pt x="82" y="45" on="0"/>
        <pt x="88" y="46" on="1"/>
        <pt x="105" y="48" on="0"/>
        <pt x="116" y="65" on="0"/>
        <pt x="116" y="82" on="1"/>
        <pt x="116" y="611" on="1"/>
        <pt x="116" y="634" on="0"/>
        <pt x="90" y="645" on="0"/>
        <pt x="30" y="655" on="1"/>
        <pt x="14" y="658" on="0"/>
        <pt x="14" y="672" on="1"/>
        <pt x="14" y="691" on="0"/>
        <pt x="28" y="691" on="1"/>
        <pt x="63" y="691" on="1"/>
        <pt x="111" y="691" on="0"/>
        <pt x="259" y="703" on="0"/>
      </contour>
    </TTGlyph>
    <TTGlyph name="Racute" xMin="14" yMin="-13" xMax="708" yMax="919">
      <component glyphName="acute.cap" x="217" y="-2" flags="0x1004"/>
      <component glyphName="R" x="0" y="0" flags="0x1004"/>
    </TTGlyph>
    <TTGlyph name="Rcaron" xMin="14" yMin="-13" xMax="708" yMax="900">
      <component glyphName="caron.cap" x="161" y="-4" flags="0x1004"/>
      <component glyphName="R" x="0" y="0" flags="0x1004"/>
    </TTGlyph>
    <TTGlyph name="Rcommaaccent" xMin="14" yMin="-308" xMax="708" yMax="703">
      <component glyphName="R" x="0" y="0" flags="0x1004"/>
      <component glyphName="comma" x="245" y="-157" flags="0x1004"/>
    </TTGlyph>
    <TTGlyph name="S" xMin="26" yMin="-17" xMax="482" yMax="701">
      <contour>
        <pt x="33" y="528" on="1"/>
        <pt x="33" y="598" on="0"/>
        <pt x="137" y="701" on="0"/>
        <pt x="216" y="701" on="1"/>
        <pt x="253" y="701" on="0"/>
        <pt x="312" y="680" on="0"/>
        <pt x="345" y="660" on="0"/>
        <pt x="348" y="660" on="1"/>
        <pt x="354" y="660" on="0"/>
        <pt x="377" y="701" on="0"/>
        <pt x="391" y="701" on="1"/>
        <pt x="398" y="701" on="0"/>
        <pt x="408" y="690" on="0"/>
        <pt x="408" y="682" on="1"/>
        <pt x="408" y="680" on="0"/>
        <pt x="406" y="658" on="0"/>
        <pt x="403" y="619" on="0"/>
        <pt x="403" y="575" on="0"/>
        <pt x="406" y="537" on="0"/>
        <pt x="408" y="516" on="0"/>
        <pt x="408" y="514" on="1"/>
        <pt x="408" y="499" on="0"/>
        <pt x="390" y="499" on="1"/>
        <pt x="389" y="499" on="1"/>
        <pt x="375" y="499" on="0"/>
        <pt x="361" y="520" on="0"/>
        <pt x="338" y="570" on="0"/>
        <pt x="318" y="593" on="1"/>
        <pt x="267" y="650" on="0"/>
        <pt x="206" y="650" on="1"/>
        <pt x="164" y="650" on="0"/>
        <pt x="106" y="594" on="0"/>
        <pt x="106" y="554" on="1"/>
        <pt x="106" y="499" on="0"/>
        <pt x="159" y="461" on="1"/>
        <pt x="190" y="438" on="0"/>
        <pt x="330" y="404" on="0"/>
        <pt x="353" y="394" on="1"/>
        <pt x="411" y="369" on="0"/>
        <pt x="482" y="270" on="0"/>
        <pt x="482" y="203" on="1"/>
        <pt x="482" y="111" on="0"/>
        <pt x="352" y="-17" on="0"/>
        <pt x="258" y="-17" on="1"/>
        <pt x="166" y="-17" on="0"/>
        <pt x="102" y="39" on="1"/>
        <pt x="86" y="53" on="0"/>
        <pt x="71" y="53" on="1"/>
        <pt x="66" y="53" on="0"/>
        <pt x="48" y="50" on="0"/>
        <pt x="44" y="50" on="1"/>
        <pt x="26" y="50" on="0"/>
        <pt x="26" y="66" on="1"/>
        <pt x="26" y="69" on="0"/>
        <pt x="33" y="103" on="0"/>
        <pt x="45" y="181" on="0"/>
        <pt x="49" y="232" on="1"/>
        <pt x="51" y="254" on="0"/>
        <pt x="72" y="254" on="1"/>
        <pt x="88" y="254" on="0"/>
        <pt x="95" y="236" on="0"/>
        <pt x="100" y="195" on="1"/>
        <pt x="101" y="182" on="0"/>
        <pt x="103" y="158" on="0"/>
        <pt x="104" y="148" on="0"/>
        <pt x="104" y="140" on="0"/>
        <pt x="108" y="133" on="0"/>
        <pt x="110" y="129" on="0"/>
        <pt x="122" y="114" on="0"/>
        <pt x="127" y="108" on="1"/>
        <pt x="178" y="40" on="0"/>
        <pt x="259" y="40" on="1"/>
        <pt x="320" y="40" on="0"/>
        <pt x="408" y="122" on="0"/>
        <pt x="408" y="182" on="1"/>
        <pt x="408" y="251" on="0"/>
        <pt x="348" y="295" on="1"/>
        <pt x="314" y="320" on="0"/>
        <pt x="176" y="353" on="0"/>
        <pt x="155" y="362" on="1"/>
        <pt x="95" y="386" on="0"/>
        <pt x="33" y="475" on="0"/>
      </contour>
    </TTGlyph>
    <TTGlyph name="Sacute" xMin="26" yMin="-17" xMax="482" yMax="919">
      <component glyphName="acute.cap" x="110" y="-2" flags="0x1004"/>
      <component glyphName="S" x="0" y="0" flags="0x1004"/>
    </TTGlyph>
    <TTGlyph name="Scaron" xMin="26" yMin="-17" xMax="482" yMax="900">
      <component glyphName="caron.cap" x="116" y="-4" flags="0x1004"/>
      <component glyphName="S" x="0" y="0" flags="0x1004"/>
    </TTGlyph>
    <TTGlyph name="Scedilla" xMin="26" yMin="-200" xMax="482" yMax="701">
      <contour>
        <pt x="353" y="-123" on="1"/>
        <pt x="353" y="-154" on="0"/>
        <pt x="314" y="-200" on="0"/>
        <pt x="269" y="-200" on="1"/>
        <pt x="246" y="-200" on="0"/>
        <pt x="191" y="-189" on="0"/>
        <pt x="188" y="-186" on="1"/>
        <pt x="184" y="-183" on="0"/>
        <pt x="184" y="-179" on="1"/>
        <pt x="184" y="-177" on="0"/>
        <pt x="187" y="-167" on="0"/>
        <pt x="194" y="-155" on="0"/>
        <pt x="199" y="-155" on="1"/>
        <pt x="203" y="-156" on="1"/>
        <pt x="207" y="-157" on="0"/>
        <pt x="219" y="-159" on="0"/>
        <pt x="232" y="-161" on="0"/>
        <pt x="247" y="-163" on="0"/>
        <pt x="252" y="-163" on="1"/>
        <pt x="269" y="-163" on="0"/>
        <pt x="291" y="-144" on="0"/>
        <pt x="291" y="-130" on="1"/>
        <pt x="291" y="-109" on="0"/>
        <pt x="250" y="-79" on="0"/>
        <pt x="218" y="-77" on="1"/>
        <pt x="213" y="-77" on="0"/>
        <pt x="213" y="-74" on="1"/>
        <pt x="213" y="-73" on="0"/>
        <pt x="234" y="-16" on="1"/>
        <pt x="194" y="-12" on="0"/>
        <pt x="131" y="16" on="0"/>
        <pt x="88" y="49" on="0"/>
        <pt x="87" y="49" on="1"/>
        <pt x="80" y="53" on="0"/>
        <pt x="71" y="53" on="1"/>
        <pt x="66" y="53" on="0"/>
        <pt x="48" y="50" on="0"/>
        <pt x="44" y="50" on="1"/>
        <pt x="26" y="50" on="0"/>
        <pt x="26" y="66" on="1"/>
        <pt x="26" y="69" on="0"/>
        <pt x="33" y="103" on="0"/>
        <pt x="45" y="181" on="0"/>
        <pt x="49" y="232" on="1"/>
        <pt x="51" y="254" on="0"/>
        <pt x="72" y="254" on="1"/>
        <pt x="88" y="254" on="0"/>
        <pt x="95" y="236" on="0"/>
        <pt x="100" y="195" on="1"/>
        <pt x="101" y="182" on="0"/>
        <pt x="103" y="158" on="0"/>
        <pt x="104" y="148" on="0"/>
        <pt x="104" y="140" on="0"/>
        <pt x="108" y="133" on="0"/>
        <pt x="110" y="129" on="0"/>
        <pt x="122" y="114" on="0"/>
        <pt x="127" y="108" on="1"/>
        <pt x="178" y="40" on="0"/>
        <pt x="259" y="40" on="1"/>
        <pt x="320" y="40" on="0"/>
        <pt x="408" y="122" on="0"/>
        <pt x="408" y="182" on="1"/>
        <pt x="408" y="251" on="0"/>
        <pt x="348" y="295" on="1"/>
        <pt x="314" y="320" on="0"/>
        <pt x="176" y="353" on="0"/>
        <pt x="155" y="362" on="1"/>
        <pt x="95" y="386" on="0"/>
        <pt x="33" y="475" on="0"/>
        <pt x="33" y="528" on="1"/>
        <pt x="33" y="598" on="0"/>
        <pt x="137" y="701" on="0"/>
        <pt x="216" y="701" on="1"/>
        <pt x="253" y="701" on="0"/>
        <pt x="312" y="680" on="0"/>
        <pt x="345" y="660" on="0"/>
        <pt x="348" y="660" on="1"/>
        <pt x="354" y="660" on="0"/>
        <pt x="377" y="701" on="0"/>
        <pt x="391" y="701" on="1"/>
        <pt x="398" y="701" on="0"/>
        <pt x="408" y="690" on="0"/>
        <pt x="408" y="682" on="1"/>
        <pt x="408" y="680" on="0"/>
        <pt x="406" y="658" on="0"/>
        <pt x="403" y="619" on="0"/>
        <pt x="403" y="575" on="0"/>
        <pt x="406" y="537" on="0"/>
        <pt x="408" y="516" on="0"/>
        <pt x="408" y="514" on="1"/>
        <pt x="408" y="499" on="0"/>
        <pt x="390" y="499" on="1"/>
        <pt x="389" y="499" on="1"/>
        <pt x="375" y="499" on="0"/>
        <pt x="361" y="520" on="0"/>
        <pt x="338" y="570" on="0"/>
        <pt x="318" y="593" on="1"/>
        <pt x="267" y="650" on="0"/>
        <pt x="206" y="650" on="1"/>
        <pt x="164" y="650" on="0"/>
        <pt x="106" y="594" on="0"/>
        <pt x="106" y="554" on="1"/>
        <pt x="106" y="499" on="0"/>
        <pt x="159" y="461" on="1"/>
        <pt x="190" y="438" on="0"/>
        <pt x="330" y="404" on="0"/>
        <pt x="353" y="394" on="1"/>
        <pt x="411" y="369" on="0"/>
        <pt x="482" y="270" on="0"/>
        <pt x="482" y="203" on="1"/>
        <pt x="482" y="116" on="0"/>
        <pt x="361" y="-13" on="0"/>
        <pt x="268" y="-17" on="1"/>
        <pt x="266" y="-22" on="0"/>
        <pt x="263" y="-31" on="0"/>
        <pt x="262" y="-35" on="0"/>
        <pt x="260" y="-39" on="0"/>
        <pt x="260" y="-40" on="0"/>
        <pt x="260" y="-41" on="1"/>
        <pt x="260" y="-44" on="0"/>
        <pt x="264" y="-44" on="1"/>
        <pt x="267" y="-44" on="1"/>
        <pt x="305" y="-44" on="0"/>
        <pt x="353" y="-85" on="0"/>
        <pt x="353" y="-122" on="1"/>
      </contour>
    </TTGlyph>
    <TTGlyph name="Scircumflex" xMin="26" yMin="-17" xMax="482" yMax="900">
      <component glyphName="circumflex.cap" x="116" y="-4" flags="0x1004"/>
      <component glyphName="S" x="0" y="0" flags="0x1004"/>
    </TTGlyph>
    <TTGlyph name="T" xMin="12" yMin="-6" xMax="706" yMax="705">
      <contour>
        <pt x="506" y="-6" on="1"/>
        <pt x="486" y="-4" on="1"/>
        <pt x="467" y="-3" on="0"/>
        <pt x="400" y="0" on="0"/>
        <pt x="367" y="0" on="1"/>
        <pt x="346" y="0" on="0"/>
        <pt x="303" y="-1" on="0"/>
        <pt x="270" y="-3" on="0"/>
        <pt x="244" y="-5" on="0"/>
        <pt x="228" y="-6" on="0"/>
        <pt x="227" y="-6" on="1"/>
        <pt x="207" y="-6" on="0"/>
        <pt x="207" y="20" on="1"/>
        <pt x="207" y="36" on="0"/>
        <pt x="224" y="44" on="0"/>
        <pt x="255" y="46" on="1"/>
        <pt x="272" y="47" on="0"/>
        <pt x="282" y="48" on="1"/>
        <pt x="303" y="50" on="0"/>
        <pt x="316" y="68" on="0"/>
        <pt x="316" y="86" on="1"/>
        <pt x="316" y="605" on="1"/>
        <pt x="316" y="615" on="0"/>
        <pt x="314" y="625" on="0"/>
        <pt x="301" y="637" on="0"/>
        <pt x="289" y="637" on="1"/>
        <pt x="136" y="637" on="1"/>
        <pt x="117" y="637" on="0"/>
        <pt x="103" y="628" on="0"/>
        <pt x="97" y="616" on="1"/>
        <pt x="55" y="533" on="0"/>
        <pt x="52" y="529" on="1"/>
        <pt x="45" y="521" on="0"/>
        <pt x="35" y="521" on="1"/>
        <pt x="25" y="521" on="0"/>
        <pt x="12" y="536" on="0"/>
        <pt x="12" y="547" on="1"/>
        <pt x="12" y="548" on="1"/>
        <pt x="12" y="552" on="0"/>
        <pt x="42" y="689" on="1"/>
        <pt x="45" y="705" on="0"/>
        <pt x="63" y="705" on="1"/>
        <pt x="660" y="705" on="1"/>
        <pt x="677" y="705" on="0"/>
        <pt x="681" y="681" on="1"/>
        <pt x="706" y="551" on="0"/>
        <pt x="706" y="550" on="1"/>
        <pt x="706" y="541" on="0"/>
        <pt x="694" y="527" on="0"/>
        <pt x="686" y="527" on="1"/>
        <pt x="674" y="527" on="0"/>
        <pt x="663" y="547" on="1"/>
        <pt x="657" y="557" on="0"/>
        <pt x="643" y="582" on="0"/>
        <pt x="636" y="595" on="0"/>
        <pt x="627" y="612" on="0"/>
        <pt x="621" y="619" on="0"/>
        <pt x="615" y="628" on="0"/>
        <pt x="610" y="631" on="0"/>
        <pt x="604" y="635" on="0"/>
        <pt x="597" y="636" on="0"/>
        <pt x="590" y="637" on="0"/>
        <pt x="585" y="637" on="1"/>
        <pt x="434" y="637" on="1"/>
        <pt x="424" y="637" on="0"/>
        <pt x="413" y="627" on="0"/>
        <pt x="412" y="618" on="0"/>
        <pt x="412" y="609" on="1"/>
        <pt x="412" y="73" on="1"/>
        <pt x="412" y="57" on="0"/>
        <pt x="431" y="49" on="0"/>
        <pt x="472" y="46" on="1"/>
        <pt x="493" y="44" on="0"/>
        <pt x="505" y="43" on="1"/>
        <pt x="516" y="42" on="0"/>
        <pt x="523" y="30" on="0"/>
        <pt x="523" y="14" on="1"/>
        <pt x="523" y="-6" on="0"/>
      </contour>
    </TTGlyph>
    <TTGlyph name="Tcaron" xMin="12" yMin="-6" xMax="706" yMax="900">
      <component glyphName="caron.cap" x="220" y="-4" flags="0x1004"/>
      <component glyphName="T" x="0" y="0" flags="0x1004"/>
    </TTGlyph>
    <TTGlyph name="Tcommaaccent" xMin="12" yMin="-200" xMax="706" yMax="705">
      <contour>
        <pt x="452" y="-123" on="1"/>
        <pt x="452" y="-154" on="0"/>
        <pt x="413" y="-200" on="0"/>
        <pt x="368" y="-200" on="1"/>
        <pt x="345" y="-200" on="0"/>
        <pt x="290" y="-189" on="0"/>
        <pt x="287" y="-186" on="1"/>
        <pt x="283" y="-183" on="0"/>
        <pt x="283" y="-179" on="1"/>
        <pt x="283" y="-177" on="0"/>
        <pt x="285" y="-167" on="0"/>
        <pt x="292" y="-155" on="0"/>
        <pt x="297" y="-155" on="1"/>
        <pt x="301" y="-156" on="1"/>
        <pt x="305" y="-157" on="0"/>
        <pt x="317" y="-159" on="0"/>
        <pt x="330" y="-161" on="0"/>
        <pt x="345" y="-163" on="0"/>
        <pt x="350" y="-163" on="1"/>
        <pt x="367" y="-163" on="0"/>
        <pt x="389" y="-144" on="0"/>
        <pt x="389" y="-130" on="1"/>
        <pt x="389" y="-109" on="0"/>
        <pt x="348" y="-79" on="0"/>
        <pt x="316" y="-77" on="1"/>
        <pt x="311" y="-77" on="0"/>
        <pt x="311" y="-74" on="1"/>
        <pt x="311" y="-72" on="0"/>
        <pt x="340" y="0" on="1"/>
        <pt x="310" y="0" on="0"/>
        <pt x="259" y="-3" on="0"/>
        <pt x="230" y="-6" on="0"/>
        <pt x="227" y="-6" on="1"/>
        <pt x="207" y="-6" on="0"/>
        <pt x="207" y="20" on="1"/>
        <pt x="207" y="36" on="0"/>
        <pt x="224" y="44" on="0"/>
        <pt x="255" y="46" on="1"/>
        <pt x="272" y="47" on="0"/>
        <pt x="282" y="48" on="1"/>
        <pt x="303" y="50" on="0"/>
        <pt x="316" y="68" on="0"/>
        <pt x="316" y="86" on="1"/>
        <pt x="316" y="605" on="1"/>
        <pt x="316" y="615" on="0"/>
        <pt x="314" y="625" on="0"/>
        <pt x="301" y="637" on="0"/>
        <pt x="289" y="637" on="1"/>
        <pt x="136" y="637" on="1"/>
        <pt x="117" y="637" on="0"/>
        <pt x="103" y="628" on="0"/>
        <pt x="97" y="616" on="1"/>
        <pt x="55" y="533" on="0"/>
        <pt x="52" y="529" on="1"/>
        <pt x="45" y="521" on="0"/>
        <pt x="35" y="521" on="1"/>
        <pt x="25" y="521" on="0"/>
        <pt x="12" y="536" on="0"/>
        <pt x="12" y="547" on="1"/>
        <pt x="12" y="548" on="1"/>
        <pt x="12" y="552" on="0"/>
        <pt x="42" y="689" on="1"/>
        <pt x="45" y="705" on="0"/>
        <pt x="63" y="705" on="1"/>
        <pt x="660" y="705" on="1"/>
        <pt x="677" y="705" on="0"/>
        <pt x="681" y="681" on="1"/>
        <pt x="706" y="551" on="0"/>
        <pt x="706" y="550" on="1"/>
        <pt x="706" y="541" on="0"/>
        <pt x="694" y="527" on="0"/>
        <pt x="686" y="527" on="1"/>
        <pt x="674" y="527" on="0"/>
        <pt x="663" y="547" on="1"/>
        <pt x="657" y="557" on="0"/>
        <pt x="643" y="582" on="0"/>
        <pt x="636" y="595" on="0"/>
        <pt x="627" y="612" on="0"/>
        <pt x="621" y="619" on="0"/>
        <pt x="615" y="628" on="0"/>
        <pt x="610" y="631" on="0"/>
        <pt x="604" y="635" on="0"/>
        <pt x="597" y="636" on="0"/>
        <pt x="590" y="637" on="0"/>
        <pt x="585" y="637" on="1"/>
        <pt x="434" y="637" on="1"/>
        <pt x="424" y="637" on="0"/>
        <pt x="413" y="627" on="0"/>
        <pt x="412" y="618" on="0"/>
        <pt x="412" y="609" on="1"/>
        <pt x="412" y="73" on="1"/>
        <pt x="412" y="57" on="0"/>
        <pt x="431" y="49" on="0"/>
        <pt x="472" y="46" on="1"/>
        <pt x="493" y="44" on="0"/>
        <pt x="505" y="43" on="1"/>
        <pt x="516" y="42" on="0"/>
        <pt x="523" y="30" on="0"/>
        <pt x="523" y="14" on="1"/>
        <pt x="523" y="-6" on="0"/>
        <pt x="506" y="-6" on="1"/>
        <pt x="487" y="-4" on="1"/>
        <pt x="468" y="-3" on="0"/>
        <pt x="404" y="0" on="0"/>
        <pt x="373" y="0" on="1"/>
        <pt x="371" y="-6" on="0"/>
        <pt x="363" y="-27" on="0"/>
        <pt x="360" y="-34" on="1"/>
        <pt x="358" y="-41" on="1"/>
        <pt x="358" y="-44" on="0"/>
        <pt x="362" y="-44" on="1"/>
        <pt x="366" y="-44" on="1"/>
        <pt x="404" y="-44" on="0"/>
        <pt x="452" y="-85" on="0"/>
        <pt x="452" y="-122" on="1"/>
      </contour>
    </TTGlyph>
    <TTGlyph name="U" xMin="17" yMin="-15" xMax="760" yMax="706">
      <contour>
        <pt x="760" y="679" on="1"/>
        <pt x="760" y="665" on="0"/>
        <pt x="738" y="656" on="0"/>
        <pt x="713" y="656" on="0"/>
        <pt x="691" y="623" on="0"/>
        <pt x="691" y="586" on="1"/>
        <pt x="691" y="584" on="0"/>
        <pt x="690" y="576" on="0"/>
        <pt x="690" y="575" on="1"/>
        <pt x="690" y="343" on="1"/>
        <pt x="690" y="335" on="0"/>
        <pt x="691" y="303" on="0"/>
        <pt x="691" y="295" on="1"/>
        <pt x="691" y="262" on="1"/>
        <pt x="691" y="229" on="0"/>
        <pt x="686" y="178" on="0"/>
        <pt x="669" y="112" on="0"/>
        <pt x="630" y="56" on="0"/>
        <pt x="600" y="35" on="1"/>
        <pt x="529" y="-15" on="0"/>
        <pt x="407" y="-15" on="1"/>
        <pt x="338" y="-15" on="0"/>
        <pt x="227" y="15" on="0"/>
        <pt x="166" y="54" on="0"/>
        <pt x="120" y="109" on="0"/>
        <pt x="105" y="142" on="0"/>
        <pt x="100" y="160" on="1"/>
        <pt x="87" y="207" on="0"/>
        <pt x="87" y="291" on="1"/>
        <pt x="87" y="304" on="0"/>
        <pt x="88" y="356" on="0"/>
        <pt x="88" y="369" on="1"/>
        <pt x="88" y="627" on="1"/>
        <pt x="88" y="633" on="0"/>
        <pt x="87" y="642" on="0"/>
        <pt x="81" y="647" on="0"/>
        <pt x="79" y="651" on="0"/>
        <pt x="67" y="653" on="0"/>
        <pt x="64" y="654" on="0"/>
        <pt x="47" y="656" on="0"/>
        <pt x="45" y="656" on="1"/>
        <pt x="17" y="660" on="0"/>
        <pt x="17" y="681" on="1"/>
        <pt x="17" y="706" on="0"/>
        <pt x="38" y="706" on="1"/>
        <pt x="41" y="706" on="0"/>
        <pt x="67" y="704" on="0"/>
        <pt x="114" y="702" on="0"/>
        <pt x="141" y="702" on="1"/>
        <pt x="147" y="702" on="1"/>
        <pt x="176" y="702" on="0"/>
        <pt x="226" y="704" on="0"/>
        <pt x="254" y="706" on="0"/>
        <pt x="257" y="706" on="1"/>
        <pt x="276" y="706" on="0"/>
        <pt x="276" y="679" on="1"/>
        <pt x="276" y="671" on="0"/>
        <pt x="272" y="661" on="0"/>
        <pt x="259" y="657" on="0"/>
        <pt x="248" y="655" on="0"/>
        <pt x="222" y="653" on="0"/>
        <pt x="213" y="652" on="1"/>
        <pt x="180" y="648" on="0"/>
        <pt x="180" y="616" on="1"/>
        <pt x="180" y="296" on="1"/>
        <pt x="180" y="228" on="0"/>
        <pt x="204" y="134" on="0"/>
        <pt x="243" y="99" on="1"/>
        <pt x="304" y="43" on="0"/>
        <pt x="427" y="43" on="1"/>
        <pt x="570" y="43" on="0"/>
        <pt x="614" y="136" on="1"/>
        <pt x="634" y="178" on="0"/>
        <pt x="634" y="250" on="1"/>
        <pt x="634" y="264" on="1"/>
        <pt x="634" y="275" on="0"/>
        <pt x="633" y="317" on="0"/>
        <pt x="633" y="328" on="1"/>
        <pt x="633" y="606" on="1"/>
        <pt x="633" y="624" on="0"/>
        <pt x="627" y="645" on="0"/>
        <pt x="602" y="655" on="0"/>
        <pt x="590" y="657" on="0"/>
        <pt x="564" y="660" on="1"/>
        <pt x="542" y="662" on="0"/>
        <pt x="542" y="683" on="1"/>
        <pt x="542" y="706" on="0"/>
        <pt x="561" y="706" on="1"/>
        <pt x="563" y="706" on="0"/>
        <pt x="587" y="704" on="0"/>
        <pt x="627" y="702" on="0"/>
        <pt x="675" y="702" on="0"/>
        <pt x="715" y="704" on="0"/>
        <pt x="739" y="706" on="0"/>
        <pt x="741" y="706" on="1"/>
        <pt x="760" y="706" on="0"/>
      </contour>
    </TTGlyph>
    <TTGlyph name="Uacute" xMin="17" yMin="-15" xMax="760" yMax="919">
      <component glyphName="acute.cap" x="306" y="-2" flags="0x1004"/>
      <component glyphName="U" x="0" y="0" flags="0x1004"/>
    </TTGlyph>
    <TTGlyph name="Ubreve" xMin="17" yMin="-15" xMax="760" yMax="882">
      <component glyphName="breve.cap" x="244" y="0" flags="0x1004"/>
      <component glyphName="U" x="0" y="0" flags="0x1004"/>
    </TTGlyph>
    <TTGlyph name="Ucircumflex" xMin="17" yMin="-15" xMax="760" yMax="900">
      <component glyphName="circumflex.cap" x="250" y="-4" flags="0x1004"/>
      <component glyphName="U" x="0" y="0" flags="0x1004"/>
    </TTGlyph>
    <TTGlyph name="Udieresis" xMin="17" yMin="-15" xMax="760" yMax="842">
      <component glyphName="dieresis" x="283" y="161" flags="0x1004"/>
      <component glyphName="U" x="0" y="0" flags="0x1004"/>
    </TTGlyph>
    <TTGlyph name="Ugrave" xMin="17" yMin="-15" xMax="760" yMax="920">
      <component glyphName="grave.cap" x="244" y="-1" flags="0x1004"/>
      <component glyphName="U" x="0" y="0" flags="0x1004"/>
    </TTGlyph>
    <TTGlyph name="Uring" xMin="17" yMin="-15" xMax="760" yMax="927">
      <component glyphName="ring" x="290" y="261" flags="0x1004"/>
      <component glyphName="U" x="0" y="0" flags="0x1004"/>
    </TTGlyph>
    <TTGlyph name="Utilde" xMin="17" yMin="-15" xMax="760" yMax="855">
      <component glyphName="tilde" x="254" y="171" flags="0x1004"/>
      <component glyphName="U" x="0" y="0" flags="0x1004"/>
    </TTGlyph>
    <TTGlyph name="V" xMin="16" yMin="-20" xMax="843" yMax="706">
      <contour>
        <pt x="46" y="706" on="1"/>
        <pt x="49" y="706" on="0"/>
        <pt x="79" y="704" on="0"/>
        <pt x="131" y="702" on="0"/>
        <pt x="161" y="702" on="1"/>
        <pt x="190" y="702" on="0"/>
        <pt x="239" y="704" on="0"/>
        <pt x="266" y="706" on="0"/>
        <pt x="269" y="706" on="1"/>
        <pt x="288" y="706" on="0"/>
        <pt x="288" y="686" on="1"/>
        <pt x="288" y="669" on="0"/>
        <pt x="272" y="660" on="0"/>
        <pt x="242" y="656" on="1"/>
        <pt x="234" y="655" on="0"/>
        <pt x="230" y="654" on="1"/>
        <pt x="203" y="651" on="0"/>
        <pt x="203" y="628" on="1"/>
        <pt x="203" y="619" on="0"/>
        <pt x="209" y="607" on="1"/>
        <pt x="257" y="500" on="0"/>
        <pt x="372" y="275" on="0"/>
        <pt x="441" y="154" on="0"/>
        <pt x="446" y="148" on="1"/>
        <pt x="450" y="144" on="0"/>
        <pt x="462" y="144" on="0"/>
        <pt x="467" y="153" on="1"/>
        <pt x="588" y="372" on="0"/>
        <pt x="672" y="599" on="1"/>
        <pt x="678" y="617" on="0"/>
        <pt x="678" y="622" on="1"/>
        <pt x="678" y="644" on="0"/>
        <pt x="655" y="652" on="1"/>
        <pt x="646" y="655" on="0"/>
        <pt x="609" y="655" on="0"/>
        <pt x="589" y="664" on="0"/>
        <pt x="589" y="680" on="1"/>
        <pt x="589" y="706" on="0"/>
        <pt x="611" y="706" on="1"/>
        <pt x="614" y="706" on="0"/>
        <pt x="641" y="704" on="0"/>
        <pt x="689" y="702" on="0"/>
        <pt x="716" y="702" on="1"/>
        <pt x="744" y="702" on="0"/>
        <pt x="791" y="704" on="0"/>
        <pt x="817" y="706" on="0"/>
        <pt x="820" y="706" on="1"/>
        <pt x="843" y="706" on="0"/>
        <pt x="843" y="678" on="1"/>
        <pt x="843" y="663" on="0"/>
        <pt x="819" y="655" on="0"/>
        <pt x="778" y="646" on="0"/>
        <pt x="765" y="632" on="1"/>
        <pt x="754" y="620" on="0"/>
        <pt x="697" y="481" on="0"/>
        <pt x="557" y="174" on="0"/>
        <pt x="462" y="0" on="1"/>
        <pt x="450" y="-20" on="0"/>
        <pt x="422" y="-20" on="0"/>
        <pt x="410" y="0" on="1"/>
        <pt x="320" y="158" on="0"/>
        <pt x="183" y="410" on="0"/>
        <pt x="124" y="532" on="0"/>
        <pt x="85" y="615" on="0"/>
        <pt x="72" y="641" on="0"/>
        <pt x="63" y="647" on="1"/>
        <pt x="60" y="649" on="0"/>
        <pt x="33" y="661" on="0"/>
        <pt x="16" y="675" on="0"/>
        <pt x="16" y="685" on="1"/>
        <pt x="16" y="706" on="0"/>
      </contour>
    </TTGlyph>
    <TTGlyph name="W" xMin="13" yMin="-23" xMax="1024" yMax="706">
      <contour>
        <pt x="39" y="706" on="1"/>
        <pt x="41" y="706" on="0"/>
        <pt x="66" y="704" on="0"/>
        <pt x="111" y="702" on="0"/>
        <pt x="137" y="702" on="1"/>
        <pt x="162" y="702" on="0"/>
        <pt x="206" y="704" on="0"/>
        <pt x="231" y="706" on="0"/>
        <pt x="233" y="706" on="1"/>
        <pt x="252" y="706" on="0"/>
        <pt x="252" y="680" on="1"/>
        <pt x="252" y="667" on="0"/>
        <pt x="235" y="657" on="0"/>
        <pt x="212" y="659" on="0"/>
        <pt x="187" y="655" on="0"/>
        <pt x="181" y="648" on="1"/>
        <pt x="176" y="642" on="0"/>
        <pt x="176" y="628" on="0"/>
        <pt x="179" y="622" on="1"/>
        <pt x="232" y="454" on="0"/>
        <pt x="339" y="168" on="1"/>
        <pt x="346" y="150" on="0"/>
        <pt x="354" y="150" on="1"/>
        <pt x="361" y="150" on="0"/>
        <pt x="377" y="185" on="0"/>
        <pt x="424" y="305" on="1"/>
        <pt x="448" y="367" on="0"/>
        <pt x="464" y="406" on="1"/>
        <pt x="466" y="414" on="0"/>
        <pt x="466" y="418" on="1"/>
        <pt x="466" y="419" on="1"/>
        <pt x="466" y="425" on="0"/>
        <pt x="398" y="621" on="1"/>
        <pt x="389" y="649" on="0"/>
        <pt x="374" y="657" on="0"/>
        <pt x="327" y="659" on="1"/>
        <pt x="309" y="659" on="0"/>
        <pt x="309" y="682" on="1"/>
        <pt x="309" y="706" on="0"/>
        <pt x="333" y="706" on="1"/>
        <pt x="336" y="706" on="0"/>
        <pt x="363" y="704" on="0"/>
        <pt x="410" y="702" on="0"/>
        <pt x="438" y="702" on="1"/>
        <pt x="439" y="702" on="1"/>
        <pt x="466" y="702" on="0"/>
        <pt x="514" y="704" on="0"/>
        <pt x="541" y="706" on="0"/>
        <pt x="544" y="706" on="1"/>
        <pt x="561" y="706" on="0"/>
        <pt x="561" y="683" on="1"/>
        <pt x="561" y="669" on="0"/>
        <pt x="546" y="662" on="0"/>
        <pt x="517" y="659" on="1"/>
        <pt x="485" y="655" on="0"/>
        <pt x="485" y="634" on="1"/>
        <pt x="485" y="631" on="0"/>
        <pt x="487" y="621" on="1"/>
        <pt x="520" y="521" on="0"/>
        <pt x="606" y="297" on="0"/>
        <pt x="665" y="156" on="0"/>
        <pt x="672" y="146" on="1"/>
        <pt x="679" y="137" on="0"/>
        <pt x="684" y="137" on="1"/>
        <pt x="685" y="137" on="1"/>
        <pt x="695" y="137" on="0"/>
        <pt x="701" y="156" on="1"/>
        <pt x="747" y="253" on="0"/>
        <pt x="830" y="479" on="0"/>
        <pt x="870" y="617" on="0"/>
        <pt x="870" y="631" on="1"/>
        <pt x="870" y="637" on="0"/>
        <pt x="868" y="644" on="0"/>
        <pt x="861" y="650" on="0"/>
        <pt x="855" y="653" on="0"/>
        <pt x="841" y="655" on="0"/>
        <pt x="831" y="656" on="0"/>
        <pt x="810" y="658" on="0"/>
        <pt x="803" y="659" on="1"/>
        <pt x="782" y="661" on="0"/>
        <pt x="782" y="683" on="1"/>
        <pt x="782" y="706" on="0"/>
        <pt x="801" y="706" on="1"/>
        <pt x="804" y="706" on="0"/>
        <pt x="830" y="704" on="0"/>
        <pt x="877" y="702" on="0"/>
        <pt x="904" y="702" on="1"/>
        <pt x="905" y="702" on="1"/>
        <pt x="931" y="702" on="0"/>
        <pt x="978" y="704" on="0"/>
        <pt x="1004" y="706" on="0"/>
        <pt x="1007" y="706" on="1"/>
        <pt x="1024" y="706" on="0"/>
        <pt x="1024" y="682" on="1"/>
        <pt x="1024" y="669" on="0"/>
        <pt x="1006" y="658" on="0"/>
        <pt x="983" y="658" on="0"/>
        <pt x="956" y="648" on="0"/>
        <pt x="949" y="635" on="1"/>
        <pt x="948" y="633" on="0"/>
        <pt x="927" y="572" on="0"/>
        <pt x="887" y="462" on="0"/>
        <pt x="833" y="323" on="0"/>
        <pt x="750" y="127" on="0"/>
        <pt x="703" y="27" on="1"/>
        <pt x="681" y="-23" on="0"/>
        <pt x="662" y="-23" on="1"/>
        <pt x="637" y="-23" on="0"/>
        <pt x="618" y="32" on="1"/>
        <pt x="574" y="142" on="0"/>
        <pt x="529" y="259" on="1"/>
        <pt x="496" y="342" on="0"/>
        <pt x="490" y="342" on="0"/>
        <pt x="488" y="338" on="1"/>
        <pt x="453" y="247" on="0"/>
        <pt x="408" y="129" on="1"/>
        <pt x="367" y="22" on="0"/>
        <pt x="350" y="-16" on="0"/>
        <pt x="343" y="-19" on="1"/>
        <pt x="342" y="-19" on="1"/>
        <pt x="336" y="-23" on="0"/>
        <pt x="333" y="-23" on="1"/>
        <pt x="326" y="-23" on="0"/>
        <pt x="316" y="-16" on="0"/>
        <pt x="308" y="-2" on="0"/>
        <pt x="302" y="10" on="0"/>
        <pt x="295" y="30" on="0"/>
        <pt x="293" y="35" on="1"/>
        <pt x="254" y="131" on="0"/>
        <pt x="183" y="319" on="0"/>
        <pt x="135" y="458" on="0"/>
        <pt x="100" y="565" on="0"/>
        <pt x="79" y="633" on="0"/>
        <pt x="78" y="636" on="1"/>
        <pt x="71" y="654" on="0"/>
        <pt x="23" y="656" on="0"/>
        <pt x="18" y="663" on="1"/>
        <pt x="13" y="668" on="0"/>
        <pt x="13" y="677" on="1"/>
        <pt x="13" y="688" on="0"/>
        <pt x="26" y="706" on="0"/>
      </contour>
    </TTGlyph>
    <TTGlyph name="Wcircumflex" xMin="13" yMin="-23" xMax="1024" yMax="900">
      <component glyphName="circumflex.cap" x="380" y="-4" flags="0x1004"/>
      <component glyphName="W" x="0" y="0" flags="0x1004"/>
    </TTGlyph>
    <TTGlyph name="X" xMin="5" yMin="-6" xMax="674" yMax="706">
      <contour>
        <pt x="160" y="702" on="1"/>
        <pt x="191" y="702" on="0"/>
        <pt x="242" y="704" on="0"/>
        <pt x="271" y="706" on="0"/>
        <pt x="274" y="706" on="1"/>
        <pt x="284" y="706" on="0"/>
        <pt x="294" y="694" on="0"/>
        <pt x="294" y="676" on="1"/>
        <pt x="294" y="665" on="0"/>
        <pt x="272" y="657" on="0"/>
        <pt x="244" y="658" on="0"/>
        <pt x="222" y="646" on="0"/>
        <pt x="222" y="632" on="1"/>
        <pt x="222" y="625" on="0"/>
        <pt x="234" y="601" on="1"/>
        <pt x="346" y="419" on="0"/>
        <pt x="349" y="418" on="1"/>
        <pt x="351" y="418" on="0"/>
        <pt x="353" y="420" on="1"/>
        <pt x="368" y="441" on="0"/>
        <pt x="401" y="487" on="0"/>
        <pt x="421" y="515" on="0"/>
        <pt x="443" y="545" on="0"/>
        <pt x="455" y="563" on="0"/>
        <pt x="468" y="582" on="0"/>
        <pt x="474" y="593" on="0"/>
        <pt x="480" y="605" on="0"/>
        <pt x="483" y="613" on="0"/>
        <pt x="484" y="621" on="0"/>
        <pt x="484" y="626" on="1"/>
        <pt x="484" y="633" on="0"/>
        <pt x="482" y="643" on="0"/>
        <pt x="474" y="650" on="0"/>
        <pt x="470" y="654" on="0"/>
        <pt x="456" y="656" on="0"/>
        <pt x="450" y="657" on="0"/>
        <pt x="431" y="658" on="0"/>
        <pt x="428" y="658" on="1"/>
        <pt x="401" y="660" on="0"/>
        <pt x="401" y="688" on="1"/>
        <pt x="401" y="706" on="0"/>
        <pt x="418" y="706" on="1"/>
        <pt x="421" y="706" on="0"/>
        <pt x="451" y="704" on="0"/>
        <pt x="505" y="702" on="0"/>
        <pt x="536" y="702" on="1"/>
        <pt x="568" y="702" on="0"/>
        <pt x="621" y="704" on="0"/>
        <pt x="652" y="706" on="0"/>
        <pt x="655" y="706" on="1"/>
        <pt x="674" y="706" on="0"/>
        <pt x="674" y="687" on="1"/>
        <pt x="674" y="669" on="0"/>
        <pt x="656" y="655" on="0"/>
        <pt x="632" y="657" on="0"/>
        <pt x="594" y="651" on="0"/>
        <pt x="580" y="640" on="1"/>
        <pt x="568" y="631" on="0"/>
        <pt x="524" y="576" on="0"/>
        <pt x="516" y="564" on="1"/>
        <pt x="383" y="376" on="0"/>
        <pt x="383" y="372" on="1"/>
        <pt x="383" y="367" on="0"/>
        <pt x="559" y="89" on="1"/>
        <pt x="578" y="59" on="0"/>
        <pt x="600" y="49" on="0"/>
        <pt x="647" y="44" on="1"/>
        <pt x="674" y="40" on="0"/>
        <pt x="674" y="15" on="1"/>
        <pt x="674" y="-6" on="0"/>
        <pt x="656" y="-6" on="1"/>
        <pt x="655" y="-6" on="0"/>
        <pt x="641" y="-5" on="0"/>
        <pt x="616" y="-3" on="0"/>
        <pt x="585" y="-1" on="0"/>
        <pt x="544" y="0" on="0"/>
        <pt x="504" y="0" on="0"/>
        <pt x="464" y="-1" on="0"/>
        <pt x="433" y="-3" on="0"/>
        <pt x="409" y="-5" on="0"/>
        <pt x="394" y="-6" on="0"/>
        <pt x="393" y="-6" on="1"/>
        <pt x="374" y="-6" on="0"/>
        <pt x="374" y="15" on="1"/>
        <pt x="374" y="36" on="0"/>
        <pt x="393" y="41" on="1"/>
        <pt x="399" y="42" on="0"/>
        <pt x="435" y="47" on="1"/>
        <pt x="458" y="51" on="0"/>
        <pt x="458" y="70" on="1"/>
        <pt x="458" y="72" on="1"/>
        <pt x="458" y="82" on="0"/>
        <pt x="386" y="196" on="1"/>
        <pt x="350" y="253" on="0"/>
        <pt x="326" y="292" on="1"/>
        <pt x="326" y="295" on="0"/>
        <pt x="323" y="295" on="1"/>
        <pt x="319" y="295" on="0"/>
        <pt x="182" y="97" on="1"/>
        <pt x="171" y="82" on="0"/>
        <pt x="171" y="71" on="1"/>
        <pt x="171" y="56" on="0"/>
        <pt x="192" y="47" on="0"/>
        <pt x="224" y="44" on="1"/>
        <pt x="230" y="43" on="0"/>
        <pt x="234" y="43" on="1"/>
        <pt x="262" y="38" on="0"/>
        <pt x="262" y="-6" on="0"/>
        <pt x="244" y="-6" on="1"/>
        <pt x="243" y="-6" on="0"/>
        <pt x="231" y="-5" on="0"/>
        <pt x="209" y="-3" on="0"/>
        <pt x="183" y="-1" on="0"/>
        <pt x="149" y="0" on="0"/>
        <pt x="132" y="0" on="1"/>
        <pt x="105" y="0" on="0"/>
        <pt x="52" y="-3" on="0"/>
        <pt x="36" y="-4" on="1"/>
        <pt x="20" y="-6" on="1"/>
        <pt x="5" y="-6" on="0"/>
        <pt x="5" y="13" on="1"/>
        <pt x="5" y="18" on="0"/>
        <pt x="6" y="25" on="0"/>
        <pt x="6" y="30" on="0"/>
        <pt x="10" y="35" on="0"/>
        <pt x="11" y="38" on="0"/>
        <pt x="18" y="40" on="0"/>
        <pt x="21" y="42" on="0"/>
        <pt x="31" y="44" on="0"/>
        <pt x="36" y="45" on="0"/>
        <pt x="51" y="47" on="0"/>
        <pt x="55" y="48" on="1"/>
        <pt x="62" y="49" on="0"/>
        <pt x="74" y="53" on="0"/>
        <pt x="83" y="57" on="0"/>
        <pt x="94" y="66" on="0"/>
        <pt x="100" y="71" on="0"/>
        <pt x="113" y="87" on="0"/>
        <pt x="119" y="95" on="0"/>
        <pt x="136" y="120" on="0"/>
        <pt x="141" y="127" on="1"/>
        <pt x="292" y="338" on="0"/>
        <pt x="292" y="341" on="1"/>
        <pt x="292" y="345" on="0"/>
        <pt x="129" y="605" on="1"/>
        <pt x="107" y="640" on="0"/>
        <pt x="81" y="653" on="0"/>
        <pt x="44" y="656" on="1"/>
        <pt x="18" y="658" on="0"/>
        <pt x="18" y="683" on="1"/>
        <pt x="18" y="706" on="0"/>
        <pt x="39" y="706" on="1"/>
        <pt x="42" y="706" on="0"/>
        <pt x="72" y="704" on="0"/>
        <pt x="126" y="702" on="0"/>
        <pt x="157" y="702" on="1"/>
      </contour>
    </TTGlyph>
    <TTGlyph name="Y" xMin="11" yMin="-6" xMax="675" yMax="706">
      <contour>
        <pt x="485" y="657" on="1"/>
        <pt x="469" y="658" on="0"/>
        <pt x="453" y="660" on="0"/>
        <pt x="439" y="673" on="0"/>
        <pt x="439" y="685" on="1"/>
        <pt x="439" y="692" on="0"/>
        <pt x="450" y="706" on="0"/>
        <pt x="461" y="706" on="1"/>
        <pt x="463" y="706" on="0"/>
        <pt x="487" y="704" on="0"/>
        <pt x="528" y="702" on="0"/>
        <pt x="552" y="702" on="1"/>
        <pt x="555" y="702" on="1"/>
        <pt x="579" y="702" on="0"/>
        <pt x="621" y="704" on="0"/>
        <pt x="643" y="706" on="0"/>
        <pt x="646" y="706" on="1"/>
        <pt x="661" y="706" on="0"/>
        <pt x="675" y="693" on="0"/>
        <pt x="675" y="685" on="1"/>
        <pt x="675" y="675" on="0"/>
        <pt x="660" y="662" on="0"/>
        <pt x="632" y="642" on="0"/>
        <pt x="622" y="629" on="1"/>
        <pt x="473" y="437" on="1"/>
        <pt x="456" y="414" on="0"/>
        <pt x="421" y="367" on="0"/>
        <pt x="403" y="342" on="0"/>
        <pt x="384" y="318" on="0"/>
        <pt x="377" y="306" on="0"/>
        <pt x="369" y="295" on="0"/>
        <pt x="368" y="285" on="0"/>
        <pt x="367" y="278" on="0"/>
        <pt x="367" y="271" on="1"/>
        <pt x="367" y="72" on="1"/>
        <pt x="367" y="57" on="0"/>
        <pt x="389" y="50" on="0"/>
        <pt x="439" y="48" on="1"/>
        <pt x="464" y="47" on="0"/>
        <pt x="479" y="46" on="1"/>
        <pt x="502" y="45" on="0"/>
        <pt x="502" y="22" on="1"/>
        <pt x="502" y="13" on="1"/>
        <pt x="502" y="-6" on="0"/>
        <pt x="485" y="-6" on="1"/>
        <pt x="464" y="-4" on="1"/>
        <pt x="444" y="-3" on="0"/>
        <pt x="375" y="0" on="0"/>
        <pt x="341" y="0" on="1"/>
        <pt x="319" y="0" on="0"/>
        <pt x="274" y="-1" on="0"/>
        <pt x="240" y="-3" on="0"/>
        <pt x="213" y="-5" on="0"/>
        <pt x="197" y="-6" on="0"/>
        <pt x="196" y="-6" on="1"/>
        <pt x="170" y="-6" on="0"/>
        <pt x="170" y="23" on="1"/>
        <pt x="170" y="27" on="0"/>
        <pt x="171" y="34" on="0"/>
        <pt x="172" y="39" on="0"/>
        <pt x="177" y="42" on="0"/>
        <pt x="180" y="44" on="0"/>
        <pt x="189" y="46" on="0"/>
        <pt x="196" y="47" on="0"/>
        <pt x="209" y="47" on="0"/>
        <pt x="222" y="48" on="0"/>
        <pt x="241" y="48" on="0"/>
        <pt x="250" y="49" on="1"/>
        <pt x="254" y="50" on="1"/>
        <pt x="259" y="50" on="0"/>
        <pt x="260" y="50" on="0"/>
        <pt x="267" y="51" on="0"/>
        <pt x="269" y="52" on="0"/>
        <pt x="275" y="54" on="0"/>
        <pt x="276" y="58" on="0"/>
        <pt x="279" y="62" on="0"/>
        <pt x="280" y="68" on="0"/>
        <pt x="280" y="72" on="1"/>
        <pt x="280" y="284" on="1"/>
        <pt x="280" y="293" on="0"/>
        <pt x="276" y="308" on="0"/>
        <pt x="274" y="314" on="0"/>
        <pt x="261" y="336" on="0"/>
        <pt x="258" y="340" on="1"/>
        <pt x="164" y="491" on="0"/>
        <pt x="95" y="602" on="1"/>
        <pt x="72" y="638" on="0"/>
        <pt x="70" y="642" on="1"/>
        <pt x="60" y="655" on="0"/>
        <pt x="20" y="658" on="0"/>
        <pt x="15" y="669" on="1"/>
        <pt x="11" y="675" on="0"/>
        <pt x="11" y="683" on="1"/>
        <pt x="11" y="692" on="0"/>
        <pt x="24" y="706" on="0"/>
        <pt x="37" y="706" on="1"/>
        <pt x="40" y="706" on="0"/>
        <pt x="69" y="704" on="0"/>
        <pt x="120" y="702" on="0"/>
        <pt x="180" y="702" on="0"/>
        <pt x="230" y="704" on="0"/>
        <pt x="258" y="706" on="0"/>
        <pt x="261" y="706" on="1"/>
        <pt x="280" y="706" on="0"/>
        <pt x="280" y="685" on="1"/>
        <pt x="280" y="680" on="0"/>
        <pt x="279" y="672" on="0"/>
        <pt x="276" y="666" on="0"/>
        <pt x="273" y="662" on="0"/>
        <pt x="265" y="659" on="0"/>
        <pt x="260" y="658" on="0"/>
        <pt x="247" y="656" on="0"/>
        <pt x="238" y="656" on="0"/>
        <pt x="220" y="655" on="0"/>
        <pt x="213" y="654" on="1"/>
        <pt x="186" y="651" on="0"/>
        <pt x="186" y="631" on="1"/>
        <pt x="186" y="629" on="1"/>
        <pt x="186" y="622" on="0"/>
        <pt x="235" y="538" on="1"/>
        <pt x="287" y="447" on="0"/>
        <pt x="332" y="370" on="1"/>
        <pt x="341" y="355" on="0"/>
        <pt x="346" y="355" on="1"/>
        <pt x="348" y="355" on="0"/>
        <pt x="354" y="361" on="1"/>
        <pt x="502" y="565" on="0"/>
        <pt x="516" y="588" on="1"/>
        <pt x="534" y="620" on="0"/>
        <pt x="534" y="631" on="1"/>
        <pt x="534" y="647" on="0"/>
        <pt x="516" y="656" on="0"/>
        <pt x="492" y="657" on="1"/>
        <pt x="487" y="657" on="0"/>
      </contour>
    </TTGlyph>
    <TTGlyph name="Yacute" xMin="11" yMin="-6" xMax="675" yMax="919">
      <component glyphName="Y" x="0" y="0" flags="0x1004"/>
      <component glyphName="acute.cap" x="248" y="-2" flags="0x1004"/>
    </TTGlyph>
    <TTGlyph name="Ycircumflex" xMin="11" yMin="-6" xMax="675" yMax="900">
      <component glyphName="Y" x="0" y="0" flags="0x1004"/>
      <component glyphName="circumflex.cap" x="217" y="-4" flags="0x1004"/>
    </TTGlyph>
    <TTGlyph name="Ydieresis" xMin="11" yMin="-6" xMax="675" yMax="842">
      <component glyphName="Y" x="0" y="0" flags="0x1004"/>
      <component glyphName="dieresis" x="225" y="161" flags="0x1004"/>
    </TTGlyph>
    <TTGlyph name="Z" xMin="16" yMin="0" xMax="635" yMax="743">
      <contour>
        <pt x="16" y="523" on="1"/>
        <pt x="16" y="527" on="0"/>
        <pt x="20" y="567" on="0"/>
        <pt x="25" y="637" on="0"/>
        <pt x="25" y="677" on="1"/>
        <pt x="25" y="715" on="1"/>
        <pt x="25" y="743" on="0"/>
        <pt x="46" y="743" on="1"/>
        <pt x="62" y="743" on="0"/>
        <pt x="73" y="719" on="1"/>
        <pt x="82" y="691" on="0"/>
        <pt x="129" y="691" on="1"/>
        <pt x="575" y="691" on="1"/>
        <pt x="600" y="691" on="0"/>
        <pt x="600" y="673" on="1"/>
        <pt x="600" y="665" on="0"/>
        <pt x="547" y="595" on="1"/>
        <pt x="523" y="564" on="0"/>
        <pt x="508" y="544" on="1"/>
        <pt x="359" y="357" on="1"/>
        <pt x="246" y="219" on="0"/>
        <pt x="196" y="130" on="1"/>
        <pt x="190" y="121" on="0"/>
        <pt x="190" y="115" on="1"/>
        <pt x="190" y="99" on="0"/>
        <pt x="227" y="90" on="0"/>
        <pt x="293" y="86" on="1"/>
        <pt x="342" y="83" on="0"/>
        <pt x="393" y="83" on="1"/>
        <pt x="415" y="83" on="1"/>
        <pt x="482" y="83" on="0"/>
        <pt x="548" y="104" on="0"/>
        <pt x="566" y="145" on="1"/>
        <pt x="572" y="161" on="0"/>
        <pt x="588" y="246" on="0"/>
        <pt x="591" y="252" on="1"/>
        <pt x="598" y="262" on="0"/>
        <pt x="610" y="262" on="1"/>
        <pt x="618" y="262" on="0"/>
        <pt x="635" y="247" on="0"/>
        <pt x="635" y="233" on="1"/>
        <pt x="635" y="232" on="1"/>
        <pt x="635" y="213" on="0"/>
        <pt x="631" y="181" on="0"/>
        <pt x="625" y="141" on="0"/>
        <pt x="623" y="126" on="1"/>
        <pt x="622" y="111" on="0"/>
        <pt x="619" y="61" on="0"/>
        <pt x="616" y="40" on="0"/>
        <pt x="609" y="13" on="0"/>
        <pt x="595" y="1" on="0"/>
        <pt x="583" y="0" on="1"/>
        <pt x="47" y="0" on="1"/>
        <pt x="45" y="0" on="1"/>
        <pt x="16" y="0" on="0"/>
        <pt x="16" y="22" on="1"/>
        <pt x="16" y="30" on="0"/>
        <pt x="25" y="41" on="1"/>
        <pt x="229" y="329" on="0"/>
        <pt x="457" y="581" on="1"/>
        <pt x="471" y="597" on="0"/>
        <pt x="471" y="603" on="1"/>
        <pt x="471" y="614" on="0"/>
        <pt x="457" y="614" on="1"/>
        <pt x="126" y="614" on="1"/>
        <pt x="117" y="614" on="0"/>
        <pt x="105" y="613" on="0"/>
        <pt x="94" y="609" on="0"/>
        <pt x="87" y="607" on="0"/>
        <pt x="80" y="595" on="0"/>
        <pt x="76" y="590" on="0"/>
        <pt x="70" y="570" on="0"/>
        <pt x="68" y="559" on="0"/>
        <pt x="60" y="529" on="0"/>
        <pt x="58" y="520" on="1"/>
        <pt x="52" y="498" on="0"/>
        <pt x="37" y="498" on="1"/>
        <pt x="29" y="498" on="0"/>
        <pt x="16" y="510" on="0"/>
      </contour>
    </TTGlyph>
    <TTGlyph name="Zacute" xMin="16" yMin="0" xMax="635" yMax="927">
      <component glyphName="acute.cap" x="181" y="6" flags="0x1004"/>
      <component glyphName="Z" x="0" y="0" flags="0x1004"/>
    </TTGlyph>
    <TTGlyph name="Zcaron" xMin="16" yMin="0" xMax="635" yMax="908">
      <component glyphName="caron.cap" x="186" y="4" flags="0x1004"/>
      <component glyphName="Z" x="0" y="0" flags="0x1004"/>
    </TTGlyph>
    <TTGlyph name="Zdotaccent" xMin="16" yMin="0" xMax="635" yMax="899">
      <component glyphName="dotaccent" x="251" y="294" flags="0x1004"/>
      <component glyphName="Z" x="0" y="0" flags="0x1004"/>
    </TTGlyph>
    <TTGlyph name="a" xMin="30" yMin="-20" xMax="427" yMax="444">
      <contour>
        <pt x="30" y="353" on="1"/>
        <pt x="30" y="383" on="0"/>
        <pt x="127" y="444" on="0"/>
        <pt x="187" y="444" on="1"/>
        <pt x="206" y="444" on="0"/>
        <pt x="246" y="436" on="0"/>
        <pt x="297" y="416" on="0"/>
        <pt x="332" y="367" on="0"/>
        <pt x="336" y="332" on="1"/>
        <pt x="338" y="308" on="0"/>
        <pt x="338" y="295" on="1"/>
        <pt x="338" y="93" on="1"/>
        <pt x="338" y="75" on="0"/>
        <pt x="352" y="53" on="0"/>
        <pt x="366" y="48" on="0"/>
        <pt x="373" y="48" on="1"/>
        <pt x="387" y="48" on="0"/>
        <pt x="403" y="65" on="0"/>
        <pt x="412" y="82" on="0"/>
        <pt x="418" y="82" on="1"/>
        <pt x="427" y="82" on="0"/>
        <pt x="427" y="69" on="1"/>
        <pt x="427" y="45" on="0"/>
        <pt x="383" y="-12" on="0"/>
        <pt x="348" y="-12" on="1"/>
        <pt x="335" y="-12" on="0"/>
        <pt x="311" y="-4" on="0"/>
        <pt x="295" y="9" on="0"/>
        <pt x="282" y="21" on="0"/>
        <pt x="278" y="26" on="1"/>
        <pt x="275" y="30" on="1"/>
        <pt x="274" y="30" on="0"/>
        <pt x="274" y="31" on="0"/>
        <pt x="273" y="31" on="1"/>
        <pt x="271" y="31" on="0"/>
        <pt x="269" y="27" on="0"/>
        <pt x="257" y="15" on="0"/>
        <pt x="246" y="8" on="1"/>
        <pt x="201" y="-20" on="0"/>
        <pt x="151" y="-20" on="1"/>
        <pt x="99" y="-20" on="0"/>
        <pt x="34" y="46" on="0"/>
        <pt x="34" y="94" on="1"/>
        <pt x="34" y="95" on="1"/>
        <pt x="34" y="153" on="0"/>
        <pt x="77" y="186" on="1"/>
        <pt x="92" y="198" on="0"/>
        <pt x="140" y="217" on="0"/>
        <pt x="187" y="227" on="0"/>
        <pt x="229" y="234" on="0"/>
        <pt x="243" y="235" on="1"/>
        <pt x="257" y="236" on="1"/>
        <pt x="265" y="238" on="0"/>
        <pt x="265" y="250" on="1"/>
        <pt x="265" y="287" on="1"/>
        <pt x="265" y="340" on="0"/>
        <pt x="241" y="369" on="1"/>
        <pt x="216" y="396" on="0"/>
        <pt x="181" y="396" on="1"/>
        <pt x="127" y="396" on="0"/>
        <pt x="93" y="328" on="1"/>
        <pt x="84" y="316" on="0"/>
        <pt x="71" y="316" on="1"/>
        <pt x="55" y="316" on="0"/>
        <pt x="30" y="336" on="0"/>
      </contour>
      <contour>
        <pt x="175" y="36" on="1"/>
        <pt x="198" y="36" on="0"/>
        <pt x="239" y="56" on="0"/>
        <pt x="255" y="72" on="0"/>
        <pt x="260" y="78" on="1"/>
        <pt x="266" y="86" on="0"/>
        <pt x="266" y="101" on="1"/>
        <pt x="266" y="126" on="1"/>
        <pt x="266" y="168" on="1"/>
        <pt x="266" y="187" on="0"/>
        <pt x="263" y="198" on="0"/>
        <pt x="256" y="198" on="1"/>
        <pt x="231" y="198" on="0"/>
        <pt x="156" y="182" on="0"/>
        <pt x="134" y="161" on="1"/>
        <pt x="110" y="141" on="0"/>
        <pt x="110" y="105" on="1"/>
        <pt x="110" y="67" on="0"/>
        <pt x="131" y="49" on="1"/>
        <pt x="145" y="36" on="0"/>
      </contour>
    </TTGlyph>
    <TTGlyph name="aacute" xMin="30" yMin="-20" xMax="427" yMax="718">
      <component glyphName="acute" x="113" y="0" flags="0x1004"/>
      <component glyphName="a" x="0" y="0" flags="0x1004"/>
    </TTGlyph>
    <TTGlyph name="abreve" xMin="30" yMin="-20" xMax="427" yMax="650">
      <component glyphName="breve" x="48" y="-8" flags="0x1004"/>
      <component glyphName="a" x="0" y="0" flags="0x1004"/>
    </TTGlyph>
    <TTGlyph name="acircumflex" xMin="30" yMin="-20" xMax="427" yMax="712">
      <component glyphName="circumflex" x="78" y="-5" flags="0x1004"/>
      <component glyphName="a" x="0" y="0" flags="0x1004"/>
    </TTGlyph>
    <TTGlyph name="acute" xMin="15" yMin="485" xMax="217" yMax="718">
      <contour>
        <pt x="179" y="718" on="1"/>
        <pt x="195" y="718" on="0"/>
        <pt x="217" y="697" on="0"/>
        <pt x="217" y="680" on="1"/>
        <pt x="217" y="660" on="0"/>
        <pt x="193" y="634" on="1"/>
        <pt x="59" y="497" on="0"/>
        <pt x="50" y="490" on="1"/>
        <pt x="43" y="485" on="0"/>
        <pt x="35" y="485" on="1"/>
        <pt x="26" y="485" on="0"/>
        <pt x="15" y="498" on="0"/>
        <pt x="15" y="506" on="1"/>
        <pt x="15" y="516" on="0"/>
        <pt x="61" y="584" on="1"/>
        <pt x="96" y="635" on="0"/>
        <pt x="123" y="675" on="1"/>
        <pt x="151" y="718" on="0"/>
      </contour>
    </TTGlyph>
    <TTGlyph name="acute.cap" xMin="17" yMin="748" xMax="271" yMax="921">
      <contour>
        <pt x="230" y="921" on="1"/>
        <pt x="247" y="921" on="0"/>
        <pt x="271" y="900" on="0"/>
        <pt x="271" y="884" on="1"/>
        <pt x="271" y="880" on="0"/>
        <pt x="269" y="871" on="0"/>
        <pt x="267" y="865" on="0"/>
        <pt x="262" y="858" on="0"/>
        <pt x="258" y="854" on="0"/>
        <pt x="252" y="849" on="0"/>
        <pt x="248" y="846" on="0"/>
        <pt x="240" y="842" on="0"/>
        <pt x="237" y="840" on="0"/>
        <pt x="230" y="836" on="0"/>
        <pt x="229" y="836" on="1"/>
        <pt x="44" y="748" on="0"/>
        <pt x="38" y="748" on="1"/>
        <pt x="30" y="748" on="0"/>
        <pt x="17" y="759" on="0"/>
        <pt x="17" y="768" on="1"/>
        <pt x="17" y="782" on="0"/>
        <pt x="37" y="795" on="1"/>
        <pt x="178" y="897" on="1"/>
        <pt x="209" y="921" on="0"/>
      </contour>
    </TTGlyph>
    <TTGlyph name="adieresis" xMin="30" yMin="-20" xMax="427" yMax="681">
      <component glyphName="dieresis" x="57" y="0" flags="0x1004"/>
      <component glyphName="a" x="0" y="0" flags="0x1004"/>
    </TTGlyph>
    <TTGlyph name="ae" xMin="29" yMin="-23" xMax="653" yMax="442">
      <contour>
        <pt x="434" y="385" on="1"/>
        <pt x="390" y="385" on="0"/>
        <pt x="336" y="306" on="0"/>
        <pt x="336" y="239" on="1"/>
        <pt x="336" y="231" on="0"/>
        <pt x="341" y="231" on="1"/>
        <pt x="343" y="231" on="0"/>
        <pt x="530" y="303" on="0"/>
        <pt x="534" y="305" on="1"/>
        <pt x="542" y="309" on="0"/>
        <pt x="542" y="317" on="1"/>
        <pt x="542" y="331" on="0"/>
        <pt x="471" y="385" on="0"/>
      </contour>
      <contour>
        <pt x="109" y="103" on="1"/>
        <pt x="109" y="75" on="0"/>
        <pt x="138" y="33" on="0"/>
        <pt x="173" y="33" on="1"/>
        <pt x="212" y="33" on="0"/>
        <pt x="241" y="57" on="1"/>
        <pt x="258" y="70" on="0"/>
        <pt x="265" y="88" on="0"/>
        <pt x="265" y="118" on="1"/>
        <pt x="265" y="147" on="1"/>
        <pt x="265" y="182" on="0"/>
        <pt x="262" y="196" on="0"/>
        <pt x="255" y="196" on="1"/>
        <pt x="253" y="196" on="1"/>
        <pt x="109" y="186" on="0"/>
      </contour>
      <contour>
        <pt x="458" y="442" on="1"/>
        <pt x="523" y="442" on="0"/>
        <pt x="642" y="350" on="0"/>
        <pt x="642" y="321" on="1"/>
        <pt x="642" y="319" on="1"/>
        <pt x="642" y="310" on="0"/>
        <pt x="631" y="296" on="0"/>
        <pt x="609" y="285" on="0"/>
        <pt x="593" y="279" on="0"/>
        <pt x="562" y="269" on="0"/>
        <pt x="558" y="268" on="1"/>
        <pt x="350" y="196" on="0"/>
        <pt x="345" y="193" on="1"/>
        <pt x="341" y="191" on="0"/>
        <pt x="341" y="187" on="1"/>
        <pt x="341" y="181" on="0"/>
        <pt x="347" y="153" on="0"/>
        <pt x="368" y="107" on="0"/>
        <pt x="399" y="68" on="0"/>
        <pt x="457" y="39" on="0"/>
        <pt x="493" y="39" on="1"/>
        <pt x="562" y="39" on="0"/>
        <pt x="614" y="89" on="1"/>
        <pt x="625" y="103" on="0"/>
        <pt x="638" y="103" on="1"/>
        <pt x="653" y="103" on="0"/>
        <pt x="653" y="89" on="1"/>
        <pt x="653" y="81" on="0"/>
        <pt x="647" y="72" on="1"/>
        <pt x="613" y="28" on="0"/>
        <pt x="516" y="-19" on="0"/>
        <pt x="465" y="-19" on="1"/>
        <pt x="435" y="-19" on="0"/>
        <pt x="382" y="-4" on="0"/>
        <pt x="348" y="18" on="0"/>
        <pt x="324" y="40" on="0"/>
        <pt x="311" y="55" on="0"/>
        <pt x="309" y="55" on="0"/>
        <pt x="291" y="39" on="0"/>
        <pt x="262" y="16" on="0"/>
        <pt x="225" y="-7" on="0"/>
        <pt x="175" y="-23" on="0"/>
        <pt x="150" y="-23" on="1"/>
        <pt x="99" y="-23" on="0"/>
        <pt x="33" y="44" on="0"/>
        <pt x="33" y="92" on="1"/>
        <pt x="33" y="93" on="1"/>
        <pt x="33" y="151" on="0"/>
        <pt x="76" y="184" on="1"/>
        <pt x="100" y="203" on="0"/>
        <pt x="190" y="228" on="0"/>
        <pt x="223" y="230" on="1"/>
        <pt x="256" y="233" on="1"/>
        <pt x="264" y="235" on="0"/>
        <pt x="264" y="256" on="1"/>
        <pt x="264" y="285" on="1"/>
        <pt x="264" y="338" on="0"/>
        <pt x="240" y="367" on="1"/>
        <pt x="216" y="394" on="0"/>
        <pt x="180" y="394" on="1"/>
        <pt x="166" y="394" on="0"/>
        <pt x="141" y="384" on="0"/>
        <pt x="124" y="371" on="0"/>
        <pt x="108" y="353" on="0"/>
        <pt x="100" y="340" on="0"/>
        <pt x="96" y="333" on="1"/>
        <pt x="92" y="326" on="1"/>
        <pt x="82" y="314" on="0"/>
        <pt x="69" y="314" on="1"/>
        <pt x="54" y="314" on="0"/>
        <pt x="29" y="335" on="0"/>
        <pt x="29" y="351" on="1"/>
        <pt x="29" y="381" on="0"/>
        <pt x="124" y="442" on="0"/>
        <pt x="187" y="442" on="1"/>
        <pt x="223" y="442" on="0"/>
        <pt x="277" y="424" on="0"/>
        <pt x="301" y="402" on="0"/>
        <pt x="319" y="384" on="0"/>
        <pt x="327" y="384" on="0"/>
        <pt x="332" y="389" on="1"/>
        <pt x="389" y="442" on="0"/>
      </contour>
    </TTGlyph>
    <TTGlyph name="agrave" xMin="30" yMin="-20" xMax="427" yMax="718">
      <component glyphName="a" x="0" y="0" flags="0x1004"/>
      <component glyphName="grave" x="38" y="0" flags="0x1004"/>
    </TTGlyph>
    <TTGlyph name="ampersand" xMin="31" yMin="-24" xMax="828" yMax="732">
      <contour>
        <pt x="102" y="432" on="1"/>
        <pt x="102" y="435" on="0"/>
        <pt x="80" y="462" on="0"/>
        <pt x="59" y="512" on="0"/>
        <pt x="59" y="542" on="1"/>
        <pt x="59" y="611" on="0"/>
        <pt x="168" y="718" on="0"/>
        <pt x="239" y="718" on="1"/>
        <pt x="261" y="718" on="0"/>
        <pt x="307" y="708" on="0"/>
        <pt x="348" y="678" on="0"/>
        <pt x="348" y="655" on="1"/>
        <pt x="348" y="635" on="0"/>
        <pt x="320" y="609" on="0"/>
        <pt x="302" y="609" on="1"/>
        <pt x="281" y="609" on="0"/>
        <pt x="236" y="660" on="0"/>
        <pt x="213" y="660" on="1"/>
        <pt x="176" y="660" on="0"/>
        <pt x="104" y="593" on="0"/>
        <pt x="104" y="542" on="1"/>
        <pt x="104" y="512" on="0"/>
        <pt x="133" y="457" on="0"/>
        <pt x="144" y="457" on="1"/>
        <pt x="146" y="457" on="0"/>
        <pt x="178" y="470" on="0"/>
        <pt x="230" y="484" on="0"/>
        <pt x="257" y="484" on="1"/>
        <pt x="295" y="484" on="0"/>
        <pt x="346" y="453" on="0"/>
        <pt x="346" y="401" on="0"/>
        <pt x="292" y="369" on="0"/>
        <pt x="252" y="369" on="1"/>
        <pt x="251" y="369" on="1"/>
        <pt x="226" y="369" on="0"/>
        <pt x="181" y="381" on="0"/>
        <pt x="155" y="393" on="0"/>
        <pt x="153" y="393" on="1"/>
        <pt x="150" y="393" on="0"/>
        <pt x="145" y="389" on="0"/>
        <pt x="142" y="385" on="0"/>
        <pt x="140" y="383" on="1"/>
        <pt x="139" y="381" on="1"/>
        <pt x="112" y="332" on="0"/>
        <pt x="112" y="274" on="1"/>
        <pt x="112" y="238" on="0"/>
        <pt x="138" y="169" on="0"/>
        <pt x="193" y="102" on="0"/>
        <pt x="298" y="58" on="0"/>
        <pt x="368" y="55" on="1"/>
        <pt x="386" y="55" on="1"/>
        <pt x="445" y="55" on="0"/>
        <pt x="533" y="89" on="0"/>
        <pt x="579" y="145" on="0"/>
        <pt x="600" y="203" on="0"/>
        <pt x="600" y="232" on="1"/>
        <pt x="600" y="285" on="0"/>
        <pt x="542" y="355" on="0"/>
        <pt x="494" y="355" on="1"/>
        <pt x="450" y="355" on="0"/>
        <pt x="383" y="295" on="0"/>
        <pt x="383" y="257" on="1"/>
        <pt x="383" y="231" on="0"/>
        <pt x="416" y="194" on="0"/>
        <pt x="442" y="194" on="1"/>
        <pt x="453" y="194" on="0"/>
        <pt x="479" y="204" on="0"/>
        <pt x="479" y="211" on="1"/>
        <pt x="479" y="215" on="0"/>
        <pt x="471" y="219" on="0"/>
        <pt x="460" y="221" on="0"/>
        <pt x="446" y="229" on="0"/>
        <pt x="441" y="236" on="1"/>
        <pt x="434" y="246" on="0"/>
        <pt x="434" y="258" on="1"/>
        <pt x="434" y="273" on="0"/>
        <pt x="457" y="295" on="0"/>
        <pt x="474" y="295" on="1"/>
        <pt x="497" y="295" on="0"/>
        <pt x="534" y="261" on="0"/>
        <pt x="534" y="236" on="1"/>
        <pt x="534" y="205" on="0"/>
        <pt x="482" y="158" on="0"/>
        <pt x="445" y="158" on="1"/>
        <pt x="404" y="158" on="0"/>
        <pt x="346" y="218" on="0"/>
        <pt x="346" y="261" on="1"/>
        <pt x="346" y="301" on="0"/>
        <pt x="399" y="374" on="0"/>
        <pt x="445" y="397" on="1"/>
        <pt x="492" y="420" on="0"/>
        <pt x="667" y="448" on="0"/>
        <pt x="698" y="462" on="1"/>
        <pt x="735" y="478" on="0"/>
        <pt x="786" y="541" on="0"/>
        <pt x="786" y="584" on="1"/>
        <pt x="786" y="631" on="0"/>
        <pt x="727" y="693" on="0"/>
        <pt x="689" y="693" on="1"/>
        <pt x="658" y="693" on="0"/>
        <pt x="658" y="684" on="1"/>
        <pt x="666" y="673" on="1"/>
        <pt x="675" y="662" on="0"/>
        <pt x="675" y="648" on="1"/>
        <pt x="675" y="630" on="0"/>
        <pt x="651" y="606" on="0"/>
        <pt x="633" y="606" on="1"/>
        <pt x="613" y="606" on="0"/>
        <pt x="587" y="635" on="0"/>
        <pt x="587" y="656" on="1"/>
        <pt x="587" y="688" on="0"/>
        <pt x="641" y="732" on="0"/>
        <pt x="677" y="732" on="1"/>
        <pt x="735" y="732" on="0"/>
        <pt x="828" y="634" on="0"/>
        <pt x="828" y="561" on="1"/>
        <pt x="828" y="479" on="0"/>
        <pt x="701" y="362" on="0"/>
        <pt x="614" y="360" on="1"/>
        <pt x="599" y="360" on="0"/>
        <pt x="599" y="352" on="1"/>
        <pt x="599" y="351" on="0"/>
        <pt x="616" y="323" on="0"/>
        <pt x="634" y="269" on="0"/>
        <pt x="634" y="238" on="1"/>
        <pt x="634" y="236" on="1"/>
        <pt x="634" y="132" on="0"/>
        <pt x="454" y="-24" on="0"/>
        <pt x="329" y="-24" on="1"/>
        <pt x="203" y="-24" on="0"/>
        <pt x="31" y="139" on="0"/>
        <pt x="31" y="251" on="1"/>
        <pt x="31" y="281" on="0"/>
        <pt x="44" y="337" on="0"/>
        <pt x="64" y="377" on="0"/>
        <pt x="83" y="405" on="0"/>
        <pt x="92" y="414" on="1"/>
        <pt x="100" y="424" on="1"/>
        <pt x="102" y="428" on="0"/>
        <pt x="102" y="431" on="1"/>
      </contour>
      <contour>
        <pt x="267" y="401" on="1"/>
        <pt x="310" y="401" on="0"/>
        <pt x="310" y="425" on="1"/>
        <pt x="310" y="451" on="0"/>
        <pt x="266" y="451" on="1"/>
        <pt x="242" y="451" on="0"/>
        <pt x="201" y="443" on="0"/>
        <pt x="180" y="432" on="0"/>
        <pt x="180" y="427" on="1"/>
        <pt x="180" y="424" on="0"/>
        <pt x="183" y="421" on="1"/>
        <pt x="211" y="401" on="0"/>
      </contour>
    </TTGlyph>
    <TTGlyph name="aring" xMin="30" yMin="-20" xMax="427" yMax="666">
      <component glyphName="ring" x="87" y="0" flags="0x1004"/>
      <component glyphName="a" x="0" y="0" flags="0x1004"/>
    </TTGlyph>
    <TTGlyph name="asciicircum" xMin="52" yMin="471" xMax="382" yMax="733">
      <contour>
        <pt x="75" y="473" on="1"/>
        <pt x="65" y="473" on="0"/>
        <pt x="52" y="487" on="0"/>
        <pt x="52" y="496" on="1"/>
        <pt x="52" y="504" on="0"/>
        <pt x="59" y="516" on="1"/>
        <pt x="169" y="702" on="0"/>
        <pt x="178" y="714" on="1"/>
        <pt x="187" y="725" on="0"/>
        <pt x="199" y="730" on="1"/>
        <pt x="206" y="733" on="0"/>
        <pt x="214" y="733" on="1"/>
        <pt x="219" y="733" on="0"/>
        <pt x="227" y="730" on="0"/>
        <pt x="234" y="727" on="0"/>
        <pt x="242" y="720" on="0"/>
        <pt x="247" y="716" on="0"/>
        <pt x="255" y="706" on="0"/>
        <pt x="257" y="703" on="0"/>
        <pt x="264" y="692" on="0"/>
        <pt x="265" y="691" on="1"/>
        <pt x="297" y="641" on="0"/>
        <pt x="336" y="578" on="1"/>
        <pt x="382" y="506" on="0"/>
        <pt x="382" y="495" on="1"/>
        <pt x="382" y="485" on="0"/>
        <pt x="367" y="471" on="0"/>
        <pt x="357" y="471" on="1"/>
        <pt x="352" y="471" on="0"/>
        <pt x="341" y="476" on="0"/>
        <pt x="333" y="481" on="0"/>
        <pt x="323" y="492" on="0"/>
        <pt x="318" y="498" on="0"/>
        <pt x="307" y="512" on="0"/>
        <pt x="306" y="514" on="1"/>
        <pt x="225" y="617" on="0"/>
        <pt x="224" y="619" on="1"/>
        <pt x="221" y="621" on="0"/>
        <pt x="217" y="621" on="1"/>
        <pt x="216" y="621" on="1"/>
        <pt x="211" y="620" on="0"/>
        <pt x="189" y="594" on="1"/>
        <pt x="183" y="586" on="0"/>
        <pt x="163" y="562" on="1"/>
        <pt x="139" y="532" on="0"/>
        <pt x="123" y="512" on="1"/>
        <pt x="120" y="509" on="0"/>
        <pt x="110" y="496" on="0"/>
        <pt x="104" y="490" on="0"/>
        <pt x="95" y="481" on="0"/>
        <pt x="89" y="476" on="0"/>
        <pt x="80" y="473" on="0"/>
      </contour>
    </TTGlyph>
    <TTGlyph name="asciitilde" xMin="25" yMin="177" xMax="437" yMax="324">
      <contour>
        <pt x="41" y="177" on="1"/>
        <pt x="37" y="177" on="0"/>
        <pt x="25" y="193" on="0"/>
        <pt x="25" y="198" on="1"/>
        <pt x="25" y="200" on="0"/>
        <pt x="45" y="234" on="0"/>
        <pt x="75" y="278" on="0"/>
        <pt x="85" y="288" on="1"/>
        <pt x="114" y="319" on="0"/>
        <pt x="153" y="319" on="1"/>
        <pt x="183" y="319" on="0"/>
        <pt x="276" y="260" on="0"/>
        <pt x="306" y="260" on="1"/>
        <pt x="331" y="260" on="0"/>
        <pt x="376" y="288" on="0"/>
        <pt x="406" y="322" on="0"/>
        <pt x="407" y="322" on="1"/>
        <pt x="411" y="324" on="0"/>
        <pt x="413" y="324" on="1"/>
        <pt x="418" y="324" on="0"/>
        <pt x="437" y="312" on="0"/>
        <pt x="437" y="305" on="1"/>
        <pt x="437" y="302" on="0"/>
        <pt x="422" y="278" on="0"/>
        <pt x="393" y="243" on="0"/>
        <pt x="357" y="210" on="0"/>
        <pt x="308" y="187" on="0"/>
        <pt x="284" y="187" on="1"/>
        <pt x="247" y="187" on="0"/>
        <pt x="162" y="248" on="0"/>
        <pt x="136" y="248" on="1"/>
        <pt x="91" y="248" on="0"/>
        <pt x="48" y="182" on="1"/>
        <pt x="46" y="177" on="0"/>
      </contour>
    </TTGlyph>
    <TTGlyph name="asterisk" xMin="14" yMin="393" xMax="329" yMax="738">
      <contour>
        <pt x="329" y="632" on="1"/>
        <pt x="329" y="613" on="0"/>
        <pt x="281" y="586" on="0"/>
        <pt x="233" y="570" on="0"/>
        <pt x="233" y="565" on="1"/>
        <pt x="233" y="559" on="0"/>
        <pt x="262" y="551" on="0"/>
        <pt x="298" y="543" on="0"/>
        <pt x="327" y="519" on="0"/>
        <pt x="327" y="499" on="1"/>
        <pt x="327" y="482" on="0"/>
        <pt x="303" y="459" on="0"/>
        <pt x="288" y="459" on="1"/>
        <pt x="272" y="459" on="0"/>
        <pt x="238" y="486" on="0"/>
        <pt x="214" y="513" on="0"/>
        <pt x="210" y="513" on="1"/>
        <pt x="203" y="513" on="0"/>
        <pt x="203" y="504" on="1"/>
        <pt x="203" y="490" on="0"/>
        <pt x="212" y="438" on="0"/>
        <pt x="212" y="433" on="1"/>
        <pt x="212" y="412" on="0"/>
        <pt x="182" y="393" on="0"/>
        <pt x="156" y="393" on="0"/>
        <pt x="132" y="413" on="0"/>
        <pt x="132" y="436" on="1"/>
        <pt x="132" y="448" on="0"/>
        <pt x="139" y="492" on="0"/>
        <pt x="139" y="498" on="1"/>
        <pt x="139" y="509" on="0"/>
        <pt x="133" y="509" on="1"/>
        <pt x="128" y="509" on="0"/>
        <pt x="69" y="464" on="0"/>
        <pt x="47" y="464" on="1"/>
        <pt x="30" y="464" on="0"/>
        <pt x="14" y="490" on="0"/>
        <pt x="14" y="500" on="1"/>
        <pt x="14" y="520" on="0"/>
        <pt x="61" y="549" on="0"/>
        <pt x="108" y="566" on="0"/>
        <pt x="108" y="573" on="1"/>
        <pt x="108" y="579" on="0"/>
        <pt x="80" y="589" on="0"/>
        <pt x="45" y="597" on="0"/>
        <pt x="17" y="621" on="0"/>
        <pt x="17" y="639" on="1"/>
        <pt x="17" y="654" on="0"/>
        <pt x="42" y="675" on="0"/>
        <pt x="56" y="675" on="1"/>
        <pt x="74" y="675" on="0"/>
        <pt x="125" y="621" on="0"/>
        <pt x="136" y="621" on="1"/>
        <pt x="141" y="621" on="0"/>
        <pt x="141" y="628" on="1"/>
        <pt x="141" y="632" on="0"/>
        <pt x="132" y="678" on="0"/>
        <pt x="132" y="692" on="1"/>
        <pt x="132" y="738" on="0"/>
        <pt x="173" y="738" on="1"/>
        <pt x="213" y="738" on="0"/>
        <pt x="213" y="691" on="1"/>
        <pt x="213" y="674" on="0"/>
        <pt x="201" y="625" on="0"/>
        <pt x="201" y="624" on="1"/>
        <pt x="201" y="622" on="0"/>
        <pt x="203" y="622" on="1"/>
        <pt x="207" y="622" on="0"/>
        <pt x="268" y="672" on="0"/>
        <pt x="289" y="672" on="1"/>
        <pt x="304" y="672" on="0"/>
        <pt x="329" y="649" on="0"/>
      </contour>
    </TTGlyph>
    <TTGlyph name="at" xMin="90" yMin="-180" xMax="887" yMax="626">
      <contour>
        <pt x="742" y="-73" on="1"/>
        <pt x="755" y="-73" on="0"/>
        <pt x="755" y="-85" on="1"/>
        <pt x="755" y="-102" on="0"/>
        <pt x="671" y="-148" on="0"/>
        <pt x="632" y="-160" on="1"/>
        <pt x="568" y="-180" on="0"/>
        <pt x="494" y="-180" on="1"/>
        <pt x="493" y="-180" on="1"/>
        <pt x="320" y="-179" on="0"/>
        <pt x="90" y="21" on="0"/>
        <pt x="90" y="190" on="1"/>
        <pt x="90" y="191" on="1"/>
        <pt x="90" y="234" on="0"/>
        <pt x="109" y="323" on="0"/>
        <pt x="157" y="432" on="0"/>
        <pt x="260" y="534" on="0"/>
        <pt x="333" y="570" on="1"/>
        <pt x="443" y="626" on="0"/>
        <pt x="555" y="626" on="1"/>
        <pt x="702" y="626" on="0"/>
        <pt x="887" y="439" on="0"/>
        <pt x="887" y="303" on="1"/>
        <pt x="887" y="176" on="0"/>
        <pt x="739" y="-8" on="0"/>
        <pt x="647" y="-8" on="1"/>
        <pt x="620" y="-8" on="0"/>
        <pt x="580" y="8" on="0"/>
        <pt x="561" y="30" on="0"/>
        <pt x="550" y="52" on="0"/>
        <pt x="545" y="68" on="0"/>
        <pt x="544" y="68" on="1"/>
        <pt x="539" y="63" on="1"/>
        <pt x="513" y="31" on="0"/>
        <pt x="441" y="-14" on="0"/>
        <pt x="404" y="-14" on="1"/>
        <pt x="364" y="-14" on="0"/>
        <pt x="309" y="42" on="0"/>
        <pt x="309" y="85" on="1"/>
        <pt x="309" y="152" on="0"/>
        <pt x="450" y="341" on="0"/>
        <pt x="516" y="381" on="1"/>
        <pt x="559" y="406" on="0"/>
        <pt x="593" y="406" on="1"/>
        <pt x="604" y="406" on="0"/>
        <pt x="622" y="402" on="0"/>
        <pt x="623" y="402" on="1"/>
        <pt x="631" y="402" on="0"/>
        <pt x="646" y="434" on="0"/>
        <pt x="648" y="435" on="1"/>
        <pt x="653" y="439" on="0"/>
        <pt x="662" y="439" on="1"/>
        <pt x="685" y="439" on="0"/>
        <pt x="685" y="422" on="1"/>
        <pt x="685" y="418" on="0"/>
        <pt x="664" y="351" on="0"/>
        <pt x="628" y="209" on="0"/>
        <pt x="614" y="128" on="1"/>
        <pt x="609" y="106" on="0"/>
        <pt x="609" y="88" on="1"/>
        <pt x="609" y="62" on="0"/>
        <pt x="639" y="39" on="0"/>
        <pt x="658" y="39" on="1"/>
        <pt x="691" y="39" on="0"/>
        <pt x="768" y="81" on="0"/>
        <pt x="792" y="115" on="1"/>
        <pt x="844" y="187" on="0"/>
        <pt x="844" y="307" on="1"/>
        <pt x="844" y="308" on="1"/>
        <pt x="844" y="439" on="0"/>
        <pt x="679" y="586" on="0"/>
        <pt x="556" y="586" on="1"/>
        <pt x="456" y="586" on="0"/>
        <pt x="282" y="493" on="0"/>
        <pt x="174" y="315" on="0"/>
        <pt x="174" y="203" on="1"/>
        <pt x="174" y="52" on="0"/>
        <pt x="361" y="-141" on="0"/>
        <pt x="512" y="-141" on="1"/>
        <pt x="580" y="-141" on="0"/>
        <pt x="695" y="-105" on="0"/>
        <pt x="723" y="-82" on="1"/>
        <pt x="738" y="-73" on="0"/>
      </contour>
      <contour>
        <pt x="601" y="361" on="1"/>
        <pt x="601" y="372" on="0"/>
        <pt x="590" y="372" on="1"/>
        <pt x="556" y="372" on="0"/>
        <pt x="433" y="253" on="0"/>
        <pt x="399" y="166" on="1"/>
        <pt x="385" y="133" on="0"/>
        <pt x="385" y="104" on="1"/>
        <pt x="385" y="76" on="0"/>
        <pt x="412" y="53" on="0"/>
        <pt x="428" y="53" on="1"/>
        <pt x="446" y="53" on="0"/>
        <pt x="507" y="83" on="0"/>
        <pt x="528" y="108" on="1"/>
        <pt x="531" y="112" on="0"/>
        <pt x="541" y="122" on="0"/>
        <pt x="544" y="125" on="0"/>
        <pt x="548" y="132" on="0"/>
        <pt x="550" y="138" on="0"/>
        <pt x="551" y="142" on="1"/>
        <pt x="601" y="359" on="0"/>
      </contour>
    </TTGlyph>
    <TTGlyph name="atilde" xMin="30" yMin="-20" xMax="427" yMax="684">
      <component glyphName="tilde" x="16" y="0" flags="0x1004"/>
      <component glyphName="a" x="0" y="0" flags="0x1004"/>
    </TTGlyph>
    <TTGlyph name="b" xMin="4" yMin="-22" xMax="488" yMax="730">
      <contour>
        <pt x="145" y="404" on="1"/>
        <pt x="145" y="398" on="0"/>
        <pt x="150" y="398" on="1"/>
        <pt x="152" y="398" on="0"/>
        <pt x="186" y="419" on="0"/>
        <pt x="251" y="440" on="0"/>
        <pt x="289" y="440" on="1"/>
        <pt x="379" y="440" on="0"/>
        <pt x="488" y="315" on="0"/>
        <pt x="488" y="214" on="1"/>
        <pt x="488" y="175" on="0"/>
        <pt x="470" y="102" on="0"/>
        <pt x="405" y="21" on="0"/>
        <pt x="352" y="1" on="1"/>
        <pt x="298" y="-19" on="0"/>
        <pt x="238" y="-19" on="1"/>
        <pt x="211" y="-19" on="0"/>
        <pt x="151" y="0" on="0"/>
        <pt x="138" y="0" on="1"/>
        <pt x="120" y="0" on="0"/>
        <pt x="92" y="-22" on="0"/>
        <pt x="87" y="-22" on="1"/>
        <pt x="71" y="-22" on="0"/>
        <pt x="71" y="9" on="1"/>
        <pt x="71" y="69" on="0"/>
        <pt x="74" y="548" on="0"/>
        <pt x="74" y="608" on="1"/>
        <pt x="74" y="622" on="0"/>
        <pt x="61" y="631" on="1"/>
        <pt x="54" y="635" on="0"/>
        <pt x="40" y="644" on="0"/>
        <pt x="31" y="649" on="0"/>
        <pt x="21" y="655" on="0"/>
        <pt x="16" y="659" on="0"/>
        <pt x="10" y="663" on="0"/>
        <pt x="7" y="665" on="0"/>
        <pt x="5" y="668" on="0"/>
        <pt x="4" y="671" on="0"/>
        <pt x="4" y="672" on="1"/>
        <pt x="4" y="680" on="0"/>
        <pt x="17" y="685" on="1"/>
        <pt x="130" y="730" on="0"/>
        <pt x="134" y="730" on="1"/>
        <pt x="148" y="728" on="0"/>
        <pt x="148" y="710" on="1"/>
        <pt x="148" y="676" on="0"/>
        <pt x="145" y="416" on="0"/>
      </contour>
      <contour>
        <pt x="424" y="197" on="1"/>
        <pt x="424" y="280" on="0"/>
        <pt x="322" y="386" on="0"/>
        <pt x="253" y="386" on="1"/>
        <pt x="217" y="386" on="0"/>
        <pt x="142" y="352" on="0"/>
        <pt x="142" y="336" on="1"/>
        <pt x="142" y="74" on="1"/>
        <pt x="142" y="73" on="0"/>
        <pt x="141" y="68" on="0"/>
        <pt x="141" y="67" on="1"/>
        <pt x="141" y="48" on="0"/>
        <pt x="156" y="42" on="1"/>
        <pt x="204" y="23" on="0"/>
        <pt x="250" y="23" on="1"/>
        <pt x="328" y="23" on="0"/>
        <pt x="424" y="120" on="0"/>
      </contour>
    </TTGlyph>
    <TTGlyph name="backslash" xMin="3" yMin="-231" xMax="238" yMax="633">
      <contour>
        <pt x="238" y="-205" on="1"/>
        <pt x="238" y="-214" on="0"/>
        <pt x="212" y="-231" on="0"/>
        <pt x="206" y="-231" on="1"/>
        <pt x="195" y="-231" on="0"/>
        <pt x="195" y="-220" on="1"/>
        <pt x="3" y="609" on="0"/>
        <pt x="3" y="610" on="1"/>
        <pt x="3" y="618" on="0"/>
        <pt x="28" y="633" on="0"/>
        <pt x="35" y="633" on="1"/>
        <pt x="45" y="633" on="0"/>
        <pt x="50" y="617" on="1"/>
        <pt x="91" y="412" on="0"/>
        <pt x="186" y="5" on="0"/>
        <pt x="238" y="-199" on="0"/>
      </contour>
    </TTGlyph>
    <TTGlyph name="bar" xMin="51" yMin="-203" xMax="105" yMax="735">
      <contour>
        <pt x="79" y="-203" on="1"/>
        <pt x="75" y="-203" on="1"/>
        <pt x="51" y="-203" on="0"/>
        <pt x="51" y="-189" on="1"/>
        <pt x="51" y="722" on="1"/>
        <pt x="51" y="735" on="0"/>
        <pt x="76" y="735" on="1"/>
        <pt x="78" y="735" on="1"/>
        <pt x="94" y="735" on="0"/>
        <pt x="105" y="730" on="0"/>
        <pt x="105" y="722" on="1"/>
        <pt x="105" y="-189" on="1"/>
        <pt x="105" y="-203" on="0"/>
      </contour>
    </TTGlyph>
    <TTGlyph name="braceleft" xMin="46" yMin="-203" xMax="213" yMax="737">
      <contour>
        <pt x="46" y="262" on="1"/>
        <pt x="46" y="264" on="0"/>
        <pt x="58" y="270" on="0"/>
        <pt x="76" y="283" on="0"/>
        <pt x="94" y="304" on="0"/>
        <pt x="106" y="343" on="0"/>
        <pt x="106" y="368" on="1"/>
        <pt x="106" y="407" on="0"/>
        <pt x="79" y="558" on="0"/>
        <pt x="79" y="600" on="1"/>
        <pt x="79" y="673" on="0"/>
        <pt x="146" y="737" on="0"/>
        <pt x="188" y="737" on="1"/>
        <pt x="213" y="737" on="0"/>
        <pt x="213" y="732" on="1"/>
        <pt x="213" y="731" on="0"/>
        <pt x="191" y="720" on="0"/>
        <pt x="160" y="689" on="0"/>
        <pt x="152" y="666" on="1"/>
        <pt x="144" y="642" on="0"/>
        <pt x="144" y="618" on="1"/>
        <pt x="144" y="591" on="0"/>
        <pt x="172" y="463" on="0"/>
        <pt x="172" y="421" on="1"/>
        <pt x="172" y="378" on="0"/>
        <pt x="148" y="302" on="0"/>
        <pt x="125" y="261" on="0"/>
        <pt x="125" y="260" on="1"/>
        <pt x="125" y="258" on="0"/>
        <pt x="147" y="225" on="0"/>
        <pt x="169" y="162" on="0"/>
        <pt x="169" y="123" on="1"/>
        <pt x="169" y="89" on="0"/>
        <pt x="140" y="-40" on="0"/>
        <pt x="140" y="-72" on="1"/>
        <pt x="140" y="-98" on="0"/>
        <pt x="154" y="-143" on="0"/>
        <pt x="173" y="-171" on="0"/>
        <pt x="192" y="-190" on="0"/>
        <pt x="199" y="-195" on="1"/>
        <pt x="206" y="-200" on="1"/>
        <pt x="206" y="-203" on="0"/>
        <pt x="189" y="-203" on="1"/>
        <pt x="146" y="-203" on="0"/>
        <pt x="75" y="-134" on="0"/>
        <pt x="75" y="-58" on="1"/>
        <pt x="75" y="-17" on="0"/>
        <pt x="108" y="121" on="0"/>
        <pt x="108" y="152" on="1"/>
        <pt x="108" y="172" on="0"/>
        <pt x="99" y="205" on="0"/>
        <pt x="87" y="227" on="0"/>
        <pt x="71" y="245" on="0"/>
        <pt x="58" y="253" on="0"/>
        <pt x="52" y="256" on="1"/>
        <pt x="47" y="260" on="1"/>
        <pt x="46" y="261" on="0"/>
      </contour>
    </TTGlyph>
    <TTGlyph name="braceright" xMin="47" yMin="-203" xMax="214" yMax="737">
      <contour>
        <pt x="181" y="600" on="1"/>
        <pt x="181" y="558" on="0"/>
        <pt x="154" y="407" on="0"/>
        <pt x="154" y="368" on="1"/>
        <pt x="154" y="347" on="0"/>
        <pt x="162" y="313" on="0"/>
        <pt x="174" y="293" on="0"/>
        <pt x="190" y="277" on="0"/>
        <pt x="202" y="270" on="0"/>
        <pt x="208" y="268" on="1"/>
        <pt x="213" y="265" on="1"/>
        <pt x="214" y="264" on="0"/>
        <pt x="214" y="263" on="1"/>
        <pt x="214" y="259" on="0"/>
        <pt x="210" y="258" on="1"/>
        <pt x="153" y="228" on="0"/>
        <pt x="153" y="152" on="1"/>
        <pt x="153" y="121" on="0"/>
        <pt x="185" y="-17" on="0"/>
        <pt x="185" y="-58" on="1"/>
        <pt x="185" y="-134" on="0"/>
        <pt x="114" y="-203" on="0"/>
        <pt x="71" y="-203" on="1"/>
        <pt x="54" y="-203" on="0"/>
        <pt x="54" y="-200" on="1"/>
        <pt x="61" y="-195" on="1"/>
        <pt x="68" y="-190" on="0"/>
        <pt x="87" y="-171" on="0"/>
        <pt x="106" y="-143" on="0"/>
        <pt x="120" y="-98" on="0"/>
        <pt x="120" y="-72" on="1"/>
        <pt x="120" y="-40" on="0"/>
        <pt x="91" y="89" on="0"/>
        <pt x="91" y="123" on="1"/>
        <pt x="91" y="162" on="0"/>
        <pt x="113" y="226" on="0"/>
        <pt x="135" y="258" on="0"/>
        <pt x="135" y="262" on="0"/>
        <pt x="131" y="270" on="1"/>
        <pt x="88" y="336" on="0"/>
        <pt x="88" y="421" on="1"/>
        <pt x="88" y="463" on="0"/>
        <pt x="116" y="591" on="0"/>
        <pt x="116" y="618" on="1"/>
        <pt x="116" y="643" on="0"/>
        <pt x="102" y="685" on="0"/>
        <pt x="82" y="708" on="0"/>
        <pt x="61" y="723" on="0"/>
        <pt x="47" y="731" on="0"/>
        <pt x="47" y="732" on="1"/>
        <pt x="47" y="737" on="0"/>
        <pt x="72" y="737" on="1"/>
        <pt x="114" y="737" on="0"/>
        <pt x="181" y="673" on="0"/>
      </contour>
    </TTGlyph>
    <TTGlyph name="bracketleft" xMin="24" yMin="-225" xMax="364" yMax="762">
      <contour>
        <pt x="128" y="-159" on="1"/>
        <pt x="128" y="-164" on="0"/>
        <pt x="132" y="-164" on="1"/>
        <pt x="133" y="-164" on="0"/>
        <pt x="147" y="-155" on="0"/>
        <pt x="175" y="-143" on="0"/>
        <pt x="193" y="-140" on="1"/>
        <pt x="197" y="-139" on="0"/>
        <pt x="197" y="-134" on="1"/>
        <pt x="197" y="665" on="1"/>
        <pt x="197" y="670" on="0"/>
        <pt x="184" y="674" on="0"/>
        <pt x="151" y="683" on="0"/>
        <pt x="135" y="693" on="1"/>
        <pt x="133" y="695" on="0"/>
        <pt x="131" y="695" on="1"/>
        <pt x="128" y="695" on="0"/>
        <pt x="128" y="690" on="1"/>
      </contour>
      <contour>
        <pt x="106" y="762" on="1"/>
        <pt x="114" y="762" on="0"/>
        <pt x="143" y="744" on="0"/>
        <pt x="193" y="725" on="0"/>
        <pt x="227" y="725" on="1"/>
        <pt x="257" y="725" on="0"/>
        <pt x="316" y="740" on="0"/>
        <pt x="334" y="748" on="1"/>
        <pt x="351" y="755" on="1"/>
        <pt x="356" y="755" on="0"/>
        <pt x="364" y="742" on="0"/>
        <pt x="364" y="738" on="1"/>
        <pt x="364" y="731" on="0"/>
        <pt x="336" y="700" on="0"/>
        <pt x="278" y="669" on="0"/>
        <pt x="245" y="669" on="1"/>
        <pt x="239" y="669" on="0"/>
        <pt x="239" y="662" on="1"/>
        <pt x="240" y="-130" on="1"/>
        <pt x="240" y="-137" on="0"/>
        <pt x="248" y="-141" on="0"/>
        <pt x="263" y="-142" on="0"/>
        <pt x="296" y="-152" on="0"/>
        <pt x="314" y="-163" on="1"/>
        <pt x="333" y="-175" on="0"/>
        <pt x="362" y="-204" on="0"/>
        <pt x="362" y="-212" on="1"/>
        <pt x="362" y="-225" on="0"/>
        <pt x="350" y="-225" on="1"/>
        <pt x="348" y="-225" on="0"/>
        <pt x="313" y="-207" on="0"/>
        <pt x="250" y="-189" on="0"/>
        <pt x="216" y="-189" on="1"/>
        <pt x="185" y="-189" on="0"/>
        <pt x="131" y="-202" on="0"/>
        <pt x="101" y="-215" on="0"/>
        <pt x="98" y="-215" on="1"/>
        <pt x="82" y="-215" on="0"/>
        <pt x="82" y="-193" on="1"/>
        <pt x="82" y="231" on="1"/>
        <pt x="82" y="239" on="0"/>
        <pt x="78" y="239" on="1"/>
        <pt x="77" y="239" on="0"/>
        <pt x="61" y="228" on="0"/>
        <pt x="53" y="228" on="1"/>
        <pt x="24" y="228" on="0"/>
        <pt x="24" y="270" on="1"/>
        <pt x="24" y="307" on="0"/>
        <pt x="53" y="307" on="1"/>
        <pt x="61" y="307" on="0"/>
        <pt x="76" y="300" on="0"/>
        <pt x="77" y="300" on="1"/>
        <pt x="81" y="300" on="0"/>
        <pt x="81" y="307" on="1"/>
        <pt x="81" y="727" on="1"/>
        <pt x="81" y="762" on="0"/>
      </contour>
    </TTGlyph>
    <TTGlyph name="bracketright" xMin="24" yMin="-225" xMax="364" yMax="762">
      <contour>
        <pt x="259" y="-159" on="1"/>
        <pt x="259" y="690" on="1"/>
        <pt x="259" y="695" on="0"/>
        <pt x="256" y="695" on="1"/>
        <pt x="254" y="695" on="0"/>
        <pt x="252" y="693" on="1"/>
        <pt x="241" y="686" on="0"/>
        <pt x="220" y="677" on="0"/>
        <pt x="206" y="675" on="0"/>
        <pt x="195" y="672" on="0"/>
        <pt x="190" y="669" on="0"/>
        <pt x="190" y="665" on="1"/>
        <pt x="190" y="-134" on="1"/>
        <pt x="190" y="-139" on="0"/>
        <pt x="195" y="-140" on="1"/>
        <pt x="213" y="-143" on="0"/>
        <pt x="241" y="-155" on="0"/>
        <pt x="254" y="-164" on="0"/>
        <pt x="255" y="-164" on="1"/>
        <pt x="259" y="-164" on="0"/>
      </contour>
      <contour>
        <pt x="281" y="762" on="1"/>
        <pt x="306" y="762" on="0"/>
        <pt x="306" y="727" on="1"/>
        <pt x="306" y="307" on="1"/>
        <pt x="306" y="300" on="0"/>
        <pt x="310" y="300" on="1"/>
        <pt x="311" y="300" on="0"/>
        <pt x="326" y="307" on="0"/>
        <pt x="334" y="307" on="1"/>
        <pt x="364" y="307" on="0"/>
        <pt x="364" y="270" on="1"/>
        <pt x="364" y="228" on="0"/>
        <pt x="334" y="228" on="1"/>
        <pt x="326" y="228" on="0"/>
        <pt x="310" y="239" on="0"/>
        <pt x="309" y="239" on="1"/>
        <pt x="305" y="239" on="0"/>
        <pt x="305" y="231" on="1"/>
        <pt x="305" y="-193" on="1"/>
        <pt x="305" y="-215" on="0"/>
        <pt x="289" y="-215" on="1"/>
        <pt x="286" y="-215" on="0"/>
        <pt x="256" y="-202" on="0"/>
        <pt x="202" y="-189" on="0"/>
        <pt x="171" y="-189" on="1"/>
        <pt x="137" y="-189" on="0"/>
        <pt x="74" y="-207" on="0"/>
        <pt x="39" y="-225" on="0"/>
        <pt x="37" y="-225" on="1"/>
        <pt x="25" y="-225" on="0"/>
        <pt x="25" y="-212" on="1"/>
        <pt x="25" y="-204" on="0"/>
        <pt x="54" y="-175" on="0"/>
        <pt x="73" y="-163" on="1"/>
        <pt x="91" y="-152" on="0"/>
        <pt x="124" y="-142" on="0"/>
        <pt x="139" y="-141" on="0"/>
        <pt x="147" y="-137" on="0"/>
        <pt x="147" y="-130" on="1"/>
        <pt x="148" y="662" on="1"/>
        <pt x="148" y="669" on="0"/>
        <pt x="142" y="669" on="1"/>
        <pt x="109" y="669" on="0"/>
        <pt x="51" y="700" on="0"/>
        <pt x="24" y="731" on="0"/>
        <pt x="24" y="738" on="1"/>
        <pt x="24" y="743" on="0"/>
        <pt x="31" y="755" on="0"/>
        <pt x="36" y="755" on="1"/>
        <pt x="54" y="748" on="1"/>
        <pt x="71" y="740" on="0"/>
        <pt x="130" y="725" on="0"/>
        <pt x="160" y="725" on="1"/>
        <pt x="194" y="725" on="0"/>
        <pt x="244" y="744" on="0"/>
        <pt x="273" y="762" on="0"/>
      </contour>
    </TTGlyph>
    <TTGlyph name="breve" xMin="15" yMin="493" xMax="263" yMax="658">
      <contour>
        <pt x="15" y="648" on="1"/>
        <pt x="15" y="658" on="0"/>
        <pt x="38" y="658" on="1"/>
        <pt x="45" y="658" on="0"/>
        <pt x="51" y="650" on="0"/>
        <pt x="53" y="636" on="0"/>
        <pt x="64" y="610" on="0"/>
        <pt x="74" y="597" on="1"/>
        <pt x="102" y="562" on="0"/>
        <pt x="135" y="562" on="1"/>
        <pt x="136" y="562" on="1"/>
        <pt x="150" y="562" on="0"/>
        <pt x="178" y="574" on="0"/>
        <pt x="197" y="592" on="0"/>
        <pt x="214" y="615" on="0"/>
        <pt x="224" y="633" on="0"/>
        <pt x="228" y="642" on="1"/>
        <pt x="232" y="650" on="1"/>
        <pt x="237" y="657" on="0"/>
        <pt x="245" y="657" on="1"/>
        <pt x="263" y="657" on="0"/>
        <pt x="263" y="650" on="1"/>
        <pt x="263" y="644" on="0"/>
        <pt x="249" y="599" on="0"/>
        <pt x="222" y="539" on="0"/>
        <pt x="166" y="493" on="0"/>
        <pt x="131" y="493" on="1"/>
        <pt x="40" y="493" on="0"/>
        <pt x="15" y="645" on="1"/>
      </contour>
    </TTGlyph>
    <TTGlyph name="breve.cap" xMin="16" yMin="745" xMax="316" yMax="882">
      <contour>
        <pt x="136" y="812" on="0"/>
        <pt x="196" y="812" on="0"/>
        <pt x="253" y="847" on="0"/>
        <pt x="288" y="882" on="0"/>
        <pt x="291" y="882" on="1"/>
        <pt x="299" y="882" on="0"/>
        <pt x="316" y="867" on="0"/>
        <pt x="316" y="859" on="1"/>
        <pt x="316" y="854" on="0"/>
        <pt x="280" y="801" on="0"/>
        <pt x="206" y="745" on="0"/>
        <pt x="168" y="745" on="1"/>
        <pt x="164" y="745" on="1"/>
        <pt x="126" y="745" on="0"/>
        <pt x="52" y="801" on="0"/>
        <pt x="16" y="854" on="0"/>
        <pt x="16" y="859" on="1"/>
        <pt x="16" y="866" on="0"/>
        <pt x="32" y="882" on="0"/>
        <pt x="41" y="882" on="1"/>
        <pt x="44" y="882" on="0"/>
        <pt x="79" y="847" on="0"/>
      </contour>
    </TTGlyph>
    <TTGlyph name="bullet" xMin="65" yMin="193" xMax="228" yMax="356">
      <contour>
        <pt x="146" y="193" on="1"/>
        <pt x="112" y="193" on="0"/>
        <pt x="65" y="242" on="0"/>
        <pt x="65" y="274" on="1"/>
        <pt x="65" y="308" on="0"/>
        <pt x="114" y="356" on="0"/>
        <pt x="146" y="356" on="1"/>
        <pt x="180" y="356" on="0"/>
        <pt x="228" y="306" on="0"/>
        <pt x="228" y="274" on="1"/>
        <pt x="228" y="240" on="0"/>
        <pt x="178" y="193" on="0"/>
      </contour>
    </TTGlyph>
    <TTGlyph name="c" xMin="17" yMin="-18" xMax="389" yMax="438">
      <contour>
        <pt x="214" y="-18" on="1"/>
        <pt x="126" y="-18" on="0"/>
        <pt x="17" y="106" on="0"/>
        <pt x="17" y="202" on="1"/>
        <pt x="17" y="307" on="0"/>
        <pt x="139" y="438" on="0"/>
        <pt x="237" y="438" on="1"/>
        <pt x="291" y="438" on="0"/>
        <pt x="367" y="392" on="0"/>
        <pt x="367" y="362" on="1"/>
        <pt x="367" y="345" on="0"/>
        <pt x="343" y="324" on="0"/>
        <pt x="326" y="324" on="1"/>
        <pt x="304" y="324" on="0"/>
        <pt x="233" y="385" on="0"/>
        <pt x="202" y="385" on="1"/>
        <pt x="155" y="385" on="0"/>
        <pt x="85" y="291" on="0"/>
        <pt x="85" y="227" on="1"/>
        <pt x="85" y="154" on="0"/>
        <pt x="178" y="47" on="0"/>
        <pt x="247" y="47" on="1"/>
        <pt x="274" y="47" on="0"/>
        <pt x="319" y="64" on="0"/>
        <pt x="342" y="85" on="0"/>
        <pt x="365" y="102" on="0"/>
        <pt x="379" y="102" on="0"/>
        <pt x="389" y="92" on="0"/>
        <pt x="389" y="85" on="1"/>
        <pt x="389" y="77" on="0"/>
        <pt x="383" y="69" on="1"/>
        <pt x="356" y="32" on="0"/>
        <pt x="268" y="-18" on="0"/>
      </contour>
    </TTGlyph>
    <TTGlyph name="cacute" xMin="17" yMin="-18" xMax="389" yMax="716">
      <component glyphName="acute" x="88" y="-2" flags="0x1004"/>
      <component glyphName="c" x="0" y="0" flags="0x1004"/>
    </TTGlyph>
    <TTGlyph name="caron" xMin="16" yMin="490" xMax="204" yMax="717">
      <contour>
        <pt x="188" y="717" on="1"/>
        <pt x="193" y="717" on="0"/>
        <pt x="204" y="709" on="0"/>
        <pt x="204" y="701" on="1"/>
        <pt x="204" y="695" on="0"/>
        <pt x="153" y="548" on="0"/>
        <pt x="140" y="520" on="1"/>
        <pt x="127" y="490" on="0"/>
        <pt x="111" y="490" on="1"/>
        <pt x="94" y="490" on="0"/>
        <pt x="67" y="549" on="0"/>
        <pt x="37" y="637" on="1"/>
        <pt x="25" y="670" on="0"/>
        <pt x="19" y="689" on="1"/>
        <pt x="16" y="698" on="0"/>
        <pt x="16" y="700" on="1"/>
        <pt x="16" y="708" on="0"/>
        <pt x="27" y="717" on="0"/>
        <pt x="32" y="717" on="1"/>
        <pt x="44" y="717" on="0"/>
        <pt x="58" y="693" on="1"/>
        <pt x="64" y="682" on="0"/>
        <pt x="84" y="648" on="0"/>
        <pt x="99" y="623" on="0"/>
        <pt x="99" y="622" on="1"/>
        <pt x="104" y="616" on="0"/>
        <pt x="110" y="616" on="1"/>
        <pt x="119" y="616" on="0"/>
        <pt x="144" y="660" on="1"/>
        <pt x="156" y="681" on="0"/>
        <pt x="164" y="694" on="1"/>
        <pt x="177" y="717" on="0"/>
      </contour>
    </TTGlyph>
    <TTGlyph name="caron.cap" xMin="14" yMin="750" xMax="263" yMax="904">
      <contour>
        <pt x="248" y="904" on="1"/>
        <pt x="254" y="904" on="0"/>
        <pt x="263" y="896" on="0"/>
        <pt x="263" y="890" on="1"/>
        <pt x="263" y="883" on="0"/>
        <pt x="226" y="837" on="1"/>
        <pt x="197" y="801" on="0"/>
        <pt x="175" y="774" on="1"/>
        <pt x="157" y="750" on="0"/>
        <pt x="136" y="750" on="1"/>
        <pt x="124" y="750" on="0"/>
        <pt x="111" y="764" on="1"/>
        <pt x="82" y="801" on="0"/>
        <pt x="47" y="843" on="1"/>
        <pt x="14" y="883" on="0"/>
        <pt x="14" y="889" on="1"/>
        <pt x="14" y="894" on="0"/>
        <pt x="23" y="904" on="0"/>
        <pt x="31" y="904" on="1"/>
        <pt x="43" y="904" on="0"/>
        <pt x="57" y="890" on="1"/>
        <pt x="65" y="883" on="0"/>
        <pt x="83" y="868" on="0"/>
        <pt x="93" y="859" on="0"/>
        <pt x="105" y="848" on="0"/>
        <pt x="112" y="843" on="0"/>
        <pt x="121" y="836" on="0"/>
        <pt x="126" y="834" on="0"/>
        <pt x="131" y="831" on="0"/>
        <pt x="136" y="830" on="0"/>
        <pt x="138" y="830" on="1"/>
        <pt x="152" y="830" on="0"/>
        <pt x="236" y="904" on="0"/>
      </contour>
    </TTGlyph>
    <TTGlyph name="ccaron" xMin="17" yMin="-18" xMax="389" yMax="709">
      <component glyphName="caron" x="113" y="-8" flags="0x1004"/>
      <component glyphName="c" x="0" y="0" flags="0x1004"/>
    </TTGlyph>
    <TTGlyph name="ccedilla" xMin="17" yMin="-200" xMax="389" yMax="438">
      <contour>
        <pt x="296" y="-123" on="1"/>
        <pt x="296" y="-154" on="0"/>
        <pt x="257" y="-200" on="0"/>
        <pt x="212" y="-200" on="1"/>
        <pt x="189" y="-200" on="0"/>
        <pt x="134" y="-189" on="0"/>
        <pt x="131" y="-186" on="1"/>
        <pt x="127" y="-183" on="0"/>
        <pt x="127" y="-179" on="1"/>
        <pt x="127" y="-177" on="0"/>
        <pt x="129" y="-167" on="0"/>
        <pt x="136" y="-155" on="0"/>
        <pt x="141" y="-155" on="1"/>
        <pt x="145" y="-156" on="1"/>
        <pt x="149" y="-157" on="0"/>
        <pt x="161" y="-159" on="0"/>
        <pt x="175" y="-161" on="0"/>
        <pt x="190" y="-163" on="0"/>
        <pt x="195" y="-163" on="1"/>
        <pt x="212" y="-163" on="0"/>
        <pt x="233" y="-144" on="0"/>
        <pt x="233" y="-130" on="1"/>
        <pt x="233" y="-109" on="0"/>
        <pt x="193" y="-79" on="0"/>
        <pt x="161" y="-77" on="1"/>
        <pt x="156" y="-77" on="0"/>
        <pt x="156" y="-74" on="1"/>
        <pt x="160" y="-64" on="1"/>
        <pt x="164" y="-53" on="0"/>
        <pt x="175" y="-22" on="0"/>
        <pt x="178" y="-14" on="1"/>
        <pt x="106" y="-2" on="0"/>
        <pt x="17" y="116" on="0"/>
        <pt x="17" y="202" on="1"/>
        <pt x="17" y="307" on="0"/>
        <pt x="139" y="438" on="0"/>
        <pt x="237" y="438" on="1"/>
        <pt x="291" y="438" on="0"/>
        <pt x="367" y="392" on="0"/>
        <pt x="367" y="362" on="1"/>
        <pt x="367" y="345" on="0"/>
        <pt x="343" y="324" on="0"/>
        <pt x="326" y="324" on="1"/>
        <pt x="304" y="324" on="0"/>
        <pt x="233" y="385" on="0"/>
        <pt x="202" y="385" on="1"/>
        <pt x="155" y="385" on="0"/>
        <pt x="85" y="291" on="0"/>
        <pt x="85" y="227" on="1"/>
        <pt x="85" y="154" on="0"/>
        <pt x="178" y="47" on="0"/>
        <pt x="247" y="47" on="1"/>
        <pt x="274" y="47" on="0"/>
        <pt x="319" y="64" on="0"/>
        <pt x="342" y="85" on="0"/>
        <pt x="365" y="102" on="0"/>
        <pt x="379" y="102" on="0"/>
        <pt x="389" y="92" on="0"/>
        <pt x="389" y="85" on="1"/>
        <pt x="389" y="77" on="0"/>
        <pt x="383" y="69" on="1"/>
        <pt x="356" y="32" on="0"/>
        <pt x="268" y="-18" on="0"/>
        <pt x="214" y="-18" on="1"/>
        <pt x="211" y="-18" on="1"/>
        <pt x="209" y="-23" on="0"/>
        <pt x="206" y="-31" on="0"/>
        <pt x="205" y="-35" on="0"/>
        <pt x="203" y="-39" on="0"/>
        <pt x="203" y="-40" on="0"/>
        <pt x="203" y="-41" on="1"/>
        <pt x="203" y="-44" on="0"/>
        <pt x="207" y="-44" on="1"/>
        <pt x="210" y="-44" on="1"/>
        <pt x="248" y="-44" on="0"/>
        <pt x="296" y="-85" on="0"/>
        <pt x="296" y="-122" on="1"/>
      </contour>
    </TTGlyph>
    <TTGlyph name="ccircumflex" xMin="17" yMin="-18" xMax="389" yMax="709">
      <component glyphName="circumflex" x="94" y="-8" flags="0x1004"/>
      <component glyphName="c" x="0" y="0" flags="0x1004"/>
    </TTGlyph>
    <TTGlyph name="cdotaccent" xMin="17" yMin="-18" xMax="389" yMax="598">
      <component glyphName="dotaccent" x="148" y="-7" flags="0x1004"/>
      <component glyphName="c" x="0" y="0" flags="0x1004"/>
    </TTGlyph>
    <TTGlyph name="cedilla" xMin="19" yMin="-204" xMax="187" yMax="5">
      <contour>
        <pt x="103" y="-204" on="1"/>
        <pt x="80" y="-204" on="0"/>
        <pt x="27" y="-194" on="0"/>
        <pt x="19" y="-186" on="0"/>
        <pt x="19" y="-183" on="1"/>
        <pt x="19" y="-181" on="0"/>
        <pt x="22" y="-171" on="0"/>
        <pt x="29" y="-159" on="0"/>
        <pt x="34" y="-159" on="1"/>
        <pt x="38" y="-160" on="1"/>
        <pt x="42" y="-161" on="0"/>
        <pt x="53" y="-163" on="0"/>
        <pt x="66" y="-165" on="0"/>
        <pt x="81" y="-167" on="0"/>
        <pt x="86" y="-167" on="1"/>
        <pt x="104" y="-167" on="0"/>
        <pt x="125" y="-148" on="0"/>
        <pt x="125" y="-133" on="1"/>
        <pt x="125" y="-113" on="0"/>
        <pt x="84" y="-83" on="0"/>
        <pt x="52" y="-81" on="1"/>
        <pt x="47" y="-81" on="0"/>
        <pt x="47" y="-78" on="1"/>
        <pt x="47" y="-77" on="0"/>
        <pt x="58" y="-49" on="0"/>
        <pt x="76" y="-6" on="0"/>
        <pt x="80" y="5" on="1"/>
        <pt x="112" y="5" on="1"/>
        <pt x="110" y="-2" on="0"/>
        <pt x="101" y="-27" on="0"/>
        <pt x="98" y="-36" on="1"/>
        <pt x="95" y="-45" on="1"/>
        <pt x="95" y="-48" on="0"/>
        <pt x="99" y="-48" on="1"/>
        <pt x="101" y="-48" on="1"/>
        <pt x="139" y="-48" on="0"/>
        <pt x="187" y="-89" on="0"/>
        <pt x="187" y="-126" on="1"/>
        <pt x="187" y="-158" on="0"/>
        <pt x="149" y="-204" on="0"/>
      </contour>
    </TTGlyph>
    <TTGlyph name="circumflex" xMin="16" yMin="490" xMax="204" yMax="717">
      <contour>
        <pt x="32" y="490" on="1"/>
        <pt x="27" y="490" on="0"/>
        <pt x="16" y="498" on="0"/>
        <pt x="16" y="506" on="1"/>
        <pt x="16" y="512" on="0"/>
        <pt x="67" y="658" on="0"/>
        <pt x="80" y="687" on="1"/>
        <pt x="93" y="717" on="0"/>
        <pt x="110" y="717" on="1"/>
        <pt x="126" y="717" on="0"/>
        <pt x="153" y="659" on="0"/>
        <pt x="181" y="577" on="1"/>
        <pt x="194" y="540" on="0"/>
        <pt x="201" y="518" on="1"/>
        <pt x="204" y="509" on="0"/>
        <pt x="204" y="507" on="1"/>
        <pt x="204" y="498" on="0"/>
        <pt x="193" y="490" on="0"/>
        <pt x="188" y="490" on="1"/>
        <pt x="176" y="490" on="0"/>
        <pt x="162" y="514" on="1"/>
        <pt x="121" y="587" on="0"/>
        <pt x="116" y="590" on="1"/>
        <pt x="114" y="591" on="0"/>
        <pt x="111" y="591" on="1"/>
        <pt x="104" y="591" on="0"/>
        <pt x="93" y="575" on="0"/>
        <pt x="70" y="536" on="1"/>
        <pt x="61" y="521" on="0"/>
        <pt x="56" y="512" on="1"/>
        <pt x="42" y="490" on="0"/>
      </contour>
    </TTGlyph>
    <TTGlyph name="circumflex.cap" xMin="14" yMin="750" xMax="263" yMax="904">
      <contour>
        <pt x="30" y="750" on="1"/>
        <pt x="22" y="750" on="0"/>
        <pt x="14" y="760" on="0"/>
        <pt x="14" y="764" on="1"/>
        <pt x="14" y="771" on="0"/>
        <pt x="51" y="817" on="1"/>
        <pt x="80" y="853" on="0"/>
        <pt x="102" y="880" on="1"/>
        <pt x="120" y="904" on="0"/>
        <pt x="141" y="904" on="1"/>
        <pt x="154" y="904" on="0"/>
        <pt x="167" y="890" on="1"/>
        <pt x="261" y="774" on="0"/>
        <pt x="262" y="770" on="1"/>
        <pt x="263" y="768" on="0"/>
        <pt x="263" y="765" on="1"/>
        <pt x="263" y="760" on="0"/>
        <pt x="255" y="750" on="0"/>
        <pt x="247" y="750" on="1"/>
        <pt x="234" y="750" on="0"/>
        <pt x="220" y="764" on="1"/>
        <pt x="212" y="771" on="0"/>
        <pt x="194" y="786" on="0"/>
        <pt x="183" y="795" on="0"/>
        <pt x="171" y="805" on="0"/>
        <pt x="164" y="811" on="0"/>
        <pt x="156" y="817" on="0"/>
        <pt x="151" y="820" on="0"/>
        <pt x="146" y="822" on="0"/>
        <pt x="141" y="823" on="0"/>
        <pt x="139" y="823" on="1"/>
        <pt x="125" y="823" on="0"/>
        <pt x="42" y="750" on="0"/>
      </contour>
    </TTGlyph>
    <TTGlyph name="colon" xMin="67" yMin="-17" xMax="188" yMax="421">
      <contour>
        <pt x="102" y="421" on="0"/>
        <pt x="152" y="421" on="0"/>
        <pt x="188" y="385" on="0"/>
        <pt x="188" y="360" on="1"/>
        <pt x="188" y="336" on="0"/>
        <pt x="153" y="300" on="0"/>
        <pt x="127" y="300" on="1"/>
        <pt x="102" y="300" on="0"/>
        <pt x="67" y="335" on="0"/>
        <pt x="67" y="387" on="0"/>
      </contour>
      <contour>
        <pt x="102" y="103" on="0"/>
        <pt x="152" y="103" on="0"/>
        <pt x="188" y="68" on="0"/>
        <pt x="188" y="43" on="1"/>
        <pt x="188" y="19" on="0"/>
        <pt x="153" y="-17" on="0"/>
        <pt x="127" y="-17" on="1"/>
        <pt x="102" y="-17" on="0"/>
        <pt x="67" y="18" on="0"/>
        <pt x="67" y="70" on="0"/>
      </contour>
    </TTGlyph>
    <TTGlyph name="comma" xMin="40" yMin="-151" xMax="193" yMax="102">
      <contour>
        <pt x="102" y="102" on="1"/>
        <pt x="139" y="102" on="0"/>
        <pt x="193" y="34" on="0"/>
        <pt x="193" y="-15" on="1"/>
        <pt x="193" y="-75" on="0"/>
        <pt x="114" y="-151" on="0"/>
        <pt x="89" y="-151" on="1"/>
        <pt x="70" y="-151" on="0"/>
        <pt x="70" y="-133" on="1"/>
        <pt x="70" y="-125" on="0"/>
        <pt x="81" y="-116" on="0"/>
        <pt x="105" y="-101" on="0"/>
        <pt x="114" y="-93" on="1"/>
        <pt x="140" y="-69" on="0"/>
        <pt x="140" y="-45" on="1"/>
        <pt x="140" y="-27" on="0"/>
        <pt x="118" y="-9" on="0"/>
        <pt x="90" y="-6" on="0"/>
        <pt x="56" y="7" on="0"/>
        <pt x="48" y="19" on="1"/>
        <pt x="40" y="30" on="0"/>
        <pt x="40" y="46" on="1"/>
        <pt x="40" y="70" on="0"/>
        <pt x="77" y="102" on="0"/>
      </contour>
    </TTGlyph>
    <TTGlyph name="copyright" xMin="31" yMin="-25" xMax="760" yMax="706">
      <contour>
        <pt x="268" y="28" on="0"/>
        <pt x="522" y="28" on="0"/>
        <pt x="708" y="208" on="0"/>
        <pt x="708" y="341" on="1"/>
        <pt x="708" y="467" on="0"/>
        <pt x="526" y="652" on="0"/>
        <pt x="394" y="652" on="1"/>
        <pt x="264" y="652" on="0"/>
        <pt x="83" y="468" on="0"/>
        <pt x="83" y="340" on="1"/>
        <pt x="83" y="209" on="0"/>
      </contour>
      <contour>
        <pt x="31" y="340" on="1"/>
        <pt x="31" y="490" on="0"/>
        <pt x="242" y="706" on="0"/>
        <pt x="395" y="706" on="1"/>
        <pt x="547" y="706" on="0"/>
        <pt x="760" y="490" on="0"/>
        <pt x="760" y="340" on="1"/>
        <pt x="760" y="191" on="0"/>
        <pt x="549" y="-25" on="0"/>
        <pt x="394" y="-25" on="1"/>
        <pt x="245" y="-25" on="0"/>
        <pt x="31" y="187" on="0"/>
      </contour>
      <contour>
        <pt x="563" y="393" on="1"/>
        <pt x="552" y="393" on="0"/>
        <pt x="544" y="407" on="0"/>
        <pt x="544" y="427" on="0"/>
        <pt x="536" y="457" on="0"/>
        <pt x="527" y="469" on="1"/>
        <pt x="475" y="532" on="0"/>
        <pt x="395" y="532" on="1"/>
        <pt x="326" y="532" on="0"/>
        <pt x="222" y="427" on="0"/>
        <pt x="222" y="340" on="1"/>
        <pt x="222" y="251" on="0"/>
        <pt x="329" y="129" on="0"/>
        <pt x="404" y="129" on="1"/>
        <pt x="459" y="129" on="0"/>
        <pt x="554" y="198" on="0"/>
        <pt x="572" y="256" on="1"/>
        <pt x="576" y="266" on="0"/>
        <pt x="598" y="266" on="0"/>
        <pt x="598" y="256" on="1"/>
        <pt x="584" y="171" on="0"/>
        <pt x="583" y="156" on="1"/>
        <pt x="581" y="137" on="0"/>
        <pt x="564" y="137" on="1"/>
        <pt x="546" y="137" on="1"/>
        <pt x="539" y="137" on="0"/>
        <pt x="534" y="136" on="0"/>
        <pt x="522" y="127" on="0"/>
        <pt x="516" y="124" on="1"/>
        <pt x="459" y="90" on="0"/>
        <pt x="394" y="90" on="1"/>
        <pt x="294" y="90" on="0"/>
        <pt x="155" y="230" on="0"/>
        <pt x="155" y="426" on="0"/>
        <pt x="296" y="567" on="0"/>
        <pt x="397" y="567" on="1"/>
        <pt x="435" y="567" on="0"/>
        <pt x="493" y="550" on="0"/>
        <pt x="523" y="534" on="0"/>
        <pt x="526" y="534" on="1"/>
        <pt x="528" y="534" on="0"/>
        <pt x="540" y="557" on="0"/>
        <pt x="551" y="557" on="1"/>
        <pt x="561" y="557" on="0"/>
        <pt x="563" y="547" on="1"/>
        <pt x="581" y="421" on="0"/>
        <pt x="581" y="411" on="1"/>
        <pt x="581" y="393" on="0"/>
      </contour>
    </TTGlyph>
    <TTGlyph name="d" xMin="17" yMin="-29" xMax="504" yMax="731">
      <contour>
        <pt x="244" y="392" on="1"/>
        <pt x="168" y="392" on="0"/>
        <pt x="86" y="300" on="0"/>
        <pt x="86" y="221" on="1"/>
        <pt x="86" y="134" on="0"/>
        <pt x="202" y="32" on="0"/>
        <pt x="264" y="32" on="1"/>
        <pt x="295" y="32" on="0"/>
        <pt x="354" y="57" on="0"/>
        <pt x="360" y="76" on="1"/>
        <pt x="364" y="92" on="0"/>
        <pt x="364" y="99" on="1"/>
        <pt x="364" y="329" on="1"/>
        <pt x="364" y="342" on="0"/>
        <pt x="353" y="353" on="1"/>
        <pt x="311" y="392" on="0"/>
      </contour>
      <contour>
        <pt x="246" y="433" on="1"/>
        <pt x="276" y="433" on="0"/>
        <pt x="328" y="426" on="0"/>
        <pt x="342" y="422" on="1"/>
        <pt x="356" y="418" on="1"/>
        <pt x="364" y="418" on="0"/>
        <pt x="364" y="427" on="1"/>
        <pt x="364" y="599" on="1"/>
        <pt x="364" y="602" on="0"/>
        <pt x="363" y="607" on="0"/>
        <pt x="362" y="611" on="0"/>
        <pt x="359" y="615" on="0"/>
        <pt x="357" y="617" on="0"/>
        <pt x="350" y="621" on="0"/>
        <pt x="345" y="624" on="0"/>
        <pt x="334" y="628" on="0"/>
        <pt x="325" y="632" on="0"/>
        <pt x="309" y="638" on="0"/>
        <pt x="302" y="641" on="1"/>
        <pt x="283" y="646" on="0"/>
        <pt x="283" y="657" on="1"/>
        <pt x="283" y="663" on="0"/>
        <pt x="292" y="669" on="1"/>
        <pt x="420" y="731" on="0"/>
        <pt x="424" y="731" on="1"/>
        <pt x="436" y="731" on="0"/>
        <pt x="436" y="717" on="1"/>
        <pt x="436" y="707" on="0"/>
        <pt x="434" y="622" on="0"/>
        <pt x="433" y="473" on="0"/>
        <pt x="433" y="385" on="1"/>
        <pt x="433" y="111" on="0"/>
        <pt x="436" y="84" on="1"/>
        <pt x="436" y="81" on="0"/>
        <pt x="437" y="78" on="0"/>
        <pt x="439" y="75" on="0"/>
        <pt x="442" y="73" on="0"/>
        <pt x="447" y="72" on="0"/>
        <pt x="451" y="71" on="0"/>
        <pt x="460" y="71" on="0"/>
        <pt x="467" y="71" on="0"/>
        <pt x="479" y="70" on="0"/>
        <pt x="484" y="70" on="1"/>
        <pt x="504" y="70" on="0"/>
        <pt x="504" y="55" on="1"/>
        <pt x="504" y="48" on="0"/>
        <pt x="493" y="40" on="0"/>
        <pt x="458" y="25" on="0"/>
        <pt x="443" y="16" on="1"/>
        <pt x="423" y="5" on="0"/>
        <pt x="391" y="-18" on="0"/>
        <pt x="377" y="-29" on="0"/>
        <pt x="373" y="-29" on="1"/>
        <pt x="365" y="-29" on="0"/>
        <pt x="365" y="-18" on="1"/>
        <pt x="365" y="15" on="1"/>
        <pt x="365" y="18" on="0"/>
        <pt x="362" y="18" on="1"/>
        <pt x="356" y="14" on="1"/>
        <pt x="351" y="10" on="0"/>
        <pt x="331" y="-2" on="0"/>
        <pt x="304" y="-14" on="0"/>
        <pt x="263" y="-22" on="0"/>
        <pt x="241" y="-22" on="1"/>
        <pt x="142" y="-22" on="0"/>
        <pt x="17" y="113" on="0"/>
        <pt x="17" y="212" on="1"/>
        <pt x="17" y="301" on="0"/>
        <pt x="132" y="433" on="0"/>
        <pt x="245" y="433" on="1"/>
      </contour>
    </TTGlyph>
    <TTGlyph name="dcaron" xMin="17" yMin="-29" xMax="718" yMax="738">
      <component glyphName="d" x="0" y="0" flags="0x1004"/>
      <component glyphName="comma" x="525" y="636" flags="0x1004"/>
    </TTGlyph>
</ttFont>
